<?xml version="1.0" encoding="UTF-8"?>
<svg width="1024px" height="688px" viewBox="0 0 1024 688" version="1.1" xmlns="http://www.w3.org/2000/svg" xmlns:xlink="http://www.w3.org/1999/xlink">
    <!-- Generator: Sketch 53 (72520) - https://sketchapp.com -->
    <title>faster onboarding</title>
    <desc>Created with Sketch.</desc>
    <defs>
        <rect id="path-1" x="0" y="0" width="107" height="107" rx="8"></rect>
        <path d="M15.1861087,2.46632371 L1.95680035,2.46632371 C1.2543592,2.46632371 0.70244115,1.91644361 0.70244115,1.23891278 C0.70244115,0.561381941 1.2543592,0.0115018428 1.95680035,0.0115018428 L15.1861087,0.0115018428 C15.8885498,0.0115018428 16.4404679,0.561381941 16.4404679,1.23891278 C16.4404679,1.91644361 15.8885498,2.46632371 15.1861087,2.46632371 L15.1861087,2.46632371 Z" id="path-3"></path>
        <rect id="path-5" x="0" y="0" width="107" height="107" rx="8"></rect>
        <rect id="path-7" x="0" y="0" width="107" height="107" rx="8"></rect>
        <rect id="path-9" x="0" y="0" width="107" height="107" rx="8"></rect>
        <path d="M11.5541229,8.35030614 C7.55219183,8.34857634 3.89233457,7.01663003 1.13249666,4.7903769 C0.587835512,4.3527374 0.488202374,3.53627161 0.909982657,2.97062687 C1.1557444,2.640235 1.524387,2.46725496 1.89635072,2.46725496 C2.16203909,2.46725496 2.43104856,2.55547478 2.65688367,2.73883362 C4.95176694,4.59317966 8.08522911,5.75733533 11.5541229,5.75560553 C11.5591045,5.75560553 11.5640862,5.75560553 11.5690678,5.75560553 C16.2534858,5.75560553 20.3201784,3.61930203 22.5436579,0.555825507 C22.7877591,0.218514427 23.1597228,0.0420747858 23.5366682,0.0420747858 C23.7990355,0.0420747858 24.0630633,0.128564806 24.2888984,0.306734248 C24.8368806,0.73918435 24.943156,1.55219054 24.5280179,2.12302468 C21.7548956,5.91993657 16.9625417,8.34511674 11.5541229,8.35030614 L11.5541229,8.35030614 Z" id="path-11"></path>
    </defs>
    <g id="faster-onboarding" stroke="none" stroke-width="1" fill="none" fill-rule="evenodd">
        <g id="Lines" transform="translate(45.000000, 23.000000)">
            <g id="Line">
                <rect id="Rectangle" fill="#42464D" x="0" y="0" width="929" height="146" rx="8"></rect>
                <g id="face" transform="translate(19.000000, 20.000000)">
                    <mask id="mask-2" fill="white">
                        <use xlink:href="#path-1"></use>
                    </mask>
                    <use id="Mask" fill="#6C7076" xlink:href="#path-1"></use>
                    <g id="Robert" mask="url(#mask-2)">
                        <g transform="translate(13.375000, 14.590909)">
                            <path d="M7.90318963,49.6419533 C7.90318963,49.6419533 9.27119076,54.7523266 8.40367785,61.5396205 C7.53616494,68.3269144 5.93460265,71.2776171 5.93460265,71.2776171 C5.93460265,71.2776171 7.76972611,72.0703433 10.3555819,71.194618 C13.2250477,70.2257306 13.7922676,69.1196405 13.7922676,69.1196405 C13.7922676,69.1196405 13.5420235,70.8795602 12.6745106,72.8359676 C11.7903148,74.792375 10.5390942,76.4489693 10.5390942,76.4489693 C10.5390942,76.4489693 12.4743153,77.3653472 15.5606593,76.4066229 C18.3467104,75.5410608 20.0316874,73.637163 20.0316874,73.637163 C20.0316874,73.637163 19.9149068,74.9837811 18.4968569,77.3636533 C18.1131493,78.0276461 17.2623193,79.0964713 17.2623193,79.0964713 C17.2623193,79.0964713 21.0493468,80.4244569 27.0051566,78.9491056 C32.9609663,77.4737542 37.7656532,74.5230514 37.7656532,74.5230514 L7.90318963,49.6419533" id="Fill-298" fill="#925D37"></path>
                            <path d="M73.0065272,49.6419533 C73.0065272,49.6419533 71.6385261,54.7523266 72.5227219,61.5396205 C73.3902348,68.3269144 74.9917971,71.2776171 74.9917971,71.2776171 C74.9917971,71.2776171 73.1566736,72.0703433 70.5708179,71.194618 C67.7013521,70.2257306 67.1341321,69.1196405 67.1341321,69.1196405 C67.1341321,69.1196405 67.3843762,70.8795602 68.2518891,72.8359676 C69.119402,74.792375 70.3873055,76.4489693 70.3873055,76.4489693 C70.3873055,76.4489693 68.4520844,77.3653472 65.3657404,76.4066229 C62.5796893,75.5410608 60.8947123,73.637163 60.8947123,73.637163 C60.8947123,73.637163 60.99481,74.9837811 62.4128599,77.3636533 C62.8132505,78.0276461 63.6473975,79.0964713 63.6473975,79.0964713 C63.6473975,79.0964713 59.877053,80.4244569 53.9212432,78.9491056 C47.9654334,77.4737542 43.1607465,74.5230514 43.1607465,74.5230514 L73.0065272,49.6419533" id="Fill-299" fill="#925D37"></path>
                            <path d="M40.4631999,94.9197789 C35.1145359,94.9197789 30.7520319,90.549305 30.7520319,85.2085425 L30.7520319,71.898387 C30.7520319,66.5576245 35.1145359,62.1888206 40.4631999,62.1888206 C45.8118638,62.1888206 50.1743679,66.5576245 50.1743679,71.898387 L50.1743679,85.2085425 C50.1743679,90.549305 45.8118638,94.9197789 40.4631999,94.9197789" id="Fill-306" fill="#F7C282"></path>
                            <path d="M80.9263998,44.7323096 C80.9263998,48.9497298 77.5416635,52.3695332 73.3732691,52.3695332 C69.2048747,52.3695332 65.8201385,48.9497298 65.8201385,44.7323096 C65.8201385,40.5148894 69.2048747,37.095086 73.3732691,37.095086 C77.5416635,37.095086 80.9263998,40.5148894 80.9263998,44.7323096" id="Fill-307" fill="#F8CB95"></path>
                            <path d="M15.1062613,44.7323096 C15.1062613,48.9497298 11.721525,52.3695332 7.55313064,52.3695332 C3.38473625,52.3695332 0,48.9497298 0,44.7323096 C0,40.5148894 3.38473625,37.095086 7.55313064,37.095086 C11.721525,37.095086 15.1062613,40.5148894 15.1062613,44.7323096" id="Fill-308" fill="#F8CB95"></path>
                            <path d="M40.4631999,78.0087838 C22.3626618,78.0087838 7.55313064,63.0396979 7.55313064,44.744895 L7.55313064,27.8777989 C7.55313064,9.582996 22.3626618,1.63654791 40.4631999,1.63654791 C58.563738,1.63654791 73.3732691,9.582996 73.3732691,27.8777989 L73.3732691,44.744895 C73.3732691,63.0396979 58.563738,78.0087838 40.4631999,78.0087838" id="Fill-309" fill="#F8CB95"></path>
                            <path d="M7.01362131,28.3100489 C7.01362131,23.8180737 7.94599536,19.7764679 9.79347725,16.2957312 L10.328729,15.2744472 L10.6222542,16.3844657 C11.0366426,17.8745357 11.2956354,19.2373639 11.4510311,20.5516392 C11.9517505,24.8075471 12.3834052,33.9304593 10.3632614,37.9988529 C9.65534777,39.4135823 8.74023991,40.3260409 7.61793782,40.7060925 L7.01362131,40.9136978 L7.01362131,28.3100489" id="Fill-310" fill="#925D37"></path>
                            <path d="M73.3084619,40.706079 C72.1861598,40.3260026 71.271052,39.4134843 70.5631384,37.9986625 C68.5429946,33.9300033 68.9746493,24.8064954 69.4753687,20.5503094 C69.6307643,19.2192049 69.9070233,17.8579621 70.3041456,16.3828638 L70.5976707,15.2744472 L71.1329225,16.2941235 C72.9804044,19.7767619 73.9127784,23.8186316 73.9127784,28.3092259 L73.9127784,40.9136978 L73.3084619,40.706079" id="Fill-311" fill="#925D37"></path>
                            <path d="M4.31607465,28.8848614 C4.31607465,9.57245626 21.3687338,0 40.3142879,0 C56.0219954,0 68.192978,6.34441693 72.2942505,19.3056377 C71.8791419,20.9873312 64.9053183,24.3050383 60.0070374,26.0848587 C61.6010543,22.8415928 62.1822062,18.4208031 61.733889,15.7679909 C58.9941726,21.5151867 51.0406928,27.115192 42.0743482,29.1792423 C43.087213,24.6112621 44.5317908,20.7792343 44.249517,16.9472065 C39.1851927,22.6944023 32.2445778,28.1472172 19.2267737,31.0944103 C21.9664901,26.3792397 23.709946,23.1359737 25.7356757,18.1264221 C10.8249767,28.7376709 4.31607465,28.8848614 4.31607465,28.8848614" id="Fill-312" fill="#925D37"></path>
                            <path d="M30.4978201,80.1908477 C30.4978201,80.1908477 31.3599297,82.6527874 33.2665184,85.4429857 C36.15127,89.6835513 39.3841812,91.8423542 39.3841812,91.8423542 L34.3275765,99.8294226 C34.3275765,99.8294226 31.5257201,96.7662337 28.922812,91.7334929 C26.7509589,87.5029761 26.4359573,83.8016926 26.4359573,83.8016926 L30.4978201,80.1908477" id="Fill-317" fill="#F0553F"></path>
                            <path d="M50.968089,80.1908477 C50.968089,80.1908477 50.0894003,82.6527874 48.1993907,85.4429857 C45.3146391,89.6835513 42.0817279,91.8423542 42.0817279,91.8423542 L47.1383326,99.8294226 C47.1383326,99.8294226 49.940189,96.7662337 52.526518,91.7334929 C54.7149502,87.5029761 55.0299518,83.8016926 55.0299518,83.8016926 L50.968089,80.1908477" id="Fill-318" fill="#F0553F"></path>
                            <path d="M73.6800241,36.54957 C73.6800241,36.54957 72.7672249,36.6083413 71.4561134,42.423339 C70.1450018,48.2383367 71.8876184,58.9884421 62.7928194,64.4726415 C53.6980203,69.9585201 46.5781867,69.0803093 44.7193957,68.4220711 C42.8440083,67.7638328 42.8440083,64.0343757 42.8440083,64.0343757 L40.6532903,64.0343757 L40.6532903,64.0528467 L38.6119394,64.0528467 C38.6119394,64.0528467 38.6119394,67.7823038 36.7531483,68.440542 C34.8777609,69.0987803 27.7579274,69.9753118 18.6631283,64.4911125 C9.56832926,59.0052339 11.3275422,48.2551285 9.99983433,42.44181 C8.68872279,36.6268123 7.79251996,36.568041 7.79251996,36.568041 C7.79251996,36.568041 3.6434328,57.4704641 14.4974448,71.6209075 C22.7126374,82.3307126 40.8026574,81.8236005 40.8026574,81.8236005 L40.8026574,81.8084879 C42.4456959,81.8286381 59.158219,81.781621 66.9585029,71.6041157 C77.8125149,57.4519931 73.6800241,36.54957 73.6800241,36.54957" id="Fill-319" fill="#925D37"></path>
                            <path d="M57.7274985,74.7170712 C57.7274985,74.7170712 56.9605668,66.2024425 55.7601521,61.0625245 C55.1766171,58.6034199 53.7761332,55.1474724 50.1915613,53.5988965 C47.3572486,52.3752677 42.222141,53.096244 40.1714324,53.4516548 C38.4875172,53.1233229 33.6525133,52.3566509 30.7348385,53.6175132 C27.166939,55.1643967 25.7497827,58.6203442 25.1829201,61.0794488 C23.9658329,66.2210593 23.1989013,74.735688 23.1989013,74.735688 L29.7511652,70.7550863 C29.7511652,70.7550863 29.2009751,62.6517188 32.9355989,60.0859909 C36.5034984,57.6336559 44.6729878,57.9653727 47.9908009,60.0673741 C51.8087868,62.4909377 51.1919069,70.7364696 51.1919069,70.7364696 L57.7274985,74.7170712" id="Fill-320" fill="#925D37"></path>
                            <path d="M22.381225,49.6419533 L22.381225,49.6419533 C20.1603757,49.6419533 18.3433173,47.8415761 18.3433173,45.6422232 L18.3433173,42.7330264 C18.3433173,40.5320112 20.1603757,38.7316339 22.381225,38.7316339 C24.6188988,38.7316339 26.4359573,40.5320112 26.4359573,42.7330264 L26.4359573,45.6422232 C26.4359573,47.8415761 24.6188988,49.6419533 22.381225,49.6419533" id="Fill-321" fill="#523B2E"></path>
                            <path d="M22.6593919,42.278327 C22.6593919,43.0319783 22.0470654,43.6412776 21.3188933,43.6412776 C20.5741718,43.6412776 19.9618453,43.0319783 19.9618453,42.278327 C19.9618453,41.5246757 20.5741718,40.9136978 21.3188933,40.9136978 C22.0470654,40.9136978 22.6593919,41.5246757 22.6593919,42.278327" id="Fill-322" fill="#FFFFFF"></path>
                            <path d="M55.8476281,49.6419533 L55.8476281,49.6419533 C53.6099543,49.6419533 51.7928958,47.8415761 51.7928958,45.6422232 L51.7928958,42.7330264 C51.7928958,40.5320112 53.6099543,38.7316339 55.8476281,38.7316339 C58.0684774,38.7316339 59.8855358,40.5320112 59.8855358,42.7330264 L59.8855358,45.6422232 C59.8855358,47.8415761 58.0684774,49.6419533 55.8476281,49.6419533" id="Fill-323" fill="#523B2E"></path>
                            <path d="M56.1089705,42.278327 C56.1089705,43.0319783 55.5131933,43.6412776 54.7684719,43.6412776 C54.0237504,43.6412776 53.4114238,43.0319783 53.4114238,42.278327 C53.4114238,41.5246757 54.0237504,40.9136978 54.7684719,40.9136978 C55.5131933,40.9136978 56.1089705,41.5246757 56.1089705,42.278327" id="Fill-324" fill="#FFFFFF"></path>
                            <polygon id="Fill-325" fill="#895837" points="17.2642986 34.9130221 27.5149759 34.9130221 27.5149759 32.1854423 17.2642986 32.1854423"></polygon>
                            <polygon id="Fill-326" fill="#895837" points="50.7138772 34.9130221 60.9645545 34.9130221 60.9645545 32.1854423 50.7138772 32.1854423"></polygon>
                            <g id="Group-329" stroke-width="1" fill="none" transform="translate(31.831051, 60.677150)">
                                <mask id="mask-4" fill="white">
                                    <use xlink:href="#path-3"></use>
                                </mask>
                                <g id="Clip-328"></g>
                                <polygon id="Fill-327" fill="#CE9866" mask="url(#mask-4)" points="0.70244115 2.46632371 16.4404679 2.46632371 16.4404679 0.0115018428 0.70244115 0.0115018428"></polygon>
                            </g>
                        </g>
                    </g>
                </g>
                <text id="2-days-ago" font-family="Roboto-Regular, Roboto" font-size="30" font-weight="normal" letter-spacing="0.78" fill="#A7A8AA">
                    <tspan x="156" y="111">2 days ago</tspan>
                </text>
                <text id="Switching-to-styled" font-family="Roboto-Regular, Roboto" font-size="36" font-weight="normal" letter-spacing="0.78" fill="#FFFFFF">
                    <tspan x="156" y="53">Switching to styled components</tspan>
                </text>
                <g id="Play-button" transform="translate(887.000000, 31.000000)">
                    <g>
                        <circle id="Oval" fill="#7289DA" cx="42.5" cy="42.5" r="42.5"></circle>
                        <path d="M57.486842,51.8009372 C57.4862166,53.2116149 56.3317622,54.3549535 54.9076823,54.3552632 L33.2643803,54.3552632 C31.8697194,54.3552632 30.6959837,53.2750616 30.6467004,51.8946482 C30.6286826,51.43882 30.7349359,50.9865989 30.9542962,50.5855 L31.0228396,50.4665375 L41.7977564,31.9802204 L41.8600687,31.8736031 C42.3283143,31.1105543 43.1644709,30.6447368 44.0659215,30.6447368 C44.967372,30.6447368 45.8035287,31.1105543 46.2717743,31.8736031 L46.33352,31.9802204 L57.1118357,50.4755158 C57.3572431,50.8748674 57.4869813,51.3334136 57.486842,51.8009372 L57.486842,51.8009372 Z" id="Shape" fill="#FFFFFF" fill-rule="nonzero" transform="translate(44.065789, 42.500000) rotate(90.000000) translate(-44.065789, -42.500000) "></path>
                    </g>
                </g>
            </g>
            <g id="Line" transform="translate(0.000000, 165.000000)">
                <rect id="Rectangle" fill="#42464D" x="0" y="0" width="929" height="146" rx="8"></rect>
                <text id="3-weeks-ago" font-family="Roboto-Regular, Roboto" font-size="30" font-weight="normal" letter-spacing="0.78" fill="#A7A8AA">
                    <tspan x="156" y="111">3 weeks ago</tspan>
                </text>
                <text id="Backend-structure-ov" font-family="Roboto-Regular, Roboto" font-size="36" font-weight="normal" letter-spacing="0.78" fill="#FFFFFF">
                    <tspan x="155" y="53">Backend structure overview</tspan>
                </text>
                <g id="Play-button" transform="translate(887.000000, 31.000000)">
                    <g>
                        <circle id="Oval" fill="#7289DA" cx="42.5" cy="42.5" r="42.5"></circle>
                        <path d="M57.486842,51.8009372 C57.4862166,53.2116149 56.3317622,54.3549535 54.9076823,54.3552632 L33.2643803,54.3552632 C31.8697194,54.3552632 30.6959837,53.2750616 30.6467004,51.8946482 C30.6286826,51.43882 30.7349359,50.9865989 30.9542962,50.5855 L31.0228396,50.4665375 L41.7977564,31.9802204 L41.8600687,31.8736031 C42.3283143,31.1105543 43.1644709,30.6447368 44.0659215,30.6447368 C44.967372,30.6447368 45.8035287,31.1105543 46.2717743,31.8736031 L46.33352,31.9802204 L57.1118357,50.4755158 C57.3572431,50.8748674 57.4869813,51.3334136 57.486842,51.8009372 L57.486842,51.8009372 Z" id="Shape" fill="#FFFFFF" fill-rule="nonzero" transform="translate(44.065789, 42.500000) rotate(90.000000) translate(-44.065789, -42.500000) "></path>
                    </g>
                </g>
                <g id="face" transform="translate(19.000000, 20.000000)">
                    <mask id="mask-6" fill="white">
                        <use xlink:href="#path-5"></use>
                    </mask>
                    <use id="Mask" fill="#6C7076" xlink:href="#path-5"></use>
                    <g id="Angerfist" mask="url(#mask-6)">
                        <g transform="translate(13.122642, 14.132075)">
                            <polyline id="Fill-111" fill="#F4B48A" points="40.6113333 45.5533922 40.6113333 59.5822367 68.2270399 59.6532517 52.1752316 45.5533922 40.6113333 45.5533922"></polyline>
                            <path d="M47.5637131,52.7551693 L49.2103147,53.75931 C53.2740537,56.2381789 58.2440098,56.1288171 62.1234902,53.9067828 L68.7685243,59.6532517 L39.5283644,59.5836578 L40.2972251,46.0956945 C42.2905678,48.5115975 44.3257875,50.8081967 47.5637131,52.7551693" id="Fill-113" fill="#2B3A4D"></path>
                            <path d="M40.6104951,100.868226 C35.2497572,100.868226 30.8646133,96.5251588 30.8646133,91.2158592 L30.8646133,77.984115 C30.8646133,72.6748154 35.2497572,68.3300883 40.6104951,68.3300883 C45.971233,68.3300883 50.3580532,72.6748154 50.3580532,77.984115 L50.3580532,91.2158592 C50.3580532,96.5251588 45.971233,100.868226 40.6104951,100.868226" id="Fill-610" fill="#F7C282"></path>
                            <path d="M81.2226665,50.9764151 C81.2226665,55.1689901 77.8281365,58.5686471 73.6418843,58.5686471 C69.4539582,58.5686471 66.0611021,55.1689901 66.0611021,50.9764151 C66.0611021,46.7821637 69.4539582,43.3841831 73.6418843,43.3841831 C77.8281365,43.3841831 81.2226665,46.7821637 81.2226665,50.9764151" id="Fill-611" fill="#F8CB95"></path>
                            <path d="M15.1615644,50.9764151 C15.1615644,55.1689901 11.7670344,58.5686471 7.58078221,58.5686471 C3.39285616,58.5686471 0,55.1689901 0,50.9764151 C0,46.7821637 3.39285616,43.3841831 7.58078221,43.3841831 C11.7670344,43.3841831 15.1615644,46.7821637 15.1615644,50.9764151" id="Fill-612" fill="#F8CB95"></path>
                            <path d="M40.6104993,84.0568547 C22.4444885,84.0568547 7.58078221,69.175953 7.58078221,50.9889264 L7.58078221,34.2211958 C7.58078221,16.0324994 22.4444885,8.13453432 40.6104993,8.13453432 C58.778178,8.13453432 73.6418843,16.0324994 73.6418843,34.2211958 L73.6418843,50.9889264 C73.6418843,69.175953 58.778178,84.0568547 40.6104993,84.0568547" id="Fill-613" fill="#F8CB95"></path>
                            <path d="M79.5174501,16.3771987 C78.1731203,14.8375516 76.1133391,15.3590717 74.1237964,16.5283399 C76.5037338,13.3427485 77.1767155,10.0691298 74.5550273,9.27024064 C71.7324248,8.40989844 69.0797011,18.6642474 68.4900254,21.1107417 C68.3332141,21.1456205 68.2270399,21.1688729 68.2270399,21.1688729 L68.4393884,21.321675 L68.4279543,21.3715018 L68.303812,21.5110168 L68.3903849,21.5309475 L68.3658832,21.6389055 L68.5128937,21.5542 C68.6060004,21.5724698 68.7301426,21.5924005 68.8869539,21.6173139 C69.4031243,21.9445096 70.1855471,22.3929506 71.1394822,22.7782776 C75.0352618,24.3528034 76.5821395,28.6379055 78.8232336,25.3825567 C80.0270867,23.6336371 77.9869069,22.015928 75.3570515,21.1954472 C78.908173,20.2919218 81.3436478,18.469923 79.5174501,16.3771987" id="Fill-614" fill="#341909"></path>
                            <path d="M7.03929776,34.1069328 C7.03929776,29.6430845 7.9759531,25.6252881 9.82324557,22.1633924 L10.3644242,21.1497892 L10.6662354,22.2516041 C11.0703848,23.7345605 11.3409741,25.08936 11.4953488,26.3958928 C12.0018365,30.6267289 12.4198623,39.6958972 10.3973806,43.7403235 C9.69315455,45.1450542 8.76864104,46.0521375 7.64292009,46.4316145 L7.03929776,46.6379968 L7.03929776,34.1069328" id="Fill-615" fill="#341909"></path>
                            <path d="M73.5795991,46.4316011 C72.4553383,46.0520992 71.5288642,45.1449567 70.8262012,43.7401342 C68.8014909,39.6954438 69.2213537,30.6256833 69.7279651,26.3945709 C69.8858474,25.071308 70.1582377,23.7164199 70.5590158,22.2500116 L70.8609007,21.1497892 L71.4004764,22.1617941 C73.2464848,25.6255804 74.1833687,29.6436391 74.1833687,34.1061144 L74.1833687,46.6379968 L73.5795991,46.4316011" id="Fill-616" fill="#341909"></path>
                            <path d="M72.017431,22.0090099 C72.017431,22.0090099 60.5316122,30.4825064 39.7499821,31.3635479 C18.9666778,32.2429048 2.36414442,26.5321387 1.68437147,20.5771069 C0.845538352,13.2407098 9.09155254,16.5290329 9.09155254,16.5290329 C9.09155254,16.5290329 1.9438907,10.895758 6.32725418,6.57141099 C9.96722065,2.97986136 14.8461821,9.86647247 14.8461821,9.86647247 C14.8461821,9.86647247 11.7018137,2.34140109 16.5606834,1.97921386 C20.9725102,1.64903388 22.2483403,8.03195205 25.6388334,6.1603706 C29.0293265,4.29047375 37.8898153,-3.41484895 51.5622928,1.75853234 C65.2347704,6.93022904 72.017431,22.0090099 72.017431,22.0090099" id="Fill-617" fill="#341909"></path>
                            <path d="M39.1687234,73.7531112 C35.1278163,73.7531112 31.4323146,72.4473177 28.6455978,70.267608 C28.095632,69.8391181 27.9950285,69.0414155 28.4209166,68.4859028 C28.6690719,68.1624183 29.0396281,67.9930547 29.4152145,67.9930547 C29.6851672,67.9930547 29.9567967,68.0811238 30.1848313,68.2589556 C32.5020651,70.0745335 35.666045,71.2143506 39.1687234,71.212657 C39.1737536,71.212657 39.1787838,71.212657 39.1838139,71.212657 C43.913855,71.212657 48.0184776,69.1210164 50.265289,66.1215868 C50.5117675,65.7913278 50.8873539,65.6185769 51.2679705,65.6185769 C51.532893,65.6185769 51.7994923,65.7032587 52.0258501,65.8777032 C52.5791694,66.3011122 52.6881565,67.0971212 52.2689753,67.6560211 C49.4671679,71.3735524 44.6298165,73.7497239 39.1687234,73.7531112" id="Fill-618" fill="#CE9866"></path>
                            <path d="M23.0139326,55.8571357 L23.0139326,55.8571357 C20.7795921,55.8571357 18.9519555,54.0670919 18.9519555,51.8803624 L18.9519555,48.9878632 C18.9519555,46.7994809 20.7795921,45.0110899 23.0139326,45.0110899 C25.2465856,45.0110899 27.0742222,46.7994809 27.0742222,48.9878632 L27.0742222,51.8803624 C27.0742222,54.0670919 25.2465856,55.8571357 23.0139326,55.8571357" id="Fill-619" fill="#523B2E"></path>
                            <path d="M23.2838311,48.5368891 C23.2838311,49.2861006 22.6790346,49.8918105 21.930953,49.8918105 C21.1828714,49.8918105 20.5764088,49.2861006 20.5764088,48.5368891 C20.5764088,47.7876776 21.1828714,47.1802991 21.930953,47.1802991 C22.6790346,47.1802991 23.2838311,47.7876776 23.2838311,48.5368891" id="Fill-620" fill="#FFFFFF"></path>
                            <path d="M56.5851243,55.8571357 L56.5851243,55.8571357 C54.3503195,55.8571357 52.523991,54.0670919 52.523991,51.8803624 L52.523991,48.9878632 C52.523991,46.7994809 54.3503195,45.0110899 56.5851243,45.0110899 C58.8182413,45.0110899 60.6462577,46.7994809 60.6462577,48.9878632 L60.6462577,51.8803624 C60.6462577,54.0670919 58.8182413,55.8571357 56.5851243,55.8571357" id="Fill-621" fill="#523B2E"></path>
                            <path d="M56.8558666,48.5368891 C56.8558666,49.2861006 56.249404,49.8918105 55.5013224,49.8918105 C54.7532408,49.8918105 54.1484443,49.2861006 54.1484443,48.5368891 C54.1484443,47.7876776 54.7532408,47.1802991 55.5013224,47.1802991 C56.249404,47.1802991 56.8558666,47.7876776 56.8558666,48.5368891" id="Fill-622" fill="#FFFFFF"></path>
                            <polygon id="Fill-623" fill="#341909" points="17.8689866 41.2149739 28.1571911 41.2149739 28.1571911 38.5034625 17.8689866 38.5034625"></polygon>
                            <polygon id="Fill-624" fill="#341909" points="51.4410221 41.2149739 61.7292265 41.2149739 61.7292265 38.5034625 51.4410221 38.5034625"></polygon>
                        </g>
                    </g>
                </g>
            </g>
            <g id="Line" transform="translate(0.000000, 331.000000)">
                <rect id="Rectangle" fill="#42464D" x="0" y="0" width="929" height="146" rx="8"></rect>
                <text id="4-weeks-ago" font-family="Roboto-Regular, Roboto" font-size="30" font-weight="normal" letter-spacing="0.78" fill="#A7A8AA">
                    <tspan x="156" y="111">4 weeks ago</tspan>
                </text>
                <text id="Why-we-chose-Redux" font-family="Roboto-Regular, Roboto" font-size="36" font-weight="normal" letter-spacing="0.78" fill="#FFFFFF">
                    <tspan x="156" y="53">Why we chose Redux</tspan>
                </text>
                <g id="face" transform="translate(19.000000, 20.000000)">
                    <mask id="mask-8" fill="white">
                        <use xlink:href="#path-7"></use>
                    </mask>
                    <use id="Mask" fill="#6C7076" xlink:href="#path-7"></use>
                    <g id="Tatiana" mask="url(#mask-8)">
                        <g transform="translate(13.122642, 14.132075)">
                            <path d="M8.78436951,46.9743245 C8.78436951,46.9743245 1.90566667,53.1290636 0.728382567,61.6292666 C-0.432083193,70.131152 4.10886978,76.4322724 6.16070779,80.828755 C8.19572746,85.2269202 9.52437666,90.3553087 9.52437666,90.3553087 C9.52437666,90.3553087 17.4289985,86.5443507 22.2726817,78.631355 C27.0995465,70.7166767 28.1254655,62.5092361 26.0736275,53.2754448 C24.0217895,44.043336 12.1648567,43.8969549 8.78436951,46.9743245" id="Fill-799" fill="#4F2E1A"></path>
                            <path d="M41.340985,94.1654723 L40.4398536,94.1654723 C36.3680747,94.1654723 33.030551,90.7840295 33.030551,86.6520961 L33.030551,68.475994 C33.030551,64.3423666 36.3680747,60.9626179 40.4398536,60.9626179 L41.340985,60.9626179 C45.4127639,60.9626179 48.7335999,64.3423666 48.7335999,68.475994 L48.7335999,86.6520961 C48.7335999,90.7840295 45.4127639,94.1654723 41.340985,94.1654723" id="Fill-803" fill="#F7C282"></path>
                            <path d="M81.2226665,44.0890362 C81.2226665,48.2971259 77.8255389,51.7093634 73.6418843,51.7093634 C69.4582297,51.7093634 66.0611021,48.2971259 66.0611021,44.0890362 C66.0611021,39.8809464 69.4582297,36.4687089 73.6418843,36.4687089 C77.8255389,36.4687089 81.2226665,39.8809464 81.2226665,44.0890362" id="Fill-804" fill="#F8CB95"></path>
                            <path d="M15.1615644,44.0890362 C15.1615644,48.2971259 11.7644368,51.7093634 7.58078221,51.7093634 C3.38039295,51.7093634 0,48.2971259 0,44.0890362 C0,39.8809464 3.38039295,36.4687089 7.58078221,36.4687089 C11.7644368,36.4687089 15.1615644,39.8809464 15.1615644,44.0890362" id="Fill-805" fill="#F8CB95"></path>
                            <path d="M40.6196722,77.2918905 L40.6196722,77.2918905 C22.4574555,77.2918905 7.58078221,62.3559218 7.58078221,44.1015937 L7.58078221,27.2718139 C7.58078221,9.01748579 22.4574555,1.08861818 40.6196722,1.08861818 C58.7818888,1.08861818 73.6418843,9.01748579 73.6418843,27.2718139 L73.6418843,44.1015937 C73.6418843,62.3559218 58.7818888,77.2918905 40.6196722,77.2918905" id="Fill-806" fill="#F8CB95"></path>
                            <path d="M40.8904009,7.91302822 C40.8904009,7.91302822 33.0978203,27.4969312 7.03929776,44.0890362 L7.03929776,27.1820937 C7.03929776,10.1623486 19.6939158,0 40.8904009,0 C62.086886,0 74.7248532,10.1623486 74.7248532,27.1820937 L74.7248532,44.0890362 C47.6006786,27.3487724 40.8904009,7.91302822 40.8904009,7.91302822" id="Fill-807" fill="#4F2E1A"></path>
                            <path d="M33.0183829,78.9248178 C33.0183829,78.9248178 33.6954557,80.9025789 35.2147411,83.145279 C37.4936692,86.5540481 40.0698488,88.2904954 40.0698488,88.2904954 L36.0569537,94.7097814 C36.0569537,94.7097814 33.8275675,92.2477051 31.763321,88.2027449 C30.029354,84.8007258 29.7816444,81.8256466 29.7816444,81.8256466 L33.0183829,78.9248178" id="Fill-810" fill="#FBD3CD"></path>
                            <path d="M49.2985893,78.9248178 C49.2985893,78.9248178 48.6038874,80.9025789 47.0986999,83.145279 C44.8161079,86.5540481 42.2357866,88.2904954 42.2357866,88.2904954 L46.2551333,94.7097814 C46.2551333,94.7097814 48.4881037,92.2477051 50.5556689,88.2027449 C52.2924237,84.8007258 52.523991,81.8256466 52.523991,81.8256466 L49.2985893,78.9248178" id="Fill-811" fill="#FBD3CD"></path>
                            <path d="M26.5327377,58.2410724 C28.586562,62.6986596 33.7461693,65.8613997 39.7907577,65.8613997 C45.8353462,65.8613997 51.0116512,62.6986596 53.0654754,58.2410724 L26.5327377,58.2410724" id="Fill-812" fill="#FFFFFF"></path>
                            <path d="M23.5545733,48.9878179 L23.5545733,48.9878179 C21.3302181,48.9878179 19.49344,47.19115 19.49344,44.9963286 L19.49344,42.0931256 C19.49344,39.8966451 21.3302181,38.1016362 23.5545733,38.1016362 C25.7789285,38.1016362 27.6157066,39.8966451 27.6157066,42.0931256 L27.6157066,44.9963286 C27.6157066,47.19115 25.7789285,48.9878179 23.5545733,48.9878179" id="Fill-813" fill="#523B2E"></path>
                            <path d="M23.8253155,41.6404827 C23.8253155,42.3924666 23.2236661,43.000418 22.4716044,43.000418 C21.7195427,43.000418 21.1178933,42.3924666 21.1178933,41.6404827 C21.1178933,40.8884987 21.7195427,40.2788725 22.4716044,40.2788725 C23.2236661,40.2788725 23.8253155,40.8884987 23.8253155,41.6404827" id="Fill-814" fill="#FFFFFF"></path>
                            <path d="M56.5851243,48.9878179 L56.5851243,48.9878179 C54.3607691,48.9878179 52.523991,47.19115 52.523991,44.9963286 L52.523991,42.0931256 C52.523991,39.8966451 54.3607691,38.1016362 56.5851243,38.1016362 C58.8094795,38.1016362 60.6462577,39.8966451 60.6462577,42.0931256 L60.6462577,44.9963286 C60.6462577,47.19115 58.8094795,48.9878179 56.5851243,48.9878179" id="Fill-815" fill="#523B2E"></path>
                            <path d="M56.8558666,41.6404827 C56.8558666,42.3924666 56.2542172,43.000418 55.5021554,43.000418 C54.7500937,43.000418 54.1484443,42.3924666 54.1484443,41.6404827 C54.1484443,40.8884987 54.7500937,40.2788725 55.5021554,40.2788725 C56.2542172,40.2788725 56.8558666,40.8884987 56.8558666,41.6404827" id="Fill-816" fill="#FFFFFF"></path>
                            <polygon id="Fill-817" fill="#4F2E1A" points="18.4104711 34.2914726 28.6986755 34.2914726 28.6986755 32.6585453 18.4104711 32.6585453"></polygon>
                            <polygon id="Fill-818" fill="#4F2E1A" points="51.4410221 34.2914726 61.7292265 34.2914726 61.7292265 32.6585453 51.4410221 32.6585453"></polygon>
                        </g>
                    </g>
                </g>
                <g id="Play-button" transform="translate(887.000000, 31.000000)">
                    <g>
                        <circle id="Oval" fill="#7289DA" cx="42.5" cy="42.5" r="42.5"></circle>
                        <path d="M57.486842,51.8009372 C57.4862166,53.2116149 56.3317622,54.3549535 54.9076823,54.3552632 L33.2643803,54.3552632 C31.8697194,54.3552632 30.6959837,53.2750616 30.6467004,51.8946482 C30.6286826,51.43882 30.7349359,50.9865989 30.9542962,50.5855 L31.0228396,50.4665375 L41.7977564,31.9802204 L41.8600687,31.8736031 C42.3283143,31.1105543 43.1644709,30.6447368 44.0659215,30.6447368 C44.967372,30.6447368 45.8035287,31.1105543 46.2717743,31.8736031 L46.33352,31.9802204 L57.1118357,50.4755158 C57.3572431,50.8748674 57.4869813,51.3334136 57.486842,51.8009372 L57.486842,51.8009372 Z" id="Shape" fill="#FFFFFF" fill-rule="nonzero" transform="translate(44.065789, 42.500000) rotate(90.000000) translate(-44.065789, -42.500000) "></path>
                    </g>
                </g>
            </g>
            <g id="Line" transform="translate(0.000000, 496.000000)">
                <rect id="Rectangle" fill="#42464D" x="0" y="0" width="929" height="146" rx="8"></rect>
                <text id="2-months-ago" font-family="Roboto-Regular, Roboto" font-size="30" font-weight="normal" letter-spacing="0.78" fill="#A7A8AA">
                    <tspan x="156" y="111">2 months ago</tspan>
                </text>
                <text id="How-to-setup-your-lo" font-family="Roboto-Regular, Roboto" font-size="36" font-weight="normal" letter-spacing="0.78" fill="#FFFFFF">
                    <tspan x="156" y="53">How to setup your local machine</tspan>
                </text>
                <g id="face" transform="translate(19.000000, 20.000000)">
                    <mask id="mask-10" fill="white">
                        <use xlink:href="#path-9"></use>
                    </mask>
                    <use id="Mask" fill="#6C7076" xlink:href="#path-9"></use>
                    <g id="Mark" mask="url(#mask-10)">
                        <g transform="translate(13.122642, 17.160377)">
                            <path d="M40.6121714,95.594233 C35.2514335,95.594233 30.8646133,91.1449166 30.8646133,85.7078078 L30.8646133,72.1575397 C30.8646133,66.7204309 35.2514335,62.2728147 40.6121714,62.2728147 C45.971233,62.2728147 50.3580532,66.7204309 50.3580532,72.1575397 L50.3580532,85.7078078 C50.3580532,91.1449166 45.971233,95.594233 40.6121714,95.594233" id="Fill-7" fill="#F2A775"></path>
                            <path d="M81.2226665,44.7927263 C81.2226665,49.0175313 77.8281365,52.440265 73.6418843,52.440265 C69.4556321,52.440265 66.0611021,49.0175313 66.0611021,44.7927263 C66.0611021,40.5696099 69.4556321,37.1451877 73.6418843,37.1451877 C77.8281365,37.1451877 81.2226665,40.5696099 81.2226665,44.7927263" id="Fill-8" fill="#F2A775"></path>
                            <path d="M15.1615644,44.7927263 C15.1615644,49.0175313 11.7670344,52.440265 7.58078221,52.440265 C3.39452999,52.440265 0,49.0175313 0,44.7927263 C0,40.5696099 3.39452999,37.1451877 7.58078221,37.1451877 C11.7670344,37.1451877 15.1615644,40.5696099 15.1615644,44.7927263" id="Fill-9" fill="#F2A775"></path>
                            <path d="M40.6121672,78.6603975 C22.4444885,78.6603975 7.58078221,63.6714235 7.58078221,45.3506322 L7.58078221,28.4628082 C7.58078221,10.1420168 22.4444885,2.18501104 40.6121672,2.18501104 C58.778178,2.18501104 73.6418843,10.1420168 73.6418843,28.4628082 L73.6418843,45.3506322 C73.6418843,63.6714235 58.778178,78.6603975 40.6121672,78.6603975" id="Fill-10" fill="#F4B48A"></path>
                            <path d="M7.03929776,28.3482853 C7.03929776,23.850243 7.97618171,19.8031785 9.82219009,16.3177406 L10.3652358,15.2950773 L10.6653856,16.406595 C11.0696337,17.8986776 11.3402891,19.2650229 11.4947014,20.5810733 C12.0013128,24.8410529 12.4211756,33.9762868 10.3964653,38.0518517 C9.69380229,39.4668154 8.76732816,40.3805065 7.64306742,40.7627478 L7.03929776,40.968957 L7.03929776,28.3482853" id="Fill-17" fill="#FDDD4E"></path>
                            <path d="M73.5795991,40.7627344 C72.4553383,40.380468 71.5288642,39.4667173 70.8262012,38.0516612 C68.8014909,33.9758301 69.2213537,24.8399997 69.7279651,20.5797419 C69.8858474,19.2451629 70.1582377,17.8820816 70.5590158,16.404991 L70.8609007,15.2950773 L71.4022114,16.3161308 C73.2464848,19.8034729 74.1833687,23.8508017 74.1833687,28.3474611 L74.1833687,40.968957 L73.5795991,40.7627344" id="Fill-18" fill="#FDDD4E"></path>
                            <path d="M4.33187555,28.9238741 C4.33187555,9.58707922 21.4336314,0 40.4568766,0 C56.218756,0 68.4326294,6.35298588 72.5589154,19.3317125 C72.1372876,21.0156773 65.1346002,24.3378654 60.2200536,26.1200897 C61.816573,22.8741374 62.398186,18.4456827 61.9615596,15.7892876 C59.2034807,21.5459398 51.2192172,27.1535087 42.2200473,29.2186527 C43.2366202,24.6445028 44.688153,20.8072994 44.3981797,16.9700959 C39.3169817,22.725054 32.3492911,28.1852336 19.2838297,31.1364073 C22.0419086,26.4148682 23.7834146,23.168916 25.8165604,18.1509042 C10.8646063,28.7764848 4.33187555,28.9238741 4.33187555,28.9238741" id="Fill-19" fill="#FDDD4E"></path>
                            <g id="Group-22" stroke-width="1" fill="none" transform="translate(28.157191, 59.119648)">
                                <mask id="mask-12" fill="white">
                                    <use xlink:href="#path-11"></use>
                                </mask>
                                <g id="Clip-21"></g>
                                <polygon id="Fill-20" fill="#CB875F" mask="url(#mask-12)" points="0.488202374 8.35030614 24.943156 8.35030614 24.943156 0.0420747858 0.488202374 0.0420747858"></polygon>
                            </g>
                            <path d="M23.0139326,49.7090012 L23.0139326,49.7090012 C20.7795921,49.7090012 18.9519555,47.9061923 18.9519555,45.7038689 L18.9519555,42.7907428 C18.9519555,40.5867549 20.7795921,38.783946 23.0139326,38.783946 C25.2465856,38.783946 27.0742222,40.5867549 27.0742222,42.7907428 L27.0742222,45.7038689 C27.0742222,47.9061923 25.2465856,49.7090012 23.0139326,49.7090012" id="Fill-23" fill="#523B2E"></path>
                            <path d="M23.2838311,42.3354293 C23.2838311,43.0900985 22.6790346,43.7002208 21.930953,43.7002208 C21.1828714,43.7002208 20.5764088,43.0900985 20.5764088,42.3354293 C20.5764088,41.5807601 21.1828714,40.968957 21.930953,40.968957 C22.6790346,40.968957 23.2838311,41.5807601 23.2838311,42.3354293" id="Fill-24" fill="#FFFFFF"></path>
                            <path d="M56.5851243,49.7090012 L56.5851243,49.7090012 C54.3503195,49.7090012 52.523991,47.9061923 52.523991,45.7038689 L52.523991,42.7907428 C52.523991,40.5867549 54.3503195,38.783946 56.5851243,38.783946 C58.8182413,38.783946 60.6462577,40.5867549 60.6462577,42.7907428 L60.6462577,45.7038689 C60.6462577,47.9061923 58.8182413,49.7090012 56.5851243,49.7090012" id="Fill-25" fill="#523B2E"></path>
                            <path d="M56.8558666,42.3354293 C56.8558666,43.0900985 56.249404,43.7002208 55.5013224,43.7002208 C54.7532408,43.7002208 54.1484443,43.0900985 54.1484443,42.3354293 C54.1484443,41.5807601 54.7532408,40.968957 55.5013224,40.968957 C56.249404,40.968957 56.8558666,41.5807601 56.8558666,42.3354293" id="Fill-26" fill="#FFFFFF"></path>
                            <polygon id="Fill-27" fill="#FDDD4E" points="17.8689866 34.4139239 28.1571911 34.4139239 28.1571911 31.6826601 17.8689866 31.6826601"></polygon>
                            <polygon id="Fill-28" fill="#FDDD4E" points="51.4410221 34.4139239 61.7292265 34.4139239 61.7292265 31.6826601 51.4410221 31.6826601"></polygon>
                        </g>
                    </g>
                </g>
                <g id="Play-button" transform="translate(887.000000, 31.000000)">
                    <g>
                        <circle id="Oval" fill="#7289DA" cx="42.5" cy="42.5" r="42.5"></circle>
                        <path d="M57.486842,51.8009372 C57.4862166,53.2116149 56.3317622,54.3549535 54.9076823,54.3552632 L33.2643803,54.3552632 C31.8697194,54.3552632 30.6959837,53.2750616 30.6467004,51.8946482 C30.6286826,51.43882 30.7349359,50.9865989 30.9542962,50.5855 L31.0228396,50.4665375 L41.7977564,31.9802204 L41.8600687,31.8736031 C42.3283143,31.1105543 43.1644709,30.6447368 44.0659215,30.6447368 C44.967372,30.6447368 45.8035287,31.1105543 46.2717743,31.8736031 L46.33352,31.9802204 L57.1118357,50.4755158 C57.3572431,50.8748674 57.4869813,51.3334136 57.486842,51.8009372 L57.486842,51.8009372 Z" id="Shape" fill="#FFFFFF" fill-rule="nonzero" transform="translate(44.065789, 42.500000) rotate(90.000000) translate(-44.065789, -42.500000) "></path>
                    </g>
                </g>
            </g>
        </g>
    </g>
</svg>