<?xml version="1.0" encoding="UTF-8"?>
<svg width="112px" height="122px" viewBox="0 0 112 122" version="1.1" xmlns="http://www.w3.org/2000/svg" xmlns:xlink="http://www.w3.org/1999/xlink">
    <!-- Generator: Sketch 48.2 (47327) - http://www.bohemiancoding.com/sketch -->
    <title>flowless-experience</title>
    <desc>Created with Sketch.</desc>
    <defs>
        <ellipse id="path-1" cx="15.8035714" cy="15.8450704" rx="15.8035714" ry="15.8450704"></ellipse>
        <ellipse id="path-3" cx="15.8035714" cy="15.8450704" rx="15.8035714" ry="15.8450704"></ellipse>
    </defs>
    <g id="Page-1" stroke="none" stroke-width="1" fill="none" fill-rule="evenodd">
        <g id="flowless-experience" transform="translate(0.000000, 3.000000)">
            <g id="Group" transform="translate(0.000000, 51.000000)">
                <g id="email" transform="translate(34.767857, 7.394366)" fill="#9B9B9B">
                    <g id="@" transform="translate(20.000000, 0.000000)" font-family="Lato-Bold, Lato" font-size="14" font-weight="bold">
                        <text>
                            <tspan x="0.6085714" y="14.4788732">@</tspan>
                        </text>
                    </g>
                    <rect id="Rectangle" fill-rule="nonzero" x="0" y="10.5633803" width="16.8571429" height="1.05633803" rx="0.528169014"></rect>
                    <rect id="Rectangle" fill-rule="nonzero" x="35.3660714" y="10.5633803" width="16.8571429" height="1.05633803" rx="0.528169014"></rect>
                    <g id=".com" transform="translate(56.000000, 4.000000)" font-family="Lato-Bold, Lato" font-size="10" font-weight="bold">
                        <text>
                            <tspan x="0.0267857" y="10.2253521">.com</tspan>
                        </text>
                    </g>
                </g>
                <g id="email" transform="translate(34.767857, 42.647887)" fill="#9B9B9B">
                    <g id="@" transform="translate(20.000000, 0.000000)" font-family="Lato-Bold, Lato" font-size="14" font-weight="bold">
                        <text>
                            <tspan x="0.6085714" y="14.4788732">@</tspan>
                        </text>
                    </g>
                    <rect id="Rectangle" fill-rule="nonzero" x="0" y="10.5633803" width="16.8571429" height="1.05633803" rx="0.528169014"></rect>
                    <rect id="Rectangle" fill-rule="nonzero" x="35.3660714" y="10.5633803" width="16.8571429" height="1.05633803" rx="0.528169014"></rect>
                    <g id=".com" transform="translate(56.000000, 4.000000)" font-family="Lato-Bold, Lato" font-size="10" font-weight="bold">
                        <text>
                            <tspan x="0.0267857" y="10.2253521">.com</tspan>
                        </text>
                    </g>
                </g>
                <g id="avatar">
                    <g id="Oval-2-Copy-6" fill="#FFFFFF" fill-rule="nonzero">
                        <ellipse id="path-16" cx="15.8035714" cy="15.8450704" rx="15.8035714" ry="15.8450704"></ellipse>
                    </g>
                    <g id="Group-Clipped">
                        <g>
                            <mask id="mask-2" fill="white">
                                <use xlink:href="#path-1"></use>
                            </mask>
                            <g id="path-1"></g>
                            <g id="Group" mask="url(#mask-2)">
                                <g transform="translate(0.000000, 6.000000)" id="Shape">
                                    <g transform="translate(0.943497, 0.621820)">
                                        <g id="Group" fill-rule="nonzero">
                                            <g id="Shape">
                                                <g>
                                                    <g id="Group">
                                                        <path d="M28.0525187,19.437408 C28.0525187,19.437408 27.7765458,17.2593021 23.7879131,15.9160185 L18.5986807,13.9554867 L15.2822894,14.8021337 L11.9776919,13.9531217 L6.78845949,15.9136536 C2.80926173,17.264032 2.53564765,19.437408 2.53564765,19.437408 C0.981236674,24.3588396 0,27.7430629 0,27.7430629 L30.59996,27.7430629 C30.59996,27.7430629 29.6069296,24.3588396 28.0525187,19.437408 Z" id="Shape" fill="#993399"></path>
                                                        <path d="M18.0089952,11.0135064 L18.0089952,14.1210322 C18.0089952,15.8379243 16.6208243,17.2297404 14.9084288,17.2297404 C13.1960333,17.2297404 11.8078625,15.8379243 11.8078625,14.1210322 L11.8078625,11.0135064 L18.0089952,11.0135064 Z" id="Shape" fill="#E49C74"></path>
                                                        <path d="M11.8078625,11.3706117 L17.5490405,11.3706117 L18.0207889,12.4632121 L18.0207889,14.1186672 C18.023813,15.4057896 17.2362837,16.5619857 16.0394456,17.0275384 L11.79371,13.243641 L11.8078625,11.3706117 Z" id="Shape" fill="#DA7A48"></path>
                                                        <path d="M21.1461221,6.45391003 C20.9951626,4.46263401 19.6247335,6.45391003 19.6247335,6.45391003 C19.6247335,6.45391003 19.3204558,5.54813958 19.3204558,2.28925794 C19.3204558,-0.969623712 15.0629264,2.28925794 15.0629264,2.28925794 C15.0629264,2.28925794 10.8053971,-0.969623712 10.8053971,2.28925794 C10.8053971,5.54813958 10.5011194,6.45391003 10.5011194,6.45391003 C10.5011194,6.45391003 9.13304904,4.46263401 8.97973081,6.45391003 C8.82641258,8.44518604 9.73924574,9.71279168 10.5011194,9.35095649 C10.9563566,10.7982972 12.022508,13.1537734 15.0629264,13.3335085 C18.1057036,13.1514085 19.1694963,10.7982972 19.6247335,9.35095649 C20.3866071,9.71279168 21.2994403,8.44518604 21.1461221,6.45391003 Z" id="Shape" fill="#E49C74"></path>
                                                        <path d="M10.3100613,6.21032163 C10.3100613,6.21032163 10.8384195,7.56306496 11.2040245,7.21305445 L11.1403385,4.03931049 C11.1049574,2.50210217 11.9116471,2.01965524 12.9707223,2.45007358 C15.86254,3.63254152 15.7398854,3.36293883 17.041911,2.68656716 C18.6930304,1.8257305 19.0869403,2.63690351 19.1058102,4.05586504 L19.1223214,7.39278957 C19.9101413,7.414074 19.9525986,2.4453437 19.9525986,2.4453437 L18.4571562,0.0804078201 L10.477532,0 L10.31242,2.44770864 L10.1425906,5.81537734 L10.3100613,6.21032163 Z" id="Shape" fill="#2A3793"></path>
                                                        <path d="M10.7936034,14.4805024 L11.8078625,13.3500631 C11.8078625,13.3500631 11.4516924,17.0984864 14.9096082,17.2309229 C13.0226146,18.9076624 9.76047441,19.7755939 9.76047441,19.7755939 C9.76047441,19.7755939 9.10238539,16.3180576 10.7936034,14.4805024 Z" id="Shape" fill="#D4D9DD"></path>
                                                        <path d="M19.0232543,14.2558335 L18.0089952,13.352428 C18.0089952,13.352428 18.3651652,17.1008514 14.9072495,17.2332878 C16.7942431,18.9100273 20.0563833,19.7779588 20.0563833,19.7779588 C20.0563833,19.7779588 20.7144723,16.1028484 19.0232543,14.2558335 Z" id="Shape" fill="#D4D9DD"></path>
                                                    </g>
                                                </g>
                                            </g>
                                        </g>
                                    </g>
                                </g>
                            </g>
                        </g>
                    </g>
                </g>
                <g id="Group-11-Copy" transform="translate(0.000000, 36.309859)">
                    <g id="Oval-2-Copy-4" fill="#FFFFFF" fill-rule="nonzero">
                        <ellipse id="path-12" cx="15.8035714" cy="15.8450704" rx="15.8035714" ry="15.8450704"></ellipse>
                    </g>
                    <g id="Group-3-Clipped">
                        <g>
                            <mask id="mask-4" fill="white">
                                <use xlink:href="#path-3"></use>
                            </mask>
                            <g id="path-3"></g>
                            <g id="Group-3" mask="url(#mask-4)">
                                <g transform="translate(3.000000, 2.000000)" id="Group">
                                    <g transform="translate(0.773987, 0.837923)">
                                        <g fill-rule="nonzero">
                                            <g>
                                                <path d="M10.5365005,1.7003889 C10.5365005,1.7003889 6.98187633,1.99840144e-15 5.63503465,4.18830145 C5.11611141,5.79882279 6.27425373,7.57488964 6.21764392,9.06716418 C6.12565299,11.4486546 5.25527719,11.8908976 4.82598614,12.614568 C3.85654318,14.2700231 4.92977079,15.4997898 4.71984275,16.7673954 C4.50991471,18.0350011 2.27618603,18.1390582 2.59697495,19.1323313 C4.22686567,24.0986967 10.3077026,20.9982657 10.531783,18.3613622 C10.7558635,15.7244587 9.35241205,9.73171116 10.8195496,7.77590919 C12.2866871,5.82010721 10.5365005,1.7003889 10.5365005,1.7003889 Z" id="Shape" fill="#221C59"></path>
                                                <path d="M8.49147122,1.75005255 C8.49147122,1.75005255 12.6310634,-2.102428 16.7211221,2.45953332 C18.6387793,4.58797561 17.3461887,7.80665335 17.4098747,9.45028379 C17.5113006,12.0706328 18.4689499,12.5578095 18.943057,13.3595228 C20.0115672,15.1686988 18.8298374,16.5332668 19.0586354,17.9309439 C19.2874334,19.328621 21.7476013,19.4421379 21.3867138,20.5323733 C19.5917111,25.9882804 12.8952425,22.5875026 12.6593683,19.6833614 C12.4234941,16.7792201 13.9661114,10.1857789 12.3432969,8.0336872 C10.7204824,5.88159554 8.49147122,1.75005255 8.49147122,1.75005255 Z" id="Shape" fill="#221C59"></path>
                                                <rect id="Rectangle-path" fill="#E69464" x="9.67320096" y="12.7115304" width="4.64908049" height="6.62182048"></rect>
                                                <polygon id="Shape" fill="#DA7A48" points="14.3222814 12.7115304 14.3222814 17.9049296 10.2959088 14.4875972 10.2959088 12.7115304"></polygon>
                                                <path d="M19.381783,18.6829935 C16.6432836,16.9849695 14.3222814,15.3720832 14.3222814,15.3720832 C14.3222814,15.3720832 13.5957889,18.6829935 11.9965618,18.6829935 C10.3973348,18.6829935 9.67084222,15.3720832 9.67084222,15.3720832 C9.67084222,15.3720832 7.35219883,16.9849695 4.61134062,18.6829935 C1.87048241,20.3810174 0,28.8332983 0,28.8332983 L24.0025586,28.8332983 C24.0025586,28.8332983 22.1202825,20.3810174 19.381783,18.6829935 Z" id="Shape" fill="#32C5EA"></path>
                                                <path d="M11.9965618,3.10043094 C11.9965618,3.10043094 7.19416311,3.41969729 7.3451226,8.24416649 C7.42185668,10.29156 8.31394248,12.2226734 9.82180171,13.6054761 C11.0390641,14.7721881 12.9564184,14.7721881 14.1736807,13.6054761 C15.6815399,12.2226734 16.5736257,10.29156 16.6503598,8.24416649 C16.7989606,3.41969729 11.9965618,3.10043094 11.9965618,3.10043094 Z" id="Shape" fill="#E69464"></path>
                                                <path d="M12.3833955,1.79735127 C12.3833955,1.79735127 11.4398987,6.60053605 7.12811834,7.94618457 C6.2836887,5.21704856 7.95839552,-0.12061173 12.3833955,1.79735127 Z" id="Shape" fill="#221C59"></path>
                                                <path d="M9.97983742,3.23996216 C9.97983742,3.23996216 13.0037447,8.72897835 17.0772921,7.85868194 C16.5583689,5.62381753 15.5040112,2.25141896 13.0957356,2.51156191 C10.68746,2.77170486 9.97983742,3.23996216 9.97983742,3.23996216 Z" id="Shape" fill="#221C59"></path>
                                                <path d="M8.1258662,8.55397309 C8.1258662,8.55397309 6.77666578,7.76171957 6.83091684,8.74080303 C6.88516791,9.71988648 7.03140991,10.3962581 7.85932836,10.5547089 C8.04802772,9.24453437 8.1258662,8.55397309 8.1258662,8.55397309 Z" id="Shape" fill="#E69464"></path>
                                                <path d="M15.8578225,8.54451335 C15.8578225,8.54451335 17.2070229,7.75225983 17.1527719,8.73134328 C17.0985208,9.71042674 16.9522788,10.3867984 16.1243603,10.5452491 C15.935661,9.23507463 15.8578225,8.54451335 15.8578225,8.54451335 Z" id="Shape" fill="#E69464"></path>
                                                <path d="M8.30748934,6.7353374 L8.923121,21.2300294 C8.923121,21.2300294 7.36635128,20.3384486 6.9913113,17.9427686 C6.64693497,15.7362834 8.2438033,10.7439037 7.68006397,8.41917175 L7.16821695,8.24653143 L6.17282783,6.87723355 L8.30748934,6.7353374 Z" id="Shape" fill="#221C59"></path>
                                                <path d="M15.6714819,6.7353374 L15.0558502,21.2300294 C15.0558502,21.2300294 16.6126199,20.3384486 16.9876599,17.9427686 C17.3320362,15.7362834 15.7351679,10.7439037 16.2989072,8.41917175 L16.8107543,8.24653143 L16.9829424,6.8275699 L15.6714819,6.7353374 Z" id="Shape" fill="#221C59"></path>
                                            </g>
                                        </g>
                                    </g>
                                </g>
                            </g>
                        </g>
                    </g>
                </g>
            </g>
            <circle id="Oval" stroke="#FFFFFF" stroke-width="5" fill="#F8E7FB" fill-rule="nonzero" cx="60" cy="22" r="22"></circle>
            <g id="user" stroke-linecap="round" stroke-linejoin="round" transform="translate(52.000000, 13.000000)" stroke="#BD10E0" stroke-width="2">
                <path d="M16,18 L16,16 C16,13.790861 14.209139,12 12,12 L4,12 C1.790861,12 0,13.790861 0,16 L0,18" id="Shape"></path>
                <circle id="Oval" cx="8" cy="4" r="4"></circle>
            </g>
        </g>
    </g>
</svg>