<?xml version="1.0" encoding="UTF-8"?>
<svg width="122px" height="122px" viewBox="0 0 122 122" version="1.1" xmlns="http://www.w3.org/2000/svg" xmlns:xlink="http://www.w3.org/1999/xlink" style="background: #FFFFFF;">
    <!-- Generator: Sketch 49.3 (51167) - http://www.bohemiancoding.com/sketch -->
    <title>Artboard</title>
    <desc>Created with Sketch.</desc>
    <defs>
        <ellipse id="path-1" cx="8" cy="7.77777778" rx="8" ry="7.77777778"></ellipse>
        <linearGradient x1="50%" y1="100.046232%" x2="50%" y2="0.0462320851%" id="linearGradient-3">
            <stop stop-color="#804A2A" offset="39%"></stop>
            <stop stop-color="#6C3F2A" offset="43%"></stop>
            <stop stop-color="#553229" offset="49%"></stop>
            <stop stop-color="#422829" offset="56%"></stop>
            <stop stop-color="#362029" offset="65%"></stop>
            <stop stop-color="#2E1C29" offset="76%"></stop>
            <stop stop-color="#2C1B29" offset="100%"></stop>
        </linearGradient>
        <ellipse id="path-4" cx="8" cy="7.77777778" rx="8" ry="7.77777778"></ellipse>
        <ellipse id="path-6" cx="8" cy="7.77777778" rx="8" ry="7.77777778"></ellipse>
    </defs>
    <g id="Artboard" stroke="none" stroke-width="1" fill="none" fill-rule="evenodd">
        <g id="ilustration-3">
            <g transform="translate(14.000000, 57.000000)" fill-rule="evenodd" stroke-width="1">
                <g>
                    <text id="———@———.com" font-family="Lato-Bold, Lato" font-size="7" font-weight="bold" letter-spacing="1.44" fill="#9B9B9B">
                        <tspan x="21" y="8">———</tspan>
                        <tspan x="43.002" y="8" font-size="10">@</tspan>
                        <tspan x="52.667" y="8">———.com</tspan>
                    </text>
                    <text id="———@———.com" font-family="Lato-Bold, Lato" font-size="7" font-weight="bold" letter-spacing="1.44" fill="#9B9B9B">
                        <tspan x="21" y="40">———</tspan>
                        <tspan x="43.002" y="40" font-size="10">@</tspan>
                        <tspan x="52.667" y="40">———.com</tspan>
                    </text>
                    <g id="external-guests">
                        <g id="Group-17-Copy">
                            <g id="Oval-2" fill="#FFFFFF" fill-rule="nonzero">
                                <ellipse id="path-7" cx="8" cy="7.77777778" rx="8" ry="7.77777778"></ellipse>
                            </g>
                            <g id="Group-4-Clipped">
                                <g>
                                    <mask id="mask-2" fill="white">
                                        <use xlink:href="#path-1"></use>
                                    </mask>
                                    <g id="path-8"></g>
                                    <g id="Group-4" mask="url(#mask-2)">
                                        <g transform="translate(1.194030, 2.321725)" id="Group">
                                            <g>
                                                <g fill-rule="nonzero">
                                                    <g>
                                                        <path d="M13.6119403,15.0104902 L12.6482631,10.651587 C12.5233173,10.1054261 12.1113682,9.66357074 11.5641263,9.4887449 L8.4321754,8.11883733 L6.7529679,8.18902901 L5.01955355,8.15861263 L1.91049003,9.6010516 C1.36902649,9.78894423 0.969165524,10.239479 0.857672697,10.7872909 L0,15.0104902 L13.6119403,15.0104902 Z" id="Shape" fill="#333DA1"></path>
                                                        <path d="M4.37629903,3.36218133 L4.43050589,0.671500379 C4.44843229,0.343668362 4.72728669,0.0867295649 5.06532821,0.0865697353 L6.83608506,0.0865697353 L6.83608506,5.14738966 L4.37629903,3.36218133 Z M9.29587109,3.36218133 L6.83608506,5.14738966 L6.83608506,0.0865697353 L8.60684189,0.0865697353 C8.94488344,0.0867295649 9.22373784,0.343668362 9.24166424,0.671500379 L9.29587109,3.36218133 Z" id="Combined-Shape" fill="url(#linearGradient-3)"></path>
                                                        <path d="M8.67309471,8.33409181 C8.67309471,8.51191073 8.35508124,8.79150759 7.86962885,8.98219497 C7.52516738,9.11763856 7.15711534,9.18753775 6.78549201,9.18809055 C5.74231145,9.18809055 4.89668473,8.62187769 4.89668473,8.33292196 L5.10869371,6.0680705 L8.46229032,6.0680705 L8.67309471,8.33409181 Z" id="Shape" fill="#804A2A"></path>
                                                        <path d="M8.67309471,8.33409181 C8.67309471,8.51191073 8.35508124,8.79150759 7.86962885,8.98219497 L7.17578128,8.23231387 L7.15409853,7.94686773 L6.7240576,7.74448171 L5.60257827,6.5336753 L5.60257827,6.06573078 L8.46108573,6.06573078 L8.67309471,8.33409181 Z" id="Shape" fill="#502F23"></path>
                                                        <path d="M9.89816934,3.49554554 C9.89816934,3.0732256 9.53679038,3.21243909 9.26575618,3.3785594 L8.95978866,3.39025802 L8.62370624,2.74098501 L8.72971073,1.52081967 L4.93884559,1.52081967 L5.04485008,2.74098501 L4.71238144,3.39259773 L4.40641395,3.38089912 C4.13297056,3.21243909 3.77400079,3.0732256 3.77400079,3.49788526 C3.77400079,4.13779937 3.93180294,4.88651059 4.50880466,4.97775978 C4.84006868,6.02478563 5.75556201,6.96652398 6.83608506,6.96652398 C7.91660812,6.96652398 8.83089684,6.03063494 9.16336547,4.97775978 C9.74036719,4.88417088 9.89816934,4.13545965 9.89816934,3.49554554 Z" id="Shape" fill="#804A2A"></path>
                                                    </g>
                                                </g>
                                            </g>
                                        </g>
                                    </g>
                                </g>
                            </g>
                        </g>
                        <g id="Group-14" transform="translate(0.000000, 1.555556)">
                            <g id="Group-2-Clipped">
                                <g>
                                    <mask id="mask-5" fill="white">
                                        <use xlink:href="#path-4"></use>
                                    </mask>
                                    <g id="path-8"></g>
                                </g>
                            </g>
                        </g>
                        <g id="Group-11" transform="translate(0.000000, 31.444444)">
                            <g id="Oval-2-Copy-4" fill="#FFFFFF" fill-rule="nonzero">
                                <ellipse id="path-10" cx="8" cy="7.77777778" rx="8" ry="7.77777778"></ellipse>
                            </g>
                            <g id="Group-4-Clipped">
                                <g>
                                    <mask id="mask-7" fill="white">
                                        <use xlink:href="#path-6"></use>
                                    </mask>
                                    <g id="path-11"></g>
                                    <g id="Group-4" mask="url(#mask-7)">
                                        <g transform="translate(1.194030, 2.089552)" id="Group">
                                            <g>
                                                <g fill-rule="nonzero">
                                                    <g>
                                                        <path d="M13.6119403,15.0104902 L12.6482631,10.651587 C12.5233173,10.1054261 12.1113682,9.66357074 11.5641263,9.4887449 L8.4321754,8.11883733 L6.7529679,8.18902901 L5.01955355,8.15861263 L1.91049003,9.6010516 C1.36902649,9.78894423 0.969165524,10.239479 0.857672697,10.7872909 L0,15.0104902 L13.6119403,15.0104902 Z" id="Shape" fill="#333DA1"></path>
                                                        <path d="M4.37629903,3.36218133 L4.43050589,0.671500379 C4.44843229,0.343668362 4.72728669,0.0867295649 5.06532821,0.0865697353 L6.83608506,0.0865697353 L6.83608506,5.14738966 L4.37629903,3.36218133 Z M9.29587109,3.36218133 L6.83608506,5.14738966 L6.83608506,0.0865697353 L8.60684189,0.0865697353 C8.94488344,0.0867295649 9.22373784,0.343668362 9.24166424,0.671500379 L9.29587109,3.36218133 Z" id="Combined-Shape" fill="url(#linearGradient-3)"></path>
                                                        <path d="M8.67309471,8.33409181 C8.67309471,8.51191073 8.35508124,8.79150759 7.86962885,8.98219497 C7.52516738,9.11763856 7.15711534,9.18753775 6.78549201,9.18809055 C5.74231145,9.18809055 4.89668473,8.62187769 4.89668473,8.33292196 L5.10869371,6.0680705 L8.46229032,6.0680705 L8.67309471,8.33409181 Z" id="Shape" fill="#E49C74"></path>
                                                        <path d="M8.67309471,8.33409181 C8.67309471,8.51191073 8.35508124,8.79150759 7.86962885,8.98219497 L7.17578128,8.23231387 L7.15409853,7.94686773 L6.7240576,7.74448171 L5.60257827,6.5336753 L5.60257827,6.06573078 L8.46108573,6.06573078 L8.67309471,8.33409181 Z" id="Shape" fill="#DA7A48"></path>
                                                        <path d="M9.89816934,3.49554554 C9.89816934,3.0732256 9.53679038,3.21243909 9.26575618,3.3785594 L8.95978866,3.39025802 L8.62370624,2.74098501 L8.72971073,1.52081967 L4.93884559,1.52081967 L5.04485008,2.74098501 L4.71238144,3.39259773 L4.40641395,3.38089912 C4.13297056,3.21243909 3.77400079,3.0732256 3.77400079,3.49788526 C3.77400079,4.13779937 3.93180294,4.88651059 4.50880466,4.97775978 C4.84006868,6.02478563 5.75556201,6.96652398 6.83608506,6.96652398 C7.91660812,6.96652398 8.83089684,6.03063494 9.16336547,4.97775978 C9.74036719,4.88417088 9.89816934,4.13545965 9.89816934,3.49554554 Z" id="Shape" fill="#E49C74"></path>
                                                    </g>
                                                </g>
                                            </g>
                                        </g>
                                    </g>
                                </g>
                            </g>
                        </g>
                    </g>
                </g>
            </g>
            <path d="M9,39 L41.8270362,39 L79.2070552,39 L113,39 C117.418278,39 121,42.581722 121,47 L121,113 C121,117.418278 117.418278,121 113,121 L9,121 C4.581722,121 1,117.418278 1,113 L1,47 C1,42.581722 4.581722,39 9,39 Z" id="Rectangle" stroke="#F0F5FF" stroke-width="2" stroke-linecap="round" stroke-dasharray="5"></path>
            <circle id="Oval" stroke="#FFFFFF" stroke-width="5" fill="#EDF4FF" fill-rule="evenodd" cx="62" cy="22" r="22"></circle>
            <g id="user" stroke-width="1" fill-rule="evenodd" transform="translate(54.000000, 13.000000)" stroke="#A5C6FF" stroke-linecap="round" stroke-linejoin="round">
                <path d="M16,18 L16,16 C16,13.790861 14.209139,12 12,12 L4,12 C1.790861,12 0,13.790861 0,16 L0,18" id="Shape" stroke-width="2"></path>
                <circle id="Oval" stroke-width="2" cx="8" cy="4" r="4"></circle>
            </g>
        </g>
    </g>
</svg>