<?xml version="1.0" encoding="UTF-8"?>
<svg width="609px" height="441px" viewBox="0 0 609 441" version="1.1" xmlns="http://www.w3.org/2000/svg" xmlns:xlink="http://www.w3.org/1999/xlink">
    <!-- Generator: Sketch 49.1 (51147) - http://www.bohemiancoding.com/sketch -->
    <title>calendarUsers</title>
    <desc>Created with Sketch.</desc>
    <defs>
        <linearGradient x1="50%" y1="100%" x2="50%" y2="0%" id="linearGradient-1">
            <stop stop-color="#EAF5FF" offset="0%"></stop>
            <stop stop-color="#FFFFFF" offset="100%"></stop>
        </linearGradient>
        <linearGradient x1="0%" y1="50%" x2="100%" y2="50%" id="linearGradient-2">
            <stop stop-color="#814A2A" offset="0%"></stop>
            <stop stop-color="#7E482A" offset="29%"></stop>
            <stop stop-color="#75432A" offset="49%"></stop>
            <stop stop-color="#663B2A" offset="66%"></stop>
            <stop stop-color="#502F29" offset="82%"></stop>
            <stop stop-color="#341F29" offset="97%"></stop>
            <stop stop-color="#2C1B29" offset="100%"></stop>
        </linearGradient>
        <linearGradient x1="50%" y1="100%" x2="50%" y2="0.2%" id="linearGradient-3">
            <stop stop-color="#814A2A" offset="0%"></stop>
            <stop stop-color="#673C2A" offset="7%"></stop>
            <stop stop-color="#513029" offset="15%"></stop>
            <stop stop-color="#402629" offset="25%"></stop>
            <stop stop-color="#352029" offset="37%"></stop>
            <stop stop-color="#2E1C29" offset="54%"></stop>
            <stop stop-color="#2C1B29" offset="100%"></stop>
        </linearGradient>
        <linearGradient x1="50%" y1="100%" x2="50%" y2="0%" id="linearGradient-4">
            <stop stop-color="#076FD1" offset="0%"></stop>
            <stop stop-color="#033CA5" offset="100%"></stop>
        </linearGradient>
    </defs>
    <g id="Page-1" stroke="none" stroke-width="1" fill="none" fill-rule="evenodd">
        <g id="calendarUsers">
            <rect id="Rectangle-path" fill="url(#linearGradient-1)" fill-rule="nonzero" x="4.8" y="0.6" width="603.9" height="379" rx="10"></rect>
            <path d="M64,64.7 L64,357.4" id="Shape" stroke="#8FC0E8" stroke-width="2" opacity="0.3"></path>
            <path d="M117.8,160.4 L582.8,160.4 M117.8,134 L582.8,134 M117.8,188.3 L582.8,188.3 M117.8,79.6 L582.8,79.6 M117.8,215.5 L582.8,215.5 M117.8,242.7 L582.8,242.7 M117.8,269.9 L582.8,269.9 M117.8,297 L582.8,297 M117.8,324.3 L582.8,324.3 M117.8,351.5 L582.8,351.5 M117.8,378.6 L582.8,378.6" id="Shape" stroke="#8FC0E8" opacity="0.3"></path>
            <path d="M268,240.9 L387.7,240.9 C388.5,240.9 389.2,241.6 389.2,242.4 L389.2,301 C389.2,301.8 388.5,302.5 387.7,302.5 L269.4,302.5 C268.6,302.5 268,301.8 268,301 L268,240.8 L268,240.9 Z" id="Shape" fill="#5CD065" fill-rule="nonzero" opacity="0.8"></path>
            <g id="Group" opacity="0.5" transform="translate(275.100000, 254.500000)" fill-rule="nonzero">
                <path d="M0.4,0.9 L100.2,0.9 L100.2,6.8 L0.4,6.8 L0.4,0.9 Z M0.4,13.3 L100.2,13.3 L100.2,18.8 L0.4,18.8 L0.4,13.3 Z" id="Shape" fill="#43BB4C"></path>
                <circle id="Oval" fill="#6F737D" cx="96.7" cy="29.9" r="3.6"></circle>
                <circle id="Oval" fill="#43BB4C" cx="85.9" cy="29.9" r="3.6"></circle>
                <circle id="Oval" fill="#43BB4C" cx="75.1" cy="29.9" r="3.6"></circle>
                <circle id="Oval" fill="#43BB4C" cx="64.4" cy="29.9" r="3.6"></circle>
            </g>
            <path d="M404.1,178.7 L524,178.7 C524.8,178.7 525.4,179.3 525.4,180.1 L525.4,238.1 C525.4,238.8 524.8,239.4 524,239.4 L405.5,239.4 C404.7,239.4 404.1,238.8 404.1,238 L404.1,178.7 Z" id="Shape" fill="#FCC85D" fill-rule="nonzero" opacity="0.8"></path>
            <g id="Group" opacity="0.5" transform="translate(413.700000, 189.700000)" fill="#E3AB39" fill-rule="nonzero">
                <circle id="Oval" opacity="0.8" cx="53.3" cy="40.1" r="3.6"></circle>
                <path d="M0.3,0.6 L100.1,0.6 L100.1,6.5 L0.3,6.5 L0.3,0.6 Z M0.3,12.8 L100.1,12.8 L100.1,18.7 L0.3,18.7 L0.3,12.8 Z M0.3,24.9 L50.2,24.9 L50.2,30.8 L0.3,30.8 L0.3,24.9 Z" id="Shape" opacity="0.8"></path>
                <circle id="Oval" opacity="0.8" cx="96.5" cy="40.1" r="3.6"></circle>
                <circle id="Oval" opacity="0.8" cx="85.7" cy="40.1" r="3.6"></circle>
                <circle id="Oval" opacity="0.8" cx="75" cy="40.1" r="3.6"></circle>
                <circle id="Oval" opacity="0.8" cx="64.1" cy="40.1" r="3.6"></circle>
            </g>
            <rect id="Rectangle-path" fill-opacity="0.1" fill="#FFFFFF" fill-rule="nonzero" x="0" y="428" width="141" height="13" rx="6.5"></rect>
            <path d="M103.8,420 L87.1,419.2 C87.7,416.6 88.6,413.7 88.6,413.7 L102.4,413.7 L103.8,420 Z" id="Shape" fill="#E59E74" fill-rule="nonzero"></path>
            <path d="M132.5,437.5 L100.2,437.5 L85.4,433.5 C85.4,429.8 85.8,426.2 86.4,422.6 L104.4,423.1 L104.4,424.1 C120.3,424.1 132.5,437.5 132.5,437.5 Z" id="Shape" fill="#6D5A4C" fill-rule="nonzero"></path>
            <path d="M10.8,430.2 L10.8,433.7 L17,435.9 L21.3,434.2 L17,430.8 C15.2454834,429.363023 12.7975026,429.126122 10.8,430.2 Z" id="Shape" fill="#504944" fill-rule="nonzero"></path>
            <path d="M58.8,439.2 L45.7,439.4 L34.3,439.4 C30.5,438.9 18.9,432.7 13.3,430.8 C12.5,430.5 11.6,430.3 10.8,430.2 C11.1,427.2 12.8,423.2 14.6,419.4 L34.3,423.4 C34.6,425 35.1,426.4 35.8,427.7 C48,427.2 58.8,439.2 58.8,439.2 Z" id="Shape" fill="#6D5A4C" fill-rule="nonzero"></path>
            <path d="M33.9,420.4 L16.9,414.9 C19.2,410.7 21.3,407.6 21.3,407.6 L33.9,413.6 C33.7,415.8 33.7,418.1 33.9,420.4 Z" id="Shape" fill="#E59E74" fill-rule="nonzero"></path>
            <path d="M87,354.2 C86.8,355.2 86.4,356 85.9,356.8 L78.2,366 C63.6,383.7 39.2,417.3 39.2,417.3 L15.9,410 C15.9,410 49.5,360.7 63.9,343.7 C63.9,343.7 57.2,299.5 61.1,283.9 C61.1,283.9 87.9,279.4 89.5,295 L90.5,304 L91,307.7 C93.4829714,323.287186 92.1446444,339.244162 87.1,354.2 L87,354.2 Z" id="Shape" fill="#464EA1" fill-rule="nonzero"></path>
            <path d="M87,354.2 C86.8,355.2 86.4,356 85.9,356.8 L78.2,366 L80.8,351.3 L74.4,302.3 L87.1,302.3 L90.4,304.1 L90.9,307.7 C93.4072262,323.286276 92.0684086,339.2491 87,354.2 Z" id="Shape" fill="#373F99" fill-rule="nonzero"></path>
            <path d="M120,352.5 C120,359.5 105.5,415.2 105.5,415.2 L83.2,415.2 C86,397.2 92,369.3 94.8,354.6 C93.8,353.2 86.9,334.1 77.1,312.9 C69.3,296.1 78.6,292.2 84.6,290.9 C88.2,290.7 91.6,290.4 94.6,289.9 C103.1,288.9 108.8,287.5 108.8,287.5 C115.6,325.3 119.9,345.5 119.9,352.5 L120,352.5 Z" id="Shape" fill="#464EA1" fill-rule="nonzero"></path>
            <path d="M134.3,134 L254.7,134 C255.2,134 255.6,134.3 255.6,134.8 L255.6,187 C255.60181,187.230693 255.503943,187.450937 255.331516,187.604205 C255.159089,187.757474 254.928889,187.828845 254.7,187.8 L135.1,187.8 C134.658172,187.8 134.3,187.441828 134.3,187 L134.3,134 Z" id="Shape" fill="#FC847D" fill-rule="nonzero" opacity="0.8"></path>
            <g id="Group" opacity="0.5" transform="translate(142.500000, 145.700000)" fill="#E85A52" fill-rule="nonzero">
                <polygon id="Shape" points="0.5 0.7 100.3 0.7 100.3 6.6 0.5 6.6"></polygon>
                <circle id="Oval" cx="96.8" cy="27.9" r="3.6"></circle>
                <circle id="Oval" cx="86" cy="27.9" r="3.6"></circle>
                <circle id="Oval" cx="75.3" cy="27.9" r="3.6"></circle>
                <circle id="Oval" cx="64.5" cy="27.9" r="3.6"></circle>
                <circle id="Oval" cx="53.7" cy="27.9" r="3.6"></circle>
                <circle id="Oval" cx="42.9" cy="27.9" r="3.6"></circle>
                <circle id="Oval" cx="32.2" cy="27.9" r="3.6"></circle>
            </g>
            <path d="M136.5,152.4 L143.7,134 C144.205581,132.626518 145.310174,131.558745 146.7,131.1 L154.5,128.3 C155.8,127.9 157.2,128.1 158.4,128.8 L162.7,131.4 C163.047593,131.998685 163.060866,132.73455 162.735089,133.345381 C162.409313,133.956212 161.79082,134.355135 161.1,134.4 L156.8,134.8 C155.387119,135.006421 154.379232,136.277236 154.5,137.7 C154.497934,138.452123 154.809684,139.17102 155.36016,139.683532 C155.910636,140.196044 156.649941,140.455716 157.4,140.4 C158.192769,139.805932 159.200157,139.575647 160.172301,139.766264 C161.144446,139.95688 161.990276,140.550541 162.5,141.4 L157.1,145.1 L145.2,151.1 L136.5,152.4 Z" id="Shape" fill="#E59E74" fill-rule="nonzero"></path>
            <path d="M135.7,152.3 L137,149 C141,148.1 144.2,149 145.9,151 C145.8,152.3 145.6,153.7 145.3,155 L135.7,152.3 Z" id="Shape" fill="#FFFFFF" fill-rule="nonzero"></path>
            <path d="M88.6,214.4 C88.6,214.4 119.1,214.6 140.6,187.8 C143.3,169.4 145.5,156.3 145.9,153.5 C142.5,150.8 136.9,149.8 135.3,151.1 C134.4,153.1 127.3,166.8 122.7,173.9 C115.5,182.9 92.5,188.1 87.1,195.7 C75.6,211.9 88.6,214.4 88.6,214.4 Z" id="Shape" fill="#52BF9D" fill-rule="nonzero"></path>
            <path d="M91.6,193.5 C91.6,193.5 82.3,196.7 80.8,195 C79.3,193.2 81.5,190.2 79.8,186.6 C78.3,183 71.8,168 82.8,163.4 C86.8,153.9 91.4,154.6 97.2,156.9 C102.9,159.2 102.6,153.7 106.8,155.4 C111,157.2 112.8,159 112.8,164 C113,169 115.2,176.6 103.8,174.2 C92.4,171.9 96.2,183.8 91.6,193.5 Z" id="Shape" fill="#2E3892" fill-rule="nonzero"></path>
            <path d="M98.9,198.6 L98.9,208.4 C97.5,213.4 87.5,217.7 83.3,201.2 C85.5,192.5 91.7,194 91.5,188.7 C91.5214863,188.547718 91.4537644,188.396603 91.3258032,188.311295 C91.1978419,188.225988 91.032304,188.221597 90.9,188.3 C90.2921182,188.519156 89.6401908,188.58778 89,188.5 C86.5,188.5 86.7,172.1 94.3,178.8 C98.2,176.1 87.3,169.1 93.3,169.1 C99.5,169.2 103,167.8 107.4,172.2 C114.4,180 112.9,206.1 98.9,198.6 Z" id="Shape" fill="#E59E74" fill-rule="nonzero"></path>
            <polygon id="Shape" fill="#D97543" fill-rule="nonzero" points="98.9 198.6 95.6 195.5 96.3 202.7 98.9 205.7"></polygon>
            <path d="M104,284.6 C105.3,288 102,300.6 96.3,304.6 C100.3,300.9 104.6,287.3 104,284.6 Z" id="Shape" fill="#373F99" fill-rule="nonzero"></path>
            <path d="M111.4,288.5 C103,298.8 63.4,297.2 60.4,282.1 C70.7,248.7 58.7,232.8 74.1,209.2 C83.1,195.5 88.1,198.7 91.3,199.1 C111.3,207.3 112.2,220.5 110.3,236.8 C109.3,246.3 107.3,256.8 107.6,268 C107.772534,274.991506 109.055201,281.911158 111.4,288.5 Z" id="Shape" fill="#52BF9D" fill-rule="nonzero"></path>
            <path d="M151,197.6 L156.5,188.4 C156.5,188.4 156.7,182.4 161.3,179.9 C165.8,177.3 168.5,179.5 168.5,179.5 L168.4,179.7 C167.9,180.9 166.9,181.7 165.7,182.1 C164.335621,182.400279 163.452419,183.725081 163.7,185.1 C164.2,188.5 171,187.6 171,187.6 L177.9,183.6 C179.5,182.7 181.6,183.1 182.8,184.6 L178.8,187.9 L181.5,187.9 C183.1,187.9 184.3,189.1 184.4,190.7 L165.7,194.8 L160.7,202.7 L150.9,197.7 L151,197.6 Z" id="Shape" fill="#E59E74" fill-rule="nonzero"></path>
            <path d="M153.3,193.3 C157.4,192.1 163.2,193.5 163.9,198 L161.7,202.2 L151.4,196.2 L153.3,193.3 Z" id="Shape" fill="#FFFFFF" fill-rule="nonzero"></path>
            <path d="M107.6,268 C102.991313,252.806891 97.2071814,237.995503 90.3,223.7 L109.4,235.7 L110.4,236.7 C109.4,246.2 107.4,256.7 107.6,268 Z" id="Shape" fill="#3AB78C" fill-rule="nonzero"></path>
            <path d="M82.7,207 C90,189.4 107.9,220 132.7,222.2 C146.1,202.5 145.8,203.7 150.9,196.3 C150.9,196.3 161.9,192.1 162.7,202.5 C161.3,208.8 152.5,229.6 146.7,243.9 C112,258.2 77,221.4 82.7,206.9 L82.7,207 Z" id="Shape" fill="#52BF9D" fill-rule="nonzero"></path>
            <path d="M82,200 L84.6,196.7 C84.6,196.7 100.4,199.3 103,206.5 C104,209.5 103.6,209.8 103.6,209.8 C103.6,209.8 92.5,202.8 82,200 Z M34.3,423.5 L14.6,419.4 L17,414.9 L34,420.4 C34,421.4 34.1,422.5 34.3,423.5 Z" id="Shape" fill="#FFFFFF" fill-rule="nonzero"></path>
            <path d="M35.8,427.7 L33.4,427.7 L31.9,422.5 C32.0163118,421.997767 32.3674911,421.582345 32.8433607,421.384066 C33.3192304,421.185787 33.8614847,421.228945 34.3,421.5 C36.3,422.3 36.3,423.5 36.3,423.5 L36.6,427.7 L35.8,427.7 Z" id="Shape" fill="#504944" fill-rule="nonzero"></path>
            <path d="M104.4,423.2 L86.4,422.7 C86.7,420.9 86.7,420.6 87.1,419.2 L103.8,420.1 L104.4,423.1 L104.4,423.2 Z" id="Shape" fill="#FFFFFF" fill-rule="nonzero"></path>
            <path d="M85.4,433.5 L85.2,437.5 L92,437.5 L94.4,435.9 L85.4,433.5 Z M106.3,424.3 L104,424.3 L102.5,420 C102.5,420 103.1,419 105,419.6 C107,420.2 106.9,420.8 106.9,420.8 L107.2,424.3 L106.4,424.3 L106.3,424.3 Z" id="Shape" fill="#504944" fill-rule="nonzero"></path>
            <path d="M155.6,201.5 C158.6,201.8 161.7,206.8 161.7,206.8 L160.2,211.5 C159.060198,208.22823 156.642788,205.558255 153.5,204.1 L155.5,201.5 L155.6,201.5 Z" id="Shape" fill="#369C78" fill-rule="nonzero"></path>
            <rect id="Rectangle-path" fill-opacity="0.1" fill="#FFFFFF" fill-rule="nonzero" x="328" y="428" width="141" height="13" rx="6.5"></rect>
            <polygon id="Shape" fill="#369C78" fill-rule="nonzero" points="145.6 162.4 143.1 163.4 143.1 160.1 145.1 159.1 145.2 157.7 146.2 158.4"></polygon>
            <path d="M432,386 L379.9,365 C379.9,365 357.9,354.8 360.7,373.7 C363.4,392.6 370.7,427.5 370.7,427.5 L390.9,427.5 L386.3,395.2 C386.3,395.2 400.3,409.9 408.6,408 C416.9,406 432.2,385.8 432.2,385.8 L432,386 Z" id="Shape" fill="#112D4B" fill-rule="nonzero"></path>
            <path d="M368.9,418 L369.7,422.3 C369.7,422.3 345.5,426.8 343.6,432.5 C358.3,432.2 382.6,432.5 382.6,432.5 C383.2,430.9 383.2,429.2 382.6,427.5 C381.8,425.3 381,417.3 381,417.3 L368.9,418 Z M468.4,440.5 C468.4,440.5 463.4,440.7 455.6,436.7 L454.4,436.1 C445.9,431.5 428.8,432.7 428.8,432.7 L434,422.3 L440,421.3 C440,421.3 441.3,417.8 443.3,418 C452.036757,425.076604 460.413901,432.585995 468.4,440.5 Z" id="Shape" fill="#2C1C2A" fill-rule="nonzero"></path>
            <path d="M455.6,436.7 L454.4,436.1 C445.9,431.5 428.8,432.7 428.8,432.7 L434,422.3 L440,421.3 C440,421.3 441.5,421.7 444.4,424.5 C447.7,427.8 456.2,434.4 455.6,436.7 Z" id="Shape" fill="#E49C74" fill-rule="nonzero"></path>
            <polygon id="Shape" fill="#1F417C" fill-rule="nonzero" points="440.4 409.6 429.2 433.7 360.6 433.7 383.7 409.6"></polygon>
            <path d="M436.6,409.6 C419.6,423.9 383,421.3 383,421.3 L396.8,409.6 L436.6,409.6 Z" id="Shape" fill="#112D4B" fill-rule="nonzero"></path>
            <path d="M437.6,387.8 C437.6,387.8 441.1,408.4 411.7,416.5 C394.308614,421.21711 377.211991,426.960507 360.5,433.7 C360.5,433.7 347.7,423.6 364.2,410.7 C376.786921,401.300147 389.872672,392.587441 403.4,384.6 L436.7,382.5 L437.7,387.8 L437.6,387.8 Z" id="Shape" fill="#1F417C" fill-rule="nonzero"></path>
            <path d="M414.5,320.1 L396.8,334.1 L374.6,315.1 C368.295148,309.741183 363.704835,302.647063 361.4,294.7 L352.4,263.7 L369.2,257.1 L381.5,286.8 L382.8,289.8 L402.6,308.8 L414.5,320.1 Z" id="Shape" fill="#EB5D24" fill-rule="nonzero"></path>
            <path d="M396.8,280.8 C396.8,280.8 390.8,275.2 385.1,278.4 C379.4,281.6 379.6,290.7 385.1,295.6 C390.6,300.5 387.6,308.1 383.5,314.6 C379.3,321 381.1,329.6 386.7,331.3 C392.2,332.9 405.7,327.5 403.9,315 C402,302.5 396.8,280.8 396.8,280.8 Z" id="Shape" fill="#112D4B" fill-rule="nonzero"></path>
            <path d="M401.5,282.2 C401.5,282.2 392,278.2 386.7,282.2 C381.4,286.3 382.8,291.6 379.9,292.2 C377,292.9 375,312.7 388.6,309.7 L392.2,318.2 L403.2,312.9 L401.2,305.7 C401.2,305.7 417.2,294.5 401.5,282.2 Z" id="Shape" fill="#E49C74" fill-rule="nonzero"></path>
            <polygon id="Shape" fill="#ECAE22" fill-rule="nonzero" points="390 318.8 404.1 311.3 406.5 316.3 390 328.9"></polygon>
            <path d="M413.3,313.6 C413.3,313.6 385.8,320 386.7,327.8 C387.7,335.6 391.4,392 391.4,392 C406.4,408 442.2,385.2 442.2,385.2 C442.2,385.2 442.2,376 430.2,360.4 C417.3,343.4 413.3,313.6 413.3,313.6 Z" id="Shape" fill="#EB5D24" fill-rule="nonzero"></path>
            <polygon id="Shape" fill="#DE2726" fill-rule="nonzero" points="387.6 339.7 399 341.7 388.8 355.7"></polygon>
            <path d="M400.5,343.2 C400.5,343.2 376.8,351 361.5,359.5 C346,368 342,348 342,348 L338,318.2 L355.8,312.2 L360.6,333.1 L396.8,318.9 L400.5,343.2 Z" id="Shape" fill="#EB5D24" fill-rule="nonzero"></path>
            <path d="M393.1,278 C393.1,278 419.3,272 415.4,299.3 C434,314.5 443,329.9 424.4,342.5 C405.8,355.1 410.5,330.9 402.8,325.3 C395.1,319.6 395.7,309.5 398.5,307.6 C401.2,305.6 406,297 398.9,297.7 C391.8,298.4 387.1,284.6 387.7,281.6 C388.4,278.6 393.1,278 393.1,278 Z" id="Shape" fill="#112D4B" fill-rule="nonzero"></path>
            <path d="M348.8,311.4 L341.5,314.4 C341.5,314.4 339.9,310.4 338.9,308.4 C337.9,306.6 332.4,304.9 332.4,304.9 C330.141825,303.895602 327.799402,303.092486 325.4,302.5 C326.4,300.9 329.6,301.3 329.6,301.3 C328.244856,300.628269 326.840852,300.059982 325.4,299.6 C328.8,298.3 333.2,300.2 338.2,301.6 L342.9,302.8 L343.3,302.9 C345.3,303.3 346.1,301.5 345.5,298.9 C345.1,297.7 345.4,296.3 346.4,295.3 L348.1,299.6 C349.1,302 349.3,304.8 348.5,306.3 C347.6,307.8 348.8,311.4 348.8,311.4 Z" id="Shape" fill="#E49C74" fill-rule="nonzero"></path>
            <path d="M339.4,317.7 L338.7,314.2 L353,309 L354,312.8 L339.4,317.7 Z M355,262.8 L367,258 L365.3,253.8 L353.3,258.8 L355,262.8 Z" id="Shape" fill="#ECAE22" fill-rule="nonzero"></path>
            <rect id="Rectangle-path" fill-opacity="0.1" fill="#FFFFFF" fill-rule="nonzero" x="480" y="428" width="141" height="13" rx="6.5"></rect>
            <path d="M363.7,254.5 L361.7,247 C360.66683,243.807442 358.761819,240.967244 356.2,238.8 C354.1,237.3 353.6,238.2 353.6,238.2 C353.6,238.2 351.3,236.6 350.6,238.2 C349.1,237.2 348,237.7 347.6,238.4 C347.3,239.1 345.6,238 344.8,240.1 L344.5,240.9 L347.2,240.9 C347.2,240.9 353.2,245.9 351,246.6 C348.7,247.3 346.6,244.8 343.8,245.4 C346.1,248.9 354.6,253.4 355.4,255.4 L356.4,257.9 L363.7,254.5 Z" id="Shape" fill="#E49C74" fill-rule="nonzero"></path>
            <path d="M540.5,207.4 C540.5,207.4 521.4,185.5 511.5,183.1 C501.5,180.6 477.8,179.6 477.8,179.6 L475.1,172.3 L507.3,165.8 C524.5,163.8 555.7,194.8 555.7,194.8 L540.5,207.4 Z" id="Shape" fill="url(#linearGradient-2)" fill-rule="nonzero"></path>
            <path d="M521.5,436 L521.2,434.2 L508.6,436 L490.2,436 C491.7,420.6 507.4,427 513.2,420.3 L524.5,422 L532,420.3 L533.3,436 L521.5,436 Z" id="Shape" fill="#363F99" fill-rule="nonzero"></path>
            <path d="M598.8,399.8 L577.8,410.8 C575.8,405.6 561.1,374 552.6,355.6 L546.4,342.5 L542.6,300.3 L561.3,279 L570.8,268.2 L575.2,342.3 L598.8,399.8 Z" id="Shape" fill="#B7CBE9" fill-rule="nonzero"></path>
            <polygon id="Shape" fill="#8DAFDC" fill-rule="nonzero" points="565.7 278.1 552.6 355.6 546.4 342.6 542.6 300.3 561.3 279"></polygon>
            <path d="M535.1,273 L509.9,335 L509.9,409.4 L533.9,407.1 C535.4,396.5 536.6,337.1 536.6,337.1 L565.5,287.8 C574.2,271.3 567,263.1 567,263.1 L535.1,272.9 L535.1,273 Z" id="Shape" fill="#B7CBE9" fill-rule="nonzero"></path>
            <path d="M528.6,206.9 L554.6,187.6 C554.6,187.6 569.3,204.3 564.9,228.2 C564.9,240.1 573.4,262 570.9,268.2 C568.2,274.4 542,283.2 532.7,274.6 L528.7,206.9 L528.6,206.9 Z" id="Shape" fill="#464EA1" fill-rule="nonzero"></path>
            <polygon id="Shape" fill="#2E3892" fill-rule="nonzero" points="532.4 268.2 543.4 236.4 530.7 240.9"></polygon>
            <path d="M511.4,249.3 L478.6,238 L475.1,244.5 L504.1,266.7 C519.3,275.5 526.6,264 526.6,264 L540.5,240 L519.3,234.4" id="Shape" fill="#814A2A" fill-rule="nonzero"></path>
            <path d="M514.5,239.3 L531.8,259.1 C531.8,259.1 548.9,237.3 543.5,221.3 C538.1,205.3 530.7,204.8 528.5,206.9 C526.5,208.9 514.5,239.3 514.5,239.3 Z M534,202.9 L533.3,196.6 L550,183 L553.6,188.2 L534,202.9 Z" id="Shape" fill="#363F99" fill-rule="nonzero"></path>
            <path d="M535.5,194.8 L534,187.6 C521.5,189.8 514.5,178.4 521.5,154 C525.8,139.3 540.2,143.4 547.9,151.2 C555.6,159.1 547.1,177.4 547.1,177.4 L549.4,183.4 L535.5,194.8 Z" id="Shape" fill="#814A2A" fill-rule="nonzero"></path>
            <path d="M521.5,154 C521.5,154 534.5,151.2 536.6,154.5 C538.7,157.8 530.6,162.2 534,165.7 C537,163.1 541.8,163.7 539.7,170.8 L550,170.8 C550,170.8 559.8,153.4 545.7,147.8 C530.5,141.8 526.9,142.7 523.9,148.2 L521.5,154 Z" id="Shape" fill="url(#linearGradient-3)" fill-rule="nonzero"></path>
            <path d="M478.6,238 C478.6,238 475.1,232.3 471.2,230.8 C468.7,229.8 466.1,229.1 463.4,228.8 C463.4,228.8 463.1,231.7 465.1,232.5 C467.1,233.5 468.9,235.6 467.2,237.5 C465.5,239.5 461.6,239.5 461.6,239.5 L448.1,239.5 C448.1,239.5 448.3,243 457.1,243 C454.711978,243.45778 452.369412,244.127085 450.1,245 C450.1,245 451.3,247.8 456,247.5 C459,247.3 469.4,245.4 469.4,245.4 L475.1,244.6 L478.6,237.9 L478.6,238 Z M468.4,178.7 C472.1,178.7 471.5,181.4 469.4,182.5 C467.3,183.5 465.9,184.6 467.4,187.2 C470.5,185.9 476.4,184.9 477.4,181.4 C477.7,180.5 477.8,179.6 477.8,178.7 L475.2,172.4 L452.3,168.9 C452.8,170.9 454.2,172.7 456.1,173.5 L459.2,174.7 L450.1,174.8 C450.1,174.8 449.5,178.7 454.5,178.7 L468.5,178.7 L468.4,178.7 Z M531.8,417.7 L514.2,417.7 L515.5,409 L531.3,407.4 L531.8,417.7 Z" id="Shape" fill="#814A2A" fill-rule="nonzero"></path>
            <polygon id="Shape" fill="#C1C7CD" fill-rule="nonzero" points="514.2 417.7 513.2 420.3 524.5 422 532 420.3 531.8 417.7"></polygon>
            <path d="M597.7,431 L596.7,429.6 L585.7,436.1 L562.1,436.7 C563.4,422.5 581.6,426.9 584.4,418.4 L595.4,415.6 L601.7,411.2 L608.7,426.5 L597.7,431.1 L597.7,431 Z" id="Shape" fill="#363F99" fill-rule="nonzero"></path>
            <polygon id="Shape" fill="#814A2A" fill-rule="nonzero" points="600.5 408.8 584.3 415.6 581.7 408.6 595.7 401"></polygon>
            <polygon id="Shape" fill="#C1C7CD" fill-rule="nonzero" points="584.3 415.6 584.4 418.4 595.4 415.6 601.7 411.2 600.5 408.8"></polygon>
            <path d="M522.4,397.7 L520.7,397.7 L520.7,336.1 L543.8,289.8 L545.4,290.6 L522.4,336.6 L522.4,397.7 Z M578.2,388 L553.2,334.3 L553.2,334.1 L550.2,313.5 L552,313.2 L555,333.8 L579.7,387.4 L578.2,388 Z" id="Shape" fill="#8DAFDC" fill-rule="nonzero"></path>
            <polygon id="Shape" fill="#503024" fill-rule="nonzero" points="534 187.6 537.6 186.6 535.5 194.6"></polygon>
            <polygon id="Shape" fill="#D97543" fill-rule="nonzero" points="388.6 309.7 391.6 308.7 391.9 317.3"></polygon>
            <g id="Group" opacity="0.5" transform="translate(17.900000, 55.000000)" fill="#9CC4E9" fill-rule="nonzero">
                <circle id="Oval" cx="1.6" cy="5.4" r="1.1"></circle>
                <path d="M4.7,7.7 L3,7.7 C2.44771526,7.70000002 2.00000003,8.14771526 2.00000003,8.7 C2.00000003,9.25228474 2.44771526,9.69999998 3,9.7 L4.6,9.7 C5.15228475,9.7 5.6,9.25228475 5.6,8.7 C5.6,8.14771525 5.15228475,7.7 4.6,7.7 L4.7,7.7 Z M20.2,6 L20.2,7.4 L20,7.6 L20,8 L20.2,8 L20.5,8.1 L21,8.4 L21.2,8.6 L21.4,8.8 L21.6,8.8 L21.7,8.7 L22.4,8.4 L23,8 C24.5,7.1 26,6 27,4.5 C25.3511469,3.02115862 23.2148777,2.20225545 21,2.2 L19.3,2.2 C19.9877236,3.23496649 20.3371415,4.45792918 20.3,5.7 L20.3,6 L20.2,6 Z M31.3,9.7 L31.2,9.3 L31.1,8.8 C30.7430782,7.26068355 30.1707718,5.77941986 29.4,4.4 C29.4,4.2 29.2,4.1 29,4.1 L28.8,4.4 C28.5,5 28,5.5 27.5,6 C26.3589934,7.27662862 24.9620428,8.29878756 23.4,9 L22.8,9.3 L22.1,9.5 L21.7,9.7 L21.7,11.2 L21.3,11.9 L21.3,12.1 L22,12.2 L22.8,12.3 L24.5,12.3 C25.3,12.3 26.2,12.3 27,12.1 L27.7,11.9 C28.7540623,11.6512599 29.7651686,11.2468174 30.7,10.7 C30.9,10.7 31,10.5 31.1,10.4 L31.1,10 L31.3,9.6 L31.3,9.7 Z" id="Shape"></path>
                <path d="M23.3,16.3 L23.5,16 L23.2,15.4 L22.8,14.8 L22.5,14.5 L21.6,13.3 L20.9,12.3 C20.3457225,12.7811809 19.6017285,12.9822663 18.8805203,12.8458215 C18.159312,12.7093767 17.5401936,12.2504051 17.2,11.6 L17.3,11.6 C17.9420505,12.227209 18.923315,12.349867 19.7,11.9 L20.1,11.7 C20.4,11.5 20.6,11.1 20.7,10.7 L20.9,10.1 C20.9112744,9.10271325 20.1860761,8.24953884 19.2,8.1 L19.2,5.6 L19.1,5.4 L19,5 L18.7,4.6 L18.7,4.5 L18.5,4.1 L18.4,3.9 L18.1,3.5 L17.7,3 L17.3,2.5 C16.1958502,1.52619107 14.7722064,0.992324651 13.3,1 L2.4,1 C1.90869497,0.853555756 1.37861973,1.03540055 1.08067547,1.45260047 C0.782731205,1.86980039 0.782731205,2.43019961 1.08067547,2.84739953 C1.37861973,3.26459945 1.90869497,3.44644424 2.4,3.3 L11.2,3.3 C11.5313708,3.3 11.8,3.56862915 11.8,3.9 C11.8,4.23137085 11.5313708,4.5 11.2,4.5 L5.9,4.5 C5.29248678,4.5 4.8,4.99248678 4.8,5.6 C4.8,6.20751322 5.29248678,6.7 5.9,6.7 L12.9,6.7 C13.2313708,6.7 13.5,6.96862915 13.5,7.3 C13.5,7.63137085 13.2313708,7.9 12.9,7.9 L8.7,7.9 C8.12010101,7.9 7.65,8.37010101 7.65,8.95 C7.65,9.52989899 8.12010101,10 8.7,10 L14.7,10 C15.0313708,10 15.3,10.2686292 15.3,10.6 C15.3,10.9313708 15.0313708,11.2 14.7,11.2 L10,11.2 C10.3,13 10.2,15 9.6,16.7 L9,18.2 L8.4,19.2 C8.2,19.5 8.1,19.8 8.2,20.2 L8.6,20.6 C8.9,20.7 9.6,20.6 9.9,20.4 C12.0581504,19.6915948 13.8069568,18.0885222 14.7,16 L15.3,14.4 C15.3,14.1 15.5,13.8 15.7,13.5 C15.7,13.5 16,13.2 16.2,13.4 C16.3,13.6 16.2,13.7 16.2,13.8 L15.8,15.7 C15.7,19.7 18.1,23.4 23.2,24.1 L23.4,23.9 L23.4,23.8 C21.5524058,21.7173795 21.5524058,18.5826205 23.4,16.5 L23.4,16.3 L23.3,16.3 Z" id="Shape"></path>
            </g>
            <rect id="Rectangle-path" fill-opacity="0.7" fill="#FF001F" fill-rule="nonzero" x="81.7" y="100.6" width="36.2" height="10.3" rx="5.1"></rect>
            <path d="M118,105.7 L582.5,105.7" id="Shape" stroke="#FD4B62"></path>
            <path d="M141,79.6 L249.1,79.6 C252.745079,79.6 255.7,82.5549207 255.7,86.2 L255.7,105.7 L134.4,105.7 L134.4,86.2 C134.4,82.5549207 137.354921,79.6 141,79.6 Z" id="Shape" fill="#B7CBE9" fill-rule="nonzero" opacity="0.5"></path>
            <circle id="Oval" fill="#9CC4E9" fill-rule="nonzero" opacity="0.3" cx="33.7" cy="119.5" r="10.4"></circle>
            <circle id="Oval" fill="#9CC4E9" fill-rule="nonzero" opacity="0.3" cx="33.7" cy="188.3" r="10.4"></circle>
            <circle id="Oval" fill="#9CC4E9" fill-rule="nonzero" opacity="0.3" cx="33.7" cy="257.1" r="10.4"></circle>
            <g id="Group" transform="translate(5.000000, 0.000000)" fill-rule="nonzero">
                <path d="M9.96498316,0 L593.83165,0 C599.447475,3.38176876e-16 604,4.4771525 604,10 L604,29 L0,29 L0,10 C2.2578273e-16,4.4771525 4.55252544,1.01453063e-15 10.1683502,0 L9.96498316,0 Z" id="Shape" fill-opacity="0.1" fill="url(#linearGradient-4)"></path>
                <circle id="Oval" fill="#FE665D" cx="19.5" cy="15.5" r="4.5"></circle>
                <circle id="Oval" fill="#FFBC34" cx="39.5" cy="15.5" r="4.5"></circle>
                <circle id="Oval" fill="#38C73E" cx="58.5" cy="15.5" r="4.5"></circle>
            </g>
        </g>
    </g>
</svg>