<?xml version="1.0" encoding="UTF-8"?>
<svg width="228px" height="421px" viewBox="0 0 228 421" version="1.1" xmlns="http://www.w3.org/2000/svg" xmlns:xlink="http://www.w3.org/1999/xlink">
    <!-- Generator: Sketch 49.3 (51167) - http://www.bohemiancoding.com/sketch -->
    <title>humans</title>
    <desc>Created with Sketch.</desc>
    <defs>
        <linearGradient x1="0.000139051111%" y1="50.0070566%" x2="99.9988237%" y2="50.0070566%" id="linearGradient-1">
            <stop stop-color="#EBEBEA" offset="0%"></stop>
            <stop stop-color="#F1F1F2" offset="29%"></stop>
            <stop stop-color="#E3E3E1" offset="100%"></stop>
        </linearGradient>
        <linearGradient x1="120461%" y1="67275%" x2="132032%" y2="67275%" id="linearGradient-2">
            <stop stop-color="#EBEBEA" offset="0%"></stop>
            <stop stop-color="#F1F1F2" offset="29%"></stop>
            <stop stop-color="#E3E3E1" offset="100%"></stop>
        </linearGradient>
        <linearGradient x1="117683%" y1="70974%" x2="128735%" y2="70974%" id="linearGradient-3">
            <stop stop-color="#EBEBEA" offset="0%"></stop>
            <stop stop-color="#F1F1F2" offset="29%"></stop>
            <stop stop-color="#E3E3E1" offset="100%"></stop>
        </linearGradient>
    </defs>
    <g id="Final" stroke="none" stroke-width="1" fill="none" fill-rule="evenodd">
        <g id="Desktop-HD" transform="translate(-75.000000, -3881.000000)" fill-rule="nonzero">
            <g id="humans" transform="translate(75.000000, 3881.000000)">
                <g id="Layer_4">
                    <path d="M82.65285,251.89155 C78.4548,266.42655 82.3194,277.4475 83.50785,289.99035 C84.987,306.0729 71.2728,376.84125 71.2728,376.84125 L56.31885,376.84125 L56.31885,212.16825 L51.8472,212.16825 L51.8472,376.84125 L36.92745,376.84125 C36.92745,376.84125 31.86585,350.721 28.215,326.61 C25.86375,311.0319 24.10245,296.2917 24.68385,289.9818 C26.163,273.89925 32.0967,260.32185 19.7847,238.6305 C7.4727,216.93915 19.7847,183.0555 19.7847,183.0555 L88.36425,183.0555 C88.36425,183.0555 100.67625,216.90495 88.36425,238.6305 C85.9444354,242.810292 84.0273269,247.261542 82.65285,251.89155 Z" id="Shape" fill="#2A3793"></path>
                    <path d="M88.3728,238.63905 C88.0992,239.11785 87.837,239.59095 87.5862,240.05835 C83.6860119,247.398552 75.7165303,251.632022 67.45095,250.7544 C63.5094,250.31835 59.7132,249.8994 56.33595,249.6771 L56.33595,212.16825 L51.8643,212.16825 L51.8643,249.58305 C48.07665,249.6942 45.144,250.43805 43.6221,252.225 C35.3799,262.0575 51.8643,288.135 45.657,309.0825 C43.37415,316.7775 36.7137,322.87365 28.24065,326.61855 C25.8894,311.04045 24.1281,296.30025 24.7095,289.99035 C26.18865,273.9078 32.12235,260.3304 19.81035,238.63905 C7.49835,216.9477 19.81035,183.06405 19.81035,183.06405 L88.3899,183.06405 C88.3899,183.06405 100.6848,216.9477 88.3728,238.63905 Z" id="Shape" fill="#192893"></path>
                    <rect id="Rectangle-path" fill="#192893" x="32.48145" y="22.99095" width="42.00615" height="47.2986"></rect>
                    <polygon id="Shape" fill="#E1A125" points="74.46195 186.0309 35.1063 186.0309 40.1337 64.3473 42.4422 63.8172 61.2693 63.8172 62.5005 64.09935"></polygon>
                    <path d="M61.2864,72.05085 C61.2864,72.05085 60.4314,77.7024 54.79695,79.0362 C53.9562456,79.2321117 53.0951378,79.3268336 52.23195,79.31835 C44.33175,79.31835 42.39945,71.43525 42.39945,71.43525 L42.57045,57.44745 L42.57045,54.02745 L60.95295,50.3253 L61.03845,57.4731 L61.2864,72.05085 Z" id="Shape" fill="#E69464"></path>
                    <path d="M61.2864,72.05085 C61.2864,72.05085 60.4314,77.7024 54.79695,79.0362 C55.1768756,75.699124 53.8994436,72.3873815 51.37695,70.16985 C45.44325,65.03985 42.6303,57.44745 42.6303,57.44745 L61.1496,57.44745 L61.2864,72.05085 Z" id="Shape" fill="#D87543"></path>
                    <path d="M71.99955,26.9838 C71.99955,36.3204 71.0676,43.32285 69.5457,48.5469 C65.8863,61.20945 58.824,63.4923 53.4546,63.4923 C45.2808,63.4923 38.39805,55.4382 36.0297,41.724 C35.4308213,38.1130868 35.1447595,34.4572166 35.1747,30.7971 C35.0888384,26.6078197 35.7340496,22.435647 37.08135,18.468 C37.7611028,16.5313139 38.7265189,14.7071096 39.9456,13.05585 C49.87215,-0.2565 71.99955,9.234 71.99955,26.9838 Z" id="Shape" fill="#E69464"></path>
                    <path d="M71.99955,26.9838 C71.99955,36.3204 71.0676,43.32285 69.5457,48.5469 C68.8275,43.16895 69.99885,33.9606 64.5525,33.55875 C44.1009,32.0454 43.1775,18.9297 43.1775,18.9297 L39.9114,13.05585 C49.87215,-0.2565 71.99955,9.234 71.99955,26.9838 Z" id="Shape" fill="#D87543"></path>
                    <path d="M88.065,79.6347 C73.53,72.25605 71.09325,63.85995 70.44345,54.1899 C69.94755,47.0763 70.44345,39.27015 67.8015,30.6945 C53.82225,29.925 45.13545,25.9065 43.18605,18.9297 C43.0687237,18.5342292 42.9773295,18.1315236 42.91245,17.72415 C42.91245,17.613 42.91245,17.4933 42.91245,17.3736 C41.4504,6.1218 45.5886,1.70145 53.22375,0.8721 C85.26915,-0.0684 76.00095,29.4975 83.14875,37.08135 C89.98875,44.31465 98.07705,51.7959 94.79385,65.7837 C94.6314,66.47625 94.4433,67.17735 94.221,67.9041 C89.5185,83.277 102.2922,86.868 88.065,79.6347 Z" id="Shape" fill="#2A3793"></path>
                    <path d="M42.86115,17.3736 C42.9894,17.8866 43.092,18.40815 43.1775,18.9297 C44.26335,25.69275 41.86935,32.87475 36.3888,40.75785 C36.3975428,42.0662952 36.6021614,43.366056 36.99585,44.6139 C37.7778318,46.8164268 38.4287699,49.0633053 38.94525,51.34275 C45.11835,82.97775 19.28025,80.3187 13.9707,70.75125 C12.73609,68.3927154 11.7366219,65.9183874 10.98675,63.36405 C5.90805,45.23805 25.43625,44.98155 25.0002,31.3614 C24.4701,14.6034 33.71265,-2.67615 53.2152,0.855 C45.5373,1.71 41.3991,6.1218 42.86115,17.3736 Z" id="Shape" fill="#2A3793"></path>
                    <path d="M38.94525,51.35985 C45.11835,82.99485 19.28025,80.3358 13.9707,70.76835 C12.73609,68.4098154 11.7366219,65.9354874 10.98675,63.38115 C15.816906,64.3286598 20.7277882,64.8039988 25.65,64.80045 C38.2869,64.80045 37.04715,45.35775 36.99585,44.631 C37.7778318,46.8335268 38.4287699,49.0804053 38.94525,51.35985 Z" id="Shape" fill="#192893"></path>
                    <path d="M88.065,79.6347 C73.53,72.25605 71.09325,63.85995 70.44345,54.1899 C71.7516,58.81545 74.3166,63.24435 79.23285,65.1681 C84.191929,67.1136625 89.6621056,67.3305417 94.75965,65.7837 C94.5972,66.47625 94.4091,67.17735 94.1868,67.9041 C89.5185,83.277 102.2922,86.868 88.065,79.6347 Z" id="Shape" fill="#192893"></path>
                    <path d="M16.62975,167.1525 C19.07505,158.9616 21.0843,153.3357 20.52855,150.4629 C17.10855,153.24165 0.00855,154.7379 0.6498,139.71555 C0.6498,139.71555 1.71855,124.68465 2.3598,98.3079 C3.00105,71.93115 23.0166,69.52005 23.0166,69.52005 L40.1166,64.39005 L40.4073,220.59 L9.48195,211.82625 C9.48195,192.84525 13.43205,177.84 16.62975,167.1525 Z" id="Shape" fill="#EA4E24"></path>
                    <path d="M88.92,153.045 C87.74865,156.1401 89.08245,161.68905 91.143,169.11045 C91.143,169.11045 91.143,169.11045 91.143,169.11045 C94.3407,180.6273 99.2826,196.65855 99.2826,215.0496 L65.0313,224.0613 C65.0313,224.0613 61.75665,79.0533 62.18415,77.12955 C62.61165,75.2058 62.47485,64.08225 62.47485,64.08225 C62.47485,64.08225 80.42985,70.0074 81.28485,70.22115 C92.39985,76.4883 95.64885,73.86345 97.52985,96.00795 C99.41085,118.15245 103.61745,129.28455 102.76245,137.40705 C101.90745,145.52955 98.76105,153.66915 88.92,153.045 Z" id="Shape" fill="#EA4E24"></path>
                    <path d="M73.31625,134.50005 L38.9709,135.0729 C37.4921471,135.098218 36.0655617,134.526664 35.0133565,133.48733 C33.9611513,132.447996 33.3720829,131.028553 33.3792,129.5496 L33.54165,85.67955 C33.5557695,82.6533035 36.0130206,80.2075171 39.0393,80.20755 L73.72665,80.20755 C75.1981483,80.2074059 76.6082863,80.797172 77.6415365,81.8448845 C78.6747867,82.8925969 79.2448964,84.3107958 79.2243,85.78215 L78.71985,129.105 C78.6650257,132.064913 76.2762457,134.449913 73.31625,134.50005 Z" id="Shape" fill="url(#linearGradient-1)"></path>
                    <circle id="Oval" fill="#FFFFFF" cx="56.4129" cy="105.77205" r="5.75415"></circle>
                    <path d="M81.30195,139.06575 C81.30195,139.06575 91.20285,139.6386 91.16865,129.23325 C87.4323,123.9579 85.44015,120.4011 84.32865,116.6904 C83.21715,112.9797 81.96885,97.7094 82.61865,95.37525 C78.10425,94.0329 79.19865,100.3086 79.09605,102.5829 C78.99345,104.8572 77.38605,104.57505 74.82105,102.30075 C72.25605,100.02645 67.12605,97.6239 63.70605,95.18715 C61.8129248,93.7506161 59.2645285,93.5246826 57.1482,94.60575 L57.1482,96.31575 C57.1482,96.31575 52.16355,93.32325 50.7357,96.5979 C51.862804,97.9015629 53.1563847,99.0514123 54.5832,100.0179 C54.5832,100.0179 52.0182,100.0179 52.0182,101.87325 C54.9686918,103.772775 57.8222615,105.818784 60.5682,108.0036 C60.5682,108.0036 56.14785,107.43075 56.14785,109.2861 C58.5675,110.28645 64.5525,110.9961 66.69,113.9886 C68.8275,116.9811 72.95715,115.07445 75.24,122.15385 C77.52285,129.23325 81.30195,139.06575 81.30195,139.06575 Z" id="Shape" fill="#E69464"></path>
                    <path d="M19.24605,124.17165 L24.27345,118.18665 C25.7697,112.09905 21.8196,107.82405 26.83845,104.8059 C32.46435,101.3859 32.3019,100.0179 35.08065,102.69405 C37.8594,105.3702 45.66555,106.96905 45.66555,106.96905 C45.66555,106.96905 45.13545,109.7478 42.7842,110.1753 C43.7294508,110.549013 44.6941488,110.871531 45.6741,111.14145 C45.6741,111.14145 44.8191,114.13395 42.04035,114.56145 L39.2616,114.98895 C39.2616,114.98895 42.04035,117.55395 43.32285,117.55395 C44.60535,117.55395 41.3991,120.2301 39.159,119.16135 C40.3389,120.6576 41.04,121.6152 41.04,121.6152 C41.04,121.6152 38.94525,123.3252 37.0215,121.9401 C35.7854317,121.017887 34.6733277,119.940266 33.71265,118.73385 L33.3963,126.85635 L29.4462,137.54385 C29.4462,137.54385 21.48615,134.53425 19.24605,124.17165 Z" id="Shape" fill="#E69464"></path>
                    <path d="M37.08135,38.3724 C37.08135,38.3724 35.8074,36.0639 33.4818,36.3888 C30.27555,36.8334 31.09635,42.3738 32.6268,44.50275 C34.15725,46.6317 38.03895,48.4956 38.03895,48.4956 L37.08135,38.3724 Z" id="Shape" fill="#E69464"></path>
                    <path d="M69.60555,38.3724 C69.60555,38.3724 70.8795,36.0639 73.2051,36.3888 C76.41135,36.8334 75.59055,42.3738 74.0601,44.50275 C72.8794055,45.9764485 71.4604681,47.2422216 69.86205,48.24765 L69.60555,38.3724 Z" id="Shape" fill="#E69464"></path>
                    <path d="M50.9922,376.84125 L50.9922,397.36125 L47.95695,397.36125 L46.24695,393.94125 L11.4228,397.36125 C11.3715,394.86465 12.1923,391.59 20.92185,389.1105 L25.65,387.315 L39.15045,382.24485 L38.4066,376.8327 L50.9922,376.84125 Z" id="Shape" fill="#E69464"></path>
                    <path d="M50.9922,384.8355 L50.9922,397.34415 L47.95695,397.34415 L46.24695,393.92415 L28.0098,397.34415 L11.4228,397.34415 C11.3715,394.84755 12.1923,391.5729 20.92185,389.0934 L25.65,387.315 C26.9667,388.79415 29.7369,390.735 37.0728,389.025 L50.9922,384.8355 Z" id="Shape" fill="#27235D"></path>
                    <path d="M57.17385,376.84125 L57.17385,397.36125 L60.2091,397.36125 L61.9191,393.94125 L96.74325,397.36125 C96.79455,394.86465 95.97375,391.59 87.2442,389.1105 L82.53315,387.315 L69.0327,382.24485 L69.77655,376.8327 L57.17385,376.84125 Z" id="Shape" fill="#E69464"></path>
                    <path d="M57.17385,384.8355 L57.17385,397.34415 L60.2091,397.34415 L61.9191,393.92415 L80.15625,397.34415 L96.74325,397.34415 C96.79455,394.84755 95.97375,391.5729 87.2442,389.0934 L82.53315,387.315 C81.21645,388.79415 78.44625,390.735 71.11035,389.025 L57.17385,384.8355 Z" id="Shape" fill="#27235D"></path>
                    <path d="M71.5293,35.14905 C71.5293,37.64565 70.90515,65.07405 66.59595,73.79505 C60.11505,86.9706 64.88595,77.74515 67.05765,68.11785 C69.22935,58.49055 69.36615,36.5427 69.36615,36.5427 L71.5293,35.14905 Z" id="Shape" fill="#2A3793"></path>
                    <path d="M37.04715,31.5666 C36.96165,34.0632 36.5769,61.4916 40.5612,70.3665 C46.5462,83.76435 42.1515,74.37645 40.31325,64.68075 C38.475,54.98505 39.159,33.04575 39.159,33.04575 L37.04715,31.5666 Z" id="Shape" fill="#2A3793"></path>
                    <path d="M20.52,122.64975 L13.62015,130.8663 L19.82745,100.4625 C20.52,108.37125 16.7238,117.24615 20.52,122.64975 Z" id="Shape" fill="#EA3D0E"></path>
                    <path d="M87.3468,123.2568 L93.6909,132.8157 L87.4836,101.574 C86.7996,109.44 91.143,117.84465 87.3468,123.2568 Z" id="Shape" fill="#EA3D0E"></path>
                    <path d="M18.2457,179.55 C19.7505,183.20085 29.07855,185.25285 32.6439,183.44025 C30.2157,185.7402 21.9051,187.2963 18.2457,179.55 Z" id="Shape" fill="#EA3D0E"></path>
                    <path d="M88.26165,179.1225 C86.7996,182.79045 77.50575,184.96215 73.91475,183.1923 C76.3686,185.45805 84.6963,186.903 88.26165,179.1225 Z" id="Shape" fill="#EA3D0E"></path>
                    <path d="M16.62975,167.1525 C19.07505,158.9616 21.0843,153.3357 20.52855,150.4629 C20.52855,150.4629 27.9072,141.56235 29.3949,137.52675 C27.59085,146.93175 21.93075,156.54195 16.62975,167.1525 Z" id="Shape" fill="#EA3D0E"></path>
                    <path d="M91.15155,169.09335 C83.79,149.83875 81.16515,148.1544 81.30195,139.06575 C81.30195,139.06575 83.1573,148.94955 88.92855,153.0279 C87.7572,156.123 89.091,161.67195 91.15155,169.09335 Z" id="Shape" fill="#EA3D0E"></path>
                </g>
                <g id="Layer_3" transform="translate(51.000000, 192.000000)">
                    <path d="M69.41745,66.2796 L35.62785,77.1894 C21.4092,82.5588 21.38355,91.30545 20.23785,104.4297 L17.784,132.34545 C22.68315,132.34545 41.0571,133.6707 41.0571,133.6707 L36.05535,193.59765 C65.92905,208.78245 124.20585,208.28655 132.525,193.59765 C130.56705,184.29525 126.9162,122.51295 126.9162,122.51295 L141.4512,123.2568 C141.4512,123.2568 145.03365,92.86155 125.3601,82.4391 C122.9148,81.95175 92.75895,68.2119 92.75895,68.2119 L69.41745,66.2796 Z" id="Shape" fill="#2EB786"></path>
                    <path d="M47.39265,105.2334 L49.1625,124.73595 C49.6952632,130.634927 53.754159,135.620604 59.4225,137.33865 L86.15835,145.4013 L45.11835,139.8267 C44.2713253,139.712925 43.5060468,139.262175 42.9958465,138.576543 C42.4856462,137.890911 42.2736954,137.028413 42.408,136.1844 L47.39265,105.2334 Z" id="Shape" fill="#369B78"></path>
                    <path d="M17.80965,132.31125 L41.1939,132.31125 L40.5954,139.15125 L99.00045,147.0942 L98.6499,160.44075 C98.6499,160.44075 41.0913,161.7489 34.9182,161.87715 C28.7451,162.0054 17.92935,158.45715 17.0658,153.61785 C16.20225,148.77855 17.80965,132.31125 17.80965,132.31125 Z" id="Shape" fill="#2EB786"></path>
                    <polygon id="Shape" fill="#2A3793" points="126.94185 202.6863 40.0482 202.6863 24.6411 151.44615 62.6373 163.9377 126.94185 163.9377"></polygon>
                    <path d="M144.495,215.6139 C138.552719,224.300818 128.318287,229.020613 117.8532,227.90025 L116.51085,227.7549 L102.3093,226.2159 C98.2760192,225.782837 94.6674864,223.514886 92.5281,220.06845 L100.9413,207.7479 L136.2186,210.3129 L142.05825,210.7404 C143.193048,210.781166 144.214991,211.438406 144.722815,212.454055 C145.23064,213.469704 145.143266,214.681602 144.495,215.6139 Z" id="Shape" fill="#E39B74"></path>
                    <path d="M136.2357,210.33 C131.1057,215.3061 122.44455,212.8437 120.555,217.89675 C118.80225,222.5736 113.715,226.0107 107.73,226.78875 L102.33495,226.20735 C98.3016692,225.774287 94.6931364,223.506336 92.55375,220.0599 L100.96695,207.73935 L136.2357,210.33 Z" id="Shape" fill="#D87543"></path>
                    <path d="M115.596,172.8639 C96.7971804,179.268301 76.3078995,178.596472 57.969,170.97435 L49.3506,167.3919 C27.4968,154.66095 -0.16245,171.57285 14.52645,181.3626 C29.21535,191.15235 85.95315,216.6228 85.95315,216.6228 L86.41485,216.6228 C86.41485,216.6228 143.1441,191.1609 157.84155,181.3626 C172.539,171.5643 137.4498,160.1244 115.596,172.8639 Z" id="Shape" fill="#27235D"></path>
                    <path d="M96.79455,202.42125 L96.79455,226.4211 C96.79455,226.4211 43.32285,209.48355 15.4413,195.17085 C14.0904,194.48115 12.80505,193.79715 11.58525,193.11885 C-0.9747,186.14205 -2.04345,173.5308 2.736,163.9377 C8.02845,153.34425 20.4687,146.43585 32.4558,154.91745 L96.79455,202.42125 Z" id="Shape" fill="#2A3793"></path>
                    <path d="M96.79455,215.46 L96.79455,226.39545 C96.79455,226.39545 43.32285,209.4579 15.4413,195.1452 C33.61005,196.0002 37.7397,182.94435 69.1866,204.78105 C78.831,211.50135 86.8509,213.5961 96.79455,215.46 Z" id="Shape" fill="#27235D"></path>
                    <path d="M76.5225,208.54305 L36.3375,199.22355 C35.2473924,198.931519 34.0846758,199.254228 33.3010157,200.066321 C32.5173556,200.878413 32.2362706,202.051887 32.56695,203.1309 C35.6487151,213.203744 44.0253692,220.762121 54.3609,222.7959 L69.6996,225.8055 C73.679915,226.586953 77.7983842,225.492689 80.8659,222.83865 L76.5225,208.54305 Z" id="Shape" fill="#E39B74"></path>
                    <path d="M163.0485,163.9377 L77.47155,163.9377 L91.23705,104.6691 C91.7727496,102.330959 93.8571915,100.676189 96.2559,100.6848 L171.24795,100.6848 C172.822564,100.676074 174.313959,101.390979 175.293349,102.623976 C176.272738,103.856972 176.631615,105.471455 176.2668,107.00325 L163.0485,163.9377 Z" id="Shape" fill="url(#linearGradient-2)"></path>
                    <rect id="Rectangle-path" fill="url(#linearGradient-3)" x="53.71965" y="160.49205" width="94.50315" height="6.89985" rx="3.44565"></rect>
                    <path d="M76.5054,58.21695 C76.5054,58.21695 62.5518,62.93655 60.3117,60.35445 C58.0716,57.77235 61.31205,53.2323 58.93515,47.83725 C56.55825,42.4422 46.854,20.007 63.21015,13.0986 C69.255,-1.13715 76.15485,-0.05985 84.7818,3.3858 C93.40875,6.83145 92.98125,-1.4535 99.23985,1.1799 C105.49845,3.8133 108.0891,6.50655 108.30285,14.06475 C108.5166,21.62295 112.88565,43.605 95.8455,40.1508 C78.80535,36.6966 83.35395,43.6563 76.5054,58.21695 Z" id="Shape" fill="#2A3793"></path>
                    <path d="M160.74,193.11885 C144.62325,202.0707 116.51085,212.47605 96.99975,219.24765 C84.5082,223.57395 75.5478,226.41255 75.5478,226.41255 L75.5478,202.42125 L139.88655,154.91745 C154.8918,144.2898 170.66655,157.7988 172.1115,172.4706 C172.90665,180.12285 169.82865,188.1 160.74,193.11885 Z" id="Shape" fill="#2A3793"></path>
                    <path d="M92.0664,53.25795 L92.0664,76.78755 C91.9954418,78.6757168 91.3644918,80.5001148 90.2538,82.0287 C84.49965,89.30475 67.4766,80.12205 67.4766,74.8809 L67.4766,50.9409 L92.0664,53.25795 Z" id="Shape" fill="#E39B74"></path>
                    <path d="M92.0664,59.2515 L92.0664,73.6155 C90.616979,74.9481558 88.6471683,75.5621219 86.6972459,75.2890004 C84.7473235,75.0158788 83.0220016,73.8843431 81.9945,72.20475 L77.463,64.809 L92.0664,59.2515 Z" id="Shape" fill="#D87543"></path>
                    <path d="M92.0664,66.2796 C92.0664,66.2796 91.86975,80.9514 88.15905,83.76435 C90.0885295,83.9119993 92.0264705,83.9119993 93.95595,83.76435 C95.8113,83.61045 95.931,83.98665 97.29045,85.47435 C98.6499,86.96205 99.39375,86.32935 99.39375,86.32935 L95.11875,69.28065 L92.70765,66.27105 L92.0664,66.2796 Z" id="Shape" fill="#FFFFFF"></path>
                    <path d="M103.455,34.8327 C107.3538,52.3944 100.72755,65.70675 89.6724,68.7078 C78.61725,71.70885 63.72315,58.1058 62.35515,42.41655 C61.50015,32.5242 60.64515,15.9885 79.84845,15.7662 C89.73225,15.63795 98.8209,13.96215 103.455,34.8327 Z" id="Shape" fill="#E39B74"></path>
                    <path d="M100.41975,23.7348 C100.41975,23.7348 99.99225,36.7308 90.63855,29.8908 C84.94425,25.72695 67.38255,17.34795 70.11855,33.3108 C72.85455,49.27365 72.01665,47.97405 67.6476,44.0667 C63.27855,40.15935 63.5436,52.8561 67.6476,57.1824 C67.22865,60.83325 67.19445,60.02955 67.19445,60.02955 L62.6031,59.6448 L57.58425,29.2068 C57.58425,29.2068 69.255,11.29455 75.71025,9.5931 C81.4986,8.0712 98.5131,16.88625 98.5131,16.88625 L100.41975,23.7348 Z" id="Shape" fill="#2A3793"></path>
                    <path d="M67.46805,63.6804 L65.00565,64.0053 L59.63625,69.3747 C59.63625,69.3747 68.18625,90.96345 68.8788,90.96345 C72.22185,90.96345 72.5553,85.78215 75.1545,84.72195 C76.4883,84.1833 80.8659,84.91005 81.9261,84.72195 C72.20475,80.9343 67.46805,63.6804 67.46805,63.6804 Z" id="Shape" fill="#FFFFFF"></path>
                    <circle id="Oval" fill="#FFFFFF" cx="129.90015" cy="132.31125" r="7.05375"></circle>
                    <path d="M160.74,193.11885 C144.62325,202.0707 116.51085,212.47605 96.99975,219.24765 C97.709948,218.73277 98.4654529,218.283473 99.25695,217.9053 C120.8115,207.7479 132.60195,194.45265 146.17935,192.8025 C164.4678,190.5795 168.1101,183.5685 172.0944,172.4706 C172.90665,180.12285 169.82865,188.1 160.74,193.11885 Z" id="Shape" fill="#27235D"></path>
                </g>
            </g>
        </g>
    </g>
</svg>