<?xml version="1.0" encoding="UTF-8"?>
<svg width="301px" height="414px" viewBox="0 0 301 414" version="1.1" xmlns="http://www.w3.org/2000/svg" xmlns:xlink="http://www.w3.org/1999/xlink">
    <!-- Generator: Sketch 49.3 (51167) - http://www.bohemiancoding.com/sketch -->
    <title>gods</title>
    <desc>Created with Sketch.</desc>
    <defs></defs>
    <g id="Final" stroke="none" stroke-width="1" fill="none" fill-rule="evenodd">
        <g id="Desktop-HD" transform="translate(-1096.000000, -3891.000000)" fill-rule="nonzero">
            <g id="gods" transform="translate(1095.000000, 3891.000000)">
                <g id="woman-god" transform="translate(121.000000, 0.000000)">
                    <path d="M77.6630923,5.51607627 C77.6630923,5.51607627 54.4676527,-5.63266467 48.2988221,3.76944019 C42.1299915,13.1715451 48.2988221,23.900881 44.8139367,27.6595994 C41.3290513,31.4183177 32.7467917,39.737402 37.3031335,51.5497585 C41.8594753,63.362115 48.8345503,69.531085 42.9362359,75.7053639 C37.0379215,81.8796428 35.9611609,91.8126401 40.5228069,98.0028458 C45.084453,104.193051 52.3247399,106.592685 47.2273657,113.568612 C42.1299915,120.544538 41.3290513,129.405133 47.2273657,136.651814 C53.1256801,143.898496 75.9233017,151.952134 91.7458483,147.922661 C107.568395,143.893187 125.268642,114.104813 125.533854,99.3406947 C125.799066,84.5765763 118.293567,79.2092539 120.977513,74.1073777 C123.661458,69.0055015 133.580386,50.2172185 130.366017,38.9463723 C127.151647,27.6755261 102.736233,0.817678302 94.9602175,0.281476952 C87.1842023,-0.254724398 77.6630923,5.51607627 77.6630923,5.51607627 Z" id="Shape" fill="#2A3793"></path>
                    <polygon id="Shape" fill="#292D9B" points="94 205.999612 68.2197231 275.916558 60.6975982 313.958667 38.6730715 381.459569 0 382 24.7072054 368.600488 32.7658661 299.48889 45.6586606 268.419401 55.0560045 191"></polygon>
                    <polygon id="Shape" fill="#291C62" points="45.1063672 268.527034 34 296 52.1806515 276.841081 76 199.589944 54.2744324 191"></polygon>
                    <path d="M62,305.482231 L52.5126243,277 C52.5126243,277 42.9356457,286.070774 35.2245176,293.332729 L32.5258863,299.927716 L24.5143246,369.511225 L0,383 L38.3711638,382.466425 L60.2237524,314.48364 L62,305.482231 Z" id="Shape" fill="#EA4E24"></path>
                    <path d="M61.7807948,312 L63,305.889748 L53.2895163,277 C53.2895163,277 43.4873224,286.200557 35.594857,293.566414 L33,299.860677 L51.3797878,283.083192 L61.7807948,312 Z" id="Shape" fill="#FFA81D"></path>
                    <polygon id="Shape" fill="#292D9B" points="87 203.000028 112.780277 272.918914 120.302402 310.95678 142.326929 378.464852 181 379 156.292795 365.605415 148.234134 296.4919 135.341339 265.416251 125.943995 188"></polygon>
                    <polygon id="Shape" fill="#291C62" points="134.893633 265.525646 146 293 127.819348 273.840113 104 196.590378 125.725568 188"></polygon>
                    <path d="M119,302.482231 L128.490603,274 C128.490603,274 138.070839,283.070774 145.784591,290.332729 L148.48414,296.927716 L156.477337,366.511225 L181,380 L142.615784,379.466425 L120.755762,311.472969 L119,302.482231 Z" id="Shape" fill="#EA4113"></path>
                    <path d="M120.197626,309 L119,302.916576 L128.710484,274 C128.710484,274 138.512678,283.209101 146.405143,290.581798 L149,296.881907 L130.620212,280.088841 L120.197626,309 Z" id="Shape" fill="#FFA81D"></path>
                    <polygon id="Shape" fill="#FF3A00" points="73.4179259 161.530528 55 191.110222 93.5556296 206 126 189.779556 110.905926 161.330665 100.203333 160"></polygon>
                    <polygon id="Shape" fill="#DD2405" points="55 191.324402 77.7498803 200 89 165.506595 77.2940144 161 74.0052674 161.187552"></polygon>
                    <path d="M55,30 L55.1175112,21.1056911 C55.1303427,20.1675779 55.6492491,19.3122012 56.4688899,18.8780488 L65.6721524,14 L89.1743901,18.796748 C90.3076709,19.0181713 91.1608095,19.9722065 91.2682258,21.1382114 L92,28.9701897 L55,30 Z" id="Shape" fill="#FFA81D"></path>
                    <polygon id="Shape" fill="#F49000" points="80.8655804 16.4845361 78 16 78.1283096 27.1082474 79.7291242 28 81 27.9690722"></polygon>
                    <path d="M158.270095,142.573583 L131.962568,84.8786868 C130.165154,80.9392909 126.64751,78.0515799 122.432773,77.0554706 L93.398666,70.1479623 L90.3067771,44 L71.7342664,52.0296475 L71.8348587,58.5507588 L72.5390046,59.8528638 L73.1425583,72.2969649 L41.175392,82.427977 C35.8217492,84.1272388 32.4263358,89.3845868 33.080361,94.9620609 L39.9629904,153.863787 L37.056403,173.448293 C36.8523621,174.828324 36.8363332,176.229635 37.0087541,177.61397 L41.8371833,216.470689 L52.5423191,217 L56.8254323,170.394168 C57.174968,166.546614 56.7243248,162.668371 55.5018498,159.003396 L53.0770465,151.72537 L54.4429837,110.513217 L58.4560861,116.1345 L88.1678676,96.5976319 C88.1678676,96.5976319 95.9293558,111.582426 97.2688214,112.11703 C98.608287,112.651634 116.005456,115.864551 116.005456,115.864551 L122.311004,114.80593 L142.503579,142.901756 L137.897512,144.95019 C136.186877,145.708837 134.733737,146.948318 133.714991,148.517746 L116.534889,175.015053 L122.956912,182.774752 L153.081651,158.002998 C155.090311,156.352336 156.608253,154.18304 157.470651,151.730663 L158.529517,148.681832 C159.236743,146.688875 159.143756,144.49943 158.270095,142.573583 Z" id="Shape" fill="#E39B74"></path>
                    <polygon id="Shape" fill="#F49000" points="83.133758 28 85 27.9582938 84.8726115 17.3075829 83 17"></polygon>
                    <path d="M89.5556793,44 L71,51.9742178 L71.1005011,58.4503129 L71.8040089,59.7434293 L72.0579065,65 C78.2255011,62.0090113 87.3287862,55.1281602 89.7302339,48.2788486 C89.7958447,48.0923222 89.8865927,47.9154936 90,47.7531915 L89.5556793,44 Z" id="Shape" fill="#ED7B3A"></path>
                    <path d="M55,28.5471834 L55.081018,43.4066266 C55.0945082,45.9862033 55.9616741,48.4900835 57.5493654,50.5338045 C60.6820601,54.555225 65.7969944,61.3075701 66.5693657,63.4708909 C67.6496052,66.5123913 86.9102766,55.9046231 90.6100971,45.3825309 C90.8410141,44.7325124 91.3578672,44.2220744 92.0144085,43.9956495 C94.5468538,43.151667 96.4115839,41.0030717 96.8754865,38.3945766 C97.9017141,33.2165292 92.2682648,33.3182695 91.5499055,36.161644 C90.8315462,39.0050186 89.8107198,40.2205478 89.8107198,40.2205478 C89.8107198,40.2205478 88.6818695,31.1870773 87.2505521,28.1402221 C87.2559533,28.1402221 65.3432938,23.0639151 55,28.5471834 Z" id="Shape" fill="#E39B74"></path>
                    <polygon id="Shape" fill="#292D9B" points="52.4661064 217 56 178.929944 44.6957983 169 37 178.945756 41.7047619 216.467662"></polygon>
                    <polygon id="Shape" fill="#FFA81D" points="37 183.216521 41.1880141 216.473193 51.880141 217 55 183.487749 44.159812 174"></polygon>
                    <polygon id="Shape" fill="#F49000" points="47 215.904616 48.9617591 216 53 179.478455 51.1931166 178"></polygon>
                    <polygon id="Shape" fill="#F49000" points="50 216.941385 51.2076749 217 55 181.927176 53.8882619 181"></polygon>
                    <path d="M86.4567323,96.2624918 L103.698418,105.554701 L114.307879,96 L122,109.003844 C122,109.003844 122,116.967845 110.325396,123.866129 L109.52785,152 L71.5919438,151.732258 C71.5919438,151.732258 68.4070068,133.683322 64.4297707,126.249555 C60.4525347,118.815787 57,115.634386 57,115.634386 L86.4567323,96.2624918 Z" id="Shape" fill="#EA4113"></path>
                    <path d="M87,152 L86.877551,96 L57,115.523567 C57,115.523567 60.4977817,118.734297 64.538598,126.218948 C68.5794144,133.703599 71.8003549,151.873052 71.8003549,151.873052 L87,152 Z" id="Shape" fill="#DD2405"></path>
                    <path d="M103.691693,105.694555 L86.4486155,96.2921647 L57,115.89907 C58.2424068,117.160785 59.3699217,118.533316 60.3688544,120 C66.141035,116.281541 86.7687091,103.001328 86.7687091,103.001328 L104.678211,112.871182 L113.640833,104.594954 L120.289336,114.533865 C121.994753,111.394422 122,109.158035 122,109.158035 L114.307258,96 L103.691693,105.694555 Z" id="Shape" fill="#292D9B"></path>
                    <path d="M124,109.054018 L116.089928,96 L112,124 C124,117.048748 124,109.054018 124,109.054018 Z" id="Shape" fill="#DD2405"></path>
                    <path d="M86.9946553,96 L57,115.848532 C58.2654437,117.125796 59.4138651,118.515242 60.4313201,120 C65.8829503,116.531481 84.3703902,104.679364 87,102.996191 L86.9946553,96 Z" id="Shape" fill="#291C62"></path>
                    <path d="M115.630473,104.811121 L122.287215,115 C123.994746,111.781599 124,109.488965 124,109.488965 L116.297723,96 L115,105.410146 L115.630473,104.811121 Z" id="Shape" fill="#291C62"></path>
                    <polygon id="Shape" fill="#FFA81D" points="72 153 72.8823529 161.882333 97.2139037 169 111 161.678512 110.663102 153.268186"></polygon>
                    <polygon id="Shape" fill="#F49000" points="87.6010929 153.105605 72 153 72.9016393 161.74411 88 166"></polygon>
                    <polygon id="Shape" fill="#FF3A00" points="95.9876106 157.769912 98.3026549 154 100.230088 157.982301 104 160.297345 100.017699 162.224779 97.7026549 166 95.7752212 162.012389 92 159.697345"></polygon>
                    <polygon id="Shape" fill="#292D9B" points="144 165.559724 142.272272 149 131.425376 151.646994 116 175.176424 122.549171 183"></polygon>
                    <polygon id="Shape" fill="#FFA81D" points="116 175.218151 122.514501 183 141 167.972432 139.335124 152 129.67884 154.356849"></polygon>
                    <polygon id="Shape" fill="#FFA81D" points="116 175.218151 122.514501 183 141 167.972432 139.335124 152 129.67884 154.356849"></polygon>
                    <path d="M116.455036,175.11671 L112.073741,173.399977 C110.214828,172.672606 108.115935,172.949054 106.505396,174.133391 L99,179.647584 C99,179.647584 102.269784,185.705046 105.269784,185.965816 C108.269784,186.226585 114.134892,184.879275 116.179856,185.829998 C118.22482,186.780721 123,183.081051 123,183.081051 L116.455036,175.11671 Z" id="Shape" fill="#E39B74"></path>
                    <path d="M51.9236452,217.550536 L55.6300506,223.82233 C56.1233165,224.665944 56.1233165,225.720601 55.6300506,226.564216 L53.9028447,229.554383 L53.1258646,235.836971 C52.9552613,237.129528 51.8463905,238.069763 50.5796795,237.995936 L50.1964393,237.995936 C48.9570802,237.922309 47.8465732,237.184395 47.272264,236.052868 L45.1723176,231.87527 L43.0723712,230.072534 C41.7010544,228.883528 40.9381987,227.111896 41.003924,225.268837 L41.2979165,217 L51.9236452,217.550536 Z" id="Shape" fill="#E39B74"></path>
                    <polygon id="Shape" fill="#F49000" points="120.415814 181 141 164.57727 140.731105 162 119 179.328257"></polygon>
                    <polygon id="Shape" fill="#F49000" points="121.912507 182 141 166.677319 140.822866 165 121 180.913435"></polygon>
                </g>
                <g id="man-god" transform="translate(0.000000, 24.000000)">
                    <path d="M87.8512462,238.538831 C87.8512462,238.538831 64.3599644,277.134112 68.4862591,317 L109.800274,314.473855 L118.318417,270.037804 C118.318417,270.037804 122.449819,254.549469 122.705159,253.278863 C122.960499,252.008257 123.215839,244.901904 122.705159,243.375168 C122.194479,241.848432 119.865778,238.297767 119.865778,238.297767 C119.865778,238.297767 112.634548,237.293335 110.310954,237.027161 C107.98736,236.760987 87.8512462,238.538831 87.8512462,238.538831 Z" id="Shape" fill="#009F74"></path>
                    <path d="M98.8050892,117.618478 L55.4491481,86.4566214 C55.4491481,86.4566214 48.956476,67.2282234 36.8694889,57.5680479 C23.8994575,47.2080077 23.8994575,32 23.8994575,32 L9,40.9092259 C9,40.9092259 21.3881409,82.170589 36.4815619,94.180675 C36.4815619,94.180675 49.2423169,134.471423 73.2325362,149 L93.578284,137.572283 L99.3869796,130.210933 C99.3869796,130.210933 100.162834,126.124132 99.9688701,125.368074 C99.7749066,124.612016 98.8050892,117.618478 98.8050892,117.618478 Z" id="Shape" fill="#E39B74"></path>
                    <path d="M135.214012,91.4786352 C135.214012,91.4786352 134.240782,88.5892837 136.445147,85.5120482 C136.445147,85.5120482 136.445147,80.8911171 139.3989,79.3524993 C139.3989,79.3524993 140.858744,75.503416 145.301538,76.2701859 C145.301538,76.2701859 147.515636,72.4211026 154.897584,74.746802 C154.897584,74.746802 158.586125,73.2234181 163.01432,76.2701859 C167.442516,79.3169537 167.442516,82.4297348 167.442516,82.4297348 C167.442516,82.4297348 171.131057,82.4297348 173.345155,85.5120482 C175.559252,88.5943617 174.804999,90.9048273 174.804999,90.9048273 C174.804999,90.9048273 178.49354,92.4282112 178.49354,97.836224 C178.49354,103.244237 177.753885,103.229003 177.753885,103.229003 C177.753885,103.229003 179.967983,107.078086 178.49354,109.388552 C177.019097,111.699018 175.539788,112.470865 175.539788,112.470865 C175.539788,112.470865 176.279442,114.781331 174.079943,117.863644 C171.880444,120.945958 169.651747,121.712728 169.651747,121.712728 C169.547968,124.111734 168.103625,126.223416 165.963207,127.105507 C162.274666,128.628891 160.795356,127.877355 160.795356,127.877355 C160.795356,127.877355 163.009454,134.036904 160.795356,136.347369 C158.581259,138.657835 157.106816,137.870753 157.106816,137.870753 L157.106816,124.00796 L135.214012,91.4786352 Z" id="Shape" fill="#2A3793"></path>
                    <polygon id="Shape" fill="#E39B74" points="158.932133 127.09334 159 145 130 133.964025 130.29757 124"></polygon>
                    <path d="M159,126.970912 L130.41991,124 L130.199457,124.133691 L130,129.887357 C149.105882,134.695282 156.396561,130.1894 158.979005,127.297712 L159,126.970912 Z" id="Shape" fill="#D87543"></path>
                    <path d="M139.266402,84 C139.266402,84 130.316552,96.7287032 126.589087,116.95243 C126.589087,116.95243 122.861622,119.198962 124.351624,122.195984 C125.841627,125.193006 141.508782,133.428645 159.408483,125.938559 C171.839924,120.739442 169.956521,117.238801 166.096283,116.661122 C163.734565,116.346728 161.36391,117.172496 159.703533,118.887904 L158.651188,119.944515 C158.651188,119.944515 157.175938,116.947493 159.398648,113.204918 C159.398648,113.204918 155.671183,110.207896 156.413725,106.465322 C156.413725,106.465322 152.68626,104.984092 152.68626,101.221768 C152.68626,101.221768 148.958795,98.9752354 148.958795,95.2326609 C148.958795,95.2326609 145.23133,94.482171 145.23133,90.7395965 C145.236247,90.7395965 139.266402,89.2435542 139.266402,84 Z" id="Shape" fill="#E39B74"></path>
                    <path d="M167.447774,121.418971 C167.9302,120.915698 168.119155,120.092077 167.924195,119.342339 C167.729235,118.592602 167.190024,118.069279 166.564658,118.022864 C165.203367,117.892661 163.471598,118.266993 162.338625,120.496706 C160.736093,123.643259 165.220599,123.67581 167.447774,121.418971 Z" id="Shape" fill="#D87543"></path>
                    <path d="M98.5532824,117.583609 L180.765867,151.131373 C182.502397,151.839186 184.200109,152.639073 185.851806,153.527642 C190.029542,155.777303 198.743248,160.665894 210.287522,168.188358 C210.287522,168.188358 210.287522,160.711393 214.687262,149.210313 C219.087003,137.709234 211.624599,128.700476 211.624599,128.700476 C211.624599,128.700476 203.395267,130.040163 200.912845,127.739947 C198.430422,125.439731 188.858968,119.494557 193.066977,114.130757 C197.274986,108.766957 206.266199,108.37769 210.09579,109.530326 C213.925381,110.682961 221.957935,119.691719 224.828866,125.631837 C227.699798,131.571955 235.54062,151.126317 234.97047,169.720151 C234.400321,188.313984 229.995534,189.082407 227.124603,189.658725 C224.253671,190.235043 204.545658,196.751479 170.493078,181.58522 C170.493078,181.58522 149.700267,197.30252 149.447989,229 L88.4823164,226.977832 C88.4823164,226.977832 75.9793837,198.348991 81.3327378,146.197283 L98.5532824,117.583609 Z" id="Shape" fill="#E39B74"></path>
                    <path d="M108.487467,126.300302 C108.487467,126.300302 102.805526,177.925363 149,228 L88.6705767,225.973302 C88.6705767,225.973302 72.8929572,206.228198 79.7082897,155.125012 L101.677127,124 L108.487467,126.300302 Z" id="Shape" fill="#00BC81"></path>
                    <path d="M212,338.665319 C212,338.665319 225.450032,337.888804 233.630657,336.080342 C241.811282,334.271879 236.797519,363.457605 242.072144,376.88825 C247.346768,390.318895 228.622111,391.350842 223.86921,389.026406 C219.116309,386.70197 227.823874,383.861559 226.243052,375.595761 C224.66223,367.329963 217.008546,359.84068 217.008546,359.84068 L212,338.665319 Z" id="Shape" fill="#292D9B"></path>
                    <path d="M239.100134,376.083236 C234.529614,364.238674 237.933515,339.95556 233.039776,336.270809 C225.075457,337.901764 213.070898,338.606498 213.070898,338.606498 C213.070898,338.606498 175.027004,334.790868 159.7044,345.477653 C159.7044,345.477653 173.491714,319.009864 165.067817,295.340876 L117.059685,290 C117.059685,290 115.544596,364.314181 127.781467,379.330045 C140.018339,394.345909 194.167633,362.280521 217.914134,359.476687 C217.914134,359.476687 225.317871,366.856257 226.853161,375.000966 C228.388452,383.145675 219.959505,385.944476 224.555276,388.23486 C225.438832,388.62831 226.377016,388.886274 227.33799,389 C234.080138,388.929527 242.852505,385.803529 239.100134,376.083236 Z" id="Shape" fill="#E39B74"></path>
                    <path d="M118.20072,336 L167,317.315991 L167,317.235195 C165.9994,316.346442 152.326196,303.994797 150.620172,303.504973 C148.914148,303.015149 141.514709,303 141.514709,303 L117,308.317368 C117.160096,316.371691 117.495297,326.18837 118.20072,336 Z" id="Shape" fill="#D87543"></path>
                    <path d="M214.004651,359.974525 C214.902326,359.786012 215.767442,359.633164 216.590698,359.52617 C216.590698,359.52617 216.748837,359.704493 217,360 L217,338 C215.832558,338.112089 214.804651,338.198703 214,338.264937 L214.004651,359.974525 Z" id="Shape" fill="#292D9B"></path>
                    <path d="M236.452934,372 C233.571641,374.915709 229.650647,376.785598 225.400169,377.270972 C225.328778,377.858001 225.194742,378.437137 225,379 C229.517635,378.618595 233.754944,376.818256 237,373.901465 C236.797383,373.290945 236.615027,372.661784 236.452934,372 Z" id="Shape" fill="#292D9B"></path>
                    <path d="M234.812199,360 L223,367.807107 C223.370787,368.507614 223.712681,369.248731 224.040128,370 L235,362.761421 C234.922953,361.844332 234.860353,360.923858 234.812199,360 Z" id="Shape" fill="#292D9B"></path>
                    <path d="M235.865265,349 L216,360.466208 L216.630558,360.386789 C216.630558,360.386789 217.271894,360.982436 218.215036,362 L236,351.720122 C235.971257,350.790251 235.926345,349.883543 235.865265,349 Z" id="Shape" fill="#292D9B"></path>
                    <path d="M236.758242,345.135653 L221.835165,338 C220.076923,338.171457 218.423077,338.307615 217,338.418558 L237,348 C236.928571,346.99647 236.851648,346.043369 236.758242,345.135653 Z" id="Shape" fill="#292D9B"></path>
                    <path d="M66.8995945,358 C66.8995945,358 67.9197337,371.487375 69.9039044,379.658368 C71.8880751,387.82936 42.6355844,383.403406 29.3329696,388.976442 C16.0303548,394.549478 14.6429656,375.771908 16.8566676,370.958356 C19.0703696,366.144803 22.0899815,374.823864 30.3123032,373.053482 C38.5346249,371.2831 45.8592242,363.463042 45.8592242,363.463042 L66.8995945,358 Z" id="Shape" fill="#292D9B"></path>
                    <path d="M29.2603599,386.006107 C41.1008724,381.164496 65.6236641,384.09896 69.234133,379.074262 C67.4288986,371.089673 66.4755725,359.016159 66.4755725,359.016159 C66.4755725,359.016159 69.5485278,320.634185 58.4737186,305.427865 C58.4737186,305.427865 84.3859324,300.921911 106.692748,287.805824 L109,240 C109,240 38.6110687,261.360049 23.7381679,274.003164 C8.86526718,286.646279 42.2570338,340.493945 45.5429662,364.346 C45.5429662,364.346 38.2611778,371.974589 30.0869138,373.657964 C21.9126499,375.34134 18.9309706,366.93972 16.7099237,371.623674 C16.333018,372.521575 16.0936707,373.471479 16,374.441166 C16.2231189,381.210267 19.5496183,389.978059 29.2603599,386.006107 Z" id="Shape" fill="#E39B74"></path>
                    <path d="M109,243.712214 C108.559383,242.613369 108.025226,241.554213 107.403388,240.546364 C107.306158,240.449346 107.09123,240.260417 106.779072,240 C102.27069,241.393995 91.9745897,244.626225 80,248.716299 C80,248.935866 80,249.063521 80,249.063521 L101.958532,290 C103.616552,289.131944 105.274572,288.228145 106.907005,287.273284 L109,243.712214 Z" id="Shape" fill="#D87543"></path>
                    <path d="M45,360.471233 C45.2033742,361.523288 45.3762422,362.542466 45.5084354,363.506849 C45.5084354,363.506849 45.3355674,363.69863 45.0457592,364 L67,363.523288 C66.8627224,362.147945 66.7508667,360.942466 66.669517,360 L45,360.471233 Z" id="Shape" fill="#292D9B"></path>
                    <path d="M33,383.411514 C30.116972,380.564937 28.2312466,376.645598 27.6843467,372.363326 C27.1137205,372.304885 26.5495591,372.183191 26,372 C26.4526916,376.551489 28.2768076,380.788499 31.1662354,384 C31.7548512,383.790192 32.3570505,383.590618 33,383.411514 Z" id="Shape" fill="#292D9B"></path>
                    <path d="M45,381.776609 L37.1191067,370 C36.439206,370.38365 35.7295285,370.747875 35,371.087819 L42.3052109,382 C43.1918941,381.919061 44.0901572,381.844597 45,381.776609 Z" id="Shape" fill="#292D9B"></path>
                    <path d="M57,382.787928 L45.4568131,363 C45.4858526,363.212072 45.5197319,363.424144 45.5439315,363.630778 C45.5439315,363.630778 44.972822,364.294182 44,365.262099 L54.3428891,383 C55.2527923,382.931122 56.1384959,382.860431 57,382.787928 Z" id="Shape" fill="#292D9B"></path>
                    <path d="M60.6316337,382.700843 L67,367.775632 C66.8126951,366.035083 66.653486,364.408757 66.5317378,363 L58,383 C58.8990635,382.912973 59.7934443,382.815067 60.6316337,382.700843 Z" id="Shape" fill="#292D9B"></path>
                    <path d="M91,238 C91,238 100.197665,291.85064 107.979149,317.756561 L175,318 C175,318 170.025855,265.457842 147.762302,238.573095 L91,238 Z" id="Shape" fill="#2EB786"></path>
                    <path d="M112.013744,238 C112.013744,238 113.462481,256.729699 123,270 C123,270 113.293462,265.883583 110,242.100981 L112.013744,238 Z" id="Shape" fill="#009F74"></path>
                    <path d="M132.013744,230 C132.013744,230 133.462481,248.729699 143,262 C143,262 133.293462,257.883583 130,234.100981 L132.013744,230 Z" id="Shape" fill="#009F74"></path>
                    <path d="M114,231 C114,231 99.0358351,218.662 95.5224626,200 C95.5224626,200 90.9637001,213.665833 108.778439,231 L114,231 Z" id="Shape" fill="#009F74"></path>
                    <path d="M129,237 C129,237 114.035835,224.662 110.522463,206 C110.522463,206 105.9637,219.665833 123.778439,237 L129,237 Z" id="Shape" fill="#009F74"></path>
                    <rect id="Rectangle-path" fill="#F49000" x="85" y="226" width="65" height="15" rx="1.87"></rect>
                    <path d="M79.5110971,156.327833 C78.7505116,161.927551 78.2719975,167.144898 78,172 C98.6516606,160.549004 106.328034,134.009459 106.328034,134.009459 C107.000876,133.792135 107.660203,133.535092 108.302534,133.239686 C108.302534,129.692695 110,122 110,122 L105.058712,126.558261 C104.14198,126.784665 102.983472,127.14188 102.983472,127.14188 L100.454903,127.14188 L79.5110971,156.327833 Z" id="Shape" fill="#009F74"></path>
                    <path d="M102.376621,118 C102.376621,118 84.7933676,142.754083 51,158.443578 C51,158.443578 56.310819,167.763363 65.1352598,173 C65.1352598,173 96.6265994,147.914161 109,121.251206 L102.376621,118 Z" id="Shape" fill="#00BC81"></path>
                    <path d="M102.063121,119 C98.8226794,123.179521 83.8694431,141.241549 58,154.528389 C59.9127948,157.147358 63.4089313,161.253036 68.080281,164 C68.080281,164 96.4673357,141.886446 107,120.186413 L105.215053,119.319987 L102.063121,119 Z" id="Shape" fill="#009F74"></path>
                    <path d="M98.4774775,116 C98.4774775,116 84.5335335,136.360048 56,149.141199 C56,149.141199 60.5045045,156.734736 67.961962,161 C67.961962,161 95.5245245,141.313415 106,119.586921 L98.4774775,116 Z" id="Shape" fill="#00BC81"></path>
                    <circle id="Oval" fill="#FFA81D" cx="113" cy="232" r="12"></circle>
                    <circle id="Oval" fill="#292D9B" cx="112.5" cy="232.5" r="7.5"></circle>
                    <polygon id="Shape" fill="#EFA000" points="111.046784 228 110 233.176768 112.087719 233.176768 111.046784 237 116 231.60101 113.654971 231.60101 115.736842 228"></polygon>
                    <path d="M9.77164183,40 C7.18137347,36.0862929 5.54878546,31.6445607 5,27.0179401 L13.7934542,13.0034487 C21.9367067,12.8347841 24.8049354,18.881153 21.8895147,24.9019666 L19.3149255,33.5089701 L17.9253814,35.7373866 L9.77164183,40 Z" id="Shape" fill="#D87543"></path>
                    <path d="M6.66155189,3.12190731 C7.92577093,2.70085388 9.28504834,3.40553775 9.69758298,4.6958628 L13.8805591,17.7793678 C14.2930938,19.0696929 13.6026671,20.4570392 12.3384481,20.8780927 C11.0742291,21.2991461 9.71495166,20.5944622 9.30241702,19.3041372 L5.11944087,6.22063219 C4.70690624,4.93030713 5.39733286,3.54296075 6.66155189,3.12190731 Z" id="Rectangle-path" fill="#D87543"></path>
                    <path d="M10.6536369,0.12326116 C11.9140908,-0.300163036 13.2712486,0.402439451 13.6849336,1.69256774 L17.879574,14.7740776 C18.293259,16.0642059 17.6068171,17.4533146 16.3463631,17.8767388 C15.0859092,18.300163 13.7287514,17.5975605 13.3150664,16.3074323 L9.12042602,3.22592239 C8.70674103,1.93579411 9.39318291,0.546685356 10.6536369,0.12326116 Z" id="Rectangle-path" fill="#D87543"></path>
                    <path d="M24.3116051,32.2545236 C24.3116051,32.2545236 27.0660596,19.9260081 25.5386356,17.6022821 C24.0112117,15.2785561 15.6256542,20.4367171 12.8101028,20.314147 C9.99455131,20.1915768 10.4935098,24.057644 14.0982303,24.8339217 C17.7029508,25.6101994 18.7314163,23.1536891 18.7314163,23.1536891 C15.3478906,27.3001571 14.1943,32.8418597 15.6409285,38 L24.3116051,32.2545236 Z" id="Shape" fill="#E39B74"></path>
                    <rect id="Rectangle-path" fill="#D87543" transform="translate(5.500000, 28.500000) rotate(-18.170000) translate(-5.500000, -28.500000) " x="3" y="21" width="5" height="15" rx="2.5"></rect>
                    <rect id="Rectangle-path" fill="#D87543" transform="translate(9.500000, 24.500000) rotate(-18.170000) translate(-9.500000, -24.500000) " x="7" y="15" width="5" height="19" rx="2.5"></rect>
                    <path d="M135,97 C135,97 130.536231,101.398036 127.917487,102.50446 C125.298743,103.610884 128.859838,105.883664 131.428985,105.998916 C133.998132,106.114169 135,97 135,97 Z" id="Shape" fill="#E39B74"></path>
                    <path d="M130.124527,103.175418 C130.124527,103.175418 130.790473,103.810761 130.893343,103.855434 C130.996213,103.900107 131.25068,104.088724 131.407692,103.949743 C131.564704,103.810761 135.998934,96.7971683 135.998934,96.7971683 C135.998934,96.7971683 136.090976,94.340177 134.564171,93 C132.840506,96.2278195 131.316698,99.5421569 130,102.927237 L130.124527,103.175418 Z" id="Shape" fill="#E39B74"></path>
                </g>
            </g>
        </g>
    </g>
</svg>