<svg xmlns="http://www.w3.org/2000/svg" xmlns:xlink="http://www.w3.org/1999/xlink" width="659" height="448">
  <defs>
    <linearGradient id="c" x1="50%" x2="50%" y1="100%" y2="0%">
      <stop offset="0%" stop-color="#EAF5FF"/>
      <stop offset="100%" stop-color="#FFF"/>
    </linearGradient>
    <rect id="b" width="603.9" height="379" x=".8" y=".6" rx="10"/>
    <filter id="a" width="117.2%" height="127.4%" x="-8.6%" y="-8.4%" filterUnits="objectBoundingBox">
      <feMorphology in="SourceAlpha" operator="dilate" radius="4" result="shadowSpreadOuter1"/>
      <feOffset dy="20" in="shadowSpreadOuter1" result="shadowOffsetOuter1"/>
      <feGaussianBlur in="shadowOffsetOuter1" result="shadowBlurOuter1" stdDeviation="10"/>
      <feColorMatrix in="shadowBlurOuter1" values="0 0 0 0 0 0 0 0 0 0 0 0 0 0 0 0 0 0 0.08 0"/>
    </filter>
    <linearGradient id="d" x1="0%" y1="50%" y2="50%">
      <stop offset="0%" stop-color="#814A2A"/>
      <stop offset="29%" stop-color="#7E482A"/>
      <stop offset="49%" stop-color="#75432A"/>
      <stop offset="66%" stop-color="#663B2A"/>
      <stop offset="82%" stop-color="#502F29"/>
      <stop offset="97%" stop-color="#341F29"/>
      <stop offset="100%" stop-color="#2C1B29"/>
    </linearGradient>
    <linearGradient id="e" x1="50%" x2="50%" y1="100%" y2=".2%">
      <stop offset="0%" stop-color="#814A2A"/>
      <stop offset="7%" stop-color="#673C2A"/>
      <stop offset="15%" stop-color="#513029"/>
      <stop offset="25%" stop-color="#402629"/>
      <stop offset="37%" stop-color="#352029"/>
      <stop offset="54%" stop-color="#2E1C29"/>
      <stop offset="100%" stop-color="#2C1B29"/>
    </linearGradient>
    <linearGradient id="f" x1="50%" x2="50%" y1="100%" y2="0%">
      <stop offset="0%" stop-color="#076FD1"/>
      <stop offset="100%" stop-color="#033CA5"/>
    </linearGradient>
  </defs>
  <g fill="none" fill-rule="evenodd" transform="translate(23 7)">
    <g transform="translate(4)">
      <use fill="#000" filter="url(#a)" xlink:href="#b"/>
      <use fill="url(#c)" xlink:href="#b"/>
    </g>
    <path stroke="#8FC0E8" stroke-width="2" d="M64 64.7v292.7" opacity=".3"/>
    <path stroke="#8FC0E8" d="M117.8 160.4h465m-465-26.4h465m-465 54.3h465m-465-108.7h465m-465 135.9h465m-465 27.2h465m-465 27.2h465m-465 27.1h465m-465 27.3h465m-465 27.2h465m-465 27.1h465" opacity=".3"/>
    <path fill="#5CD065" fill-rule="nonzero" d="M268 227.9h119.7c.8 0 1.5.7 1.5 1.5V288c0 .8-.7 1.5-1.5 1.5H269.4c-.8 0-1.4-.7-1.4-1.5v-60.2.1z" opacity=".8"/>
    <g fill-rule="nonzero" opacity=".5" transform="translate(275.1 241.5)">
      <path fill="#43BB4C" d="M.4.9h99.8v5.9H.4V.9zm0 12.4h99.8v5.5H.4v-5.5z"/>
      <circle cx="96.7" cy="29.9" r="3.6" fill="#6F737D"/>
      <circle cx="85.9" cy="29.9" r="3.6" fill="#43BB4C"/>
      <circle cx="75.1" cy="29.9" r="3.6" fill="#43BB4C"/>
      <circle cx="64.4" cy="29.9" r="3.6" fill="#43BB4C"/>
    </g>
    <path fill="#FCC85D" fill-rule="nonzero" d="M404.1 178.7H524c.8 0 1.4.6 1.4 1.4v58c0 .7-.6 1.3-1.4 1.3H405.5c-.8 0-1.4-.6-1.4-1.4v-59.3z" opacity=".8"/>
    <g fill="#E3AB39" fill-rule="nonzero" opacity=".5" transform="translate(413.7 189.7)">
      <circle cx="53.3" cy="40.1" r="3.6" opacity=".8"/>
      <path d="M.3.6h99.8v5.9H.3V.6zm0 12.2h99.8v5.9H.3v-5.9zm0 12.1h49.9v5.9H.3v-5.9z" opacity=".8"/>
      <circle cx="96.5" cy="40.1" r="3.6" opacity=".8"/>
      <circle cx="85.7" cy="40.1" r="3.6" opacity=".8"/>
      <circle cx="75" cy="40.1" r="3.6" opacity=".8"/>
      <circle cx="64.1" cy="40.1" r="3.6" opacity=".8"/>
    </g>
    <rect width="141" height="13" y="428" fill="#FFF" fill-opacity=".1" fill-rule="nonzero" rx="6.5"/>
    <path fill="#E59E74" fill-rule="nonzero" d="M103.8 420l-16.7-.8c.6-2.6 1.5-5.5 1.5-5.5h13.8l1.4 6.3z"/>
    <path fill="#6D5A4C" fill-rule="nonzero" d="M132.5 437.5h-32.3l-14.8-4c0-3.7.4-7.3 1-10.9l18 .5v1c15.9 0 28.1 13.4 28.1 13.4z"/>
    <path fill="#504944" fill-rule="nonzero" d="M10.8 430.2v3.5l6.2 2.2 4.3-1.7-4.3-3.4c-1.7545166-1.436977-4.2024974-1.673878-6.2-.6z"/>
    <path fill="#6D5A4C" fill-rule="nonzero" d="M58.8 439.2l-13.1.2H34.3c-3.8-.5-15.4-6.7-21-8.6-.8-.3-1.7-.5-2.5-.6.3-3 2-7 3.8-10.8l19.7 4c.3 1.6.8 3 1.5 4.3 12.2-.5 23 11.5 23 11.5z"/>
    <path fill="#E59E74" fill-rule="nonzero" d="M33.9 420.4l-17-5.5c2.3-4.2 4.4-7.3 4.4-7.3l12.6 6c-.2 2.2-.2 4.5 0 6.8z"/>
    <path fill="#464EA1" fill-rule="nonzero" d="M87 354.2c-.2 1-.6 1.8-1.1 2.6l-7.7 9.2c-14.6 17.7-39 51.3-39 51.3L15.9 410s33.6-49.3 48-66.3c0 0-6.7-44.2-2.8-59.8 0 0 26.8-4.5 28.4 11.1l1 9 .5 3.7c2.4829714 15.587186 1.1446444 31.544162-3.9 46.5H87z"/>
    <path fill="#373F99" fill-rule="nonzero" d="M87 354.2c-.2 1-.6 1.8-1.1 2.6l-7.7 9.2 2.6-14.7-6.4-49h12.7l3.3 1.8.5 3.6c2.5072262 15.586276 1.1684086 31.5491-3.9 46.5z"/>
    <path fill="#464EA1" fill-rule="nonzero" d="M120 352.5c0 7-14.5 62.7-14.5 62.7H83.2c2.8-18 8.8-45.9 11.6-60.6-1-1.4-7.9-20.5-17.7-41.7-7.8-16.8 1.5-20.7 7.5-22 3.6-.2 7-.5 10-1 8.5-1 14.2-2.4 14.2-2.4 6.8 37.8 11.1 58 11.1 65h.1z"/>
    <path fill="#FC847D" fill-rule="nonzero" d="M134.3 134h120.4c.5 0 .9.3.9.8V187c.00181.230693-.096057.450937-.268484.604205-.172427.153269-.402627.22464-.631516.195795H135.1c-.441828 0-.8-.358172-.8-.8v-53z" opacity=".8"/>
    <g fill="#E85A52" fill-rule="nonzero" opacity=".5" transform="translate(142.5 145.7)">
      <path d="M.5.7h99.8v5.9H.5z"/>
      <circle cx="96.8" cy="27.9" r="3.6"/>
      <circle cx="86" cy="27.9" r="3.6"/>
      <circle cx="75.3" cy="27.9" r="3.6"/>
      <circle cx="64.5" cy="27.9" r="3.6"/>
      <circle cx="53.7" cy="27.9" r="3.6"/>
      <circle cx="42.9" cy="27.9" r="3.6"/>
      <circle cx="32.2" cy="27.9" r="3.6"/>
    </g>
    <path fill="#E59E74" fill-rule="nonzero" d="M136.5 152.4l7.2-18.4c.505581-1.373482 1.610174-2.441255 3-2.9l7.8-2.8c1.3-.4 2.7-.2 3.9.5l4.3 2.6c.347593.598685.360866 1.33455.035089 1.945381-.325776.610831-.944269 1.009754-1.635089 1.054619l-4.3.4c-1.412881.206421-2.420768 1.477236-2.3 2.9-.002066.752123.309684 1.47102.86016 1.983532.550476.512512 1.289781.772184 2.03984.716468.792769-.594068 1.800157-.824353 2.772301-.633736.972145.190616 1.817975.784277 2.327699 1.633736l-5.4 3.7-11.9 6-8.7 1.3z"/>
    <path fill="#FFF" fill-rule="nonzero" d="M135.7 152.3l1.3-3.3c4-.9 7.2 0 8.9 2-.1 1.3-.3 2.7-.6 4l-9.6-2.7z"/>
    <path fill="#52BF9D" fill-rule="nonzero" d="M88.6 214.4s30.5.2 52-26.6c2.7-18.4 4.9-31.5 5.3-34.3-3.4-2.7-9-3.7-10.6-2.4-.9 2-8 15.7-12.6 22.8-7.2 9-30.2 14.2-35.6 21.8-11.5 16.2 1.5 18.7 1.5 18.7z"/>
    <path fill="#2E3892" fill-rule="nonzero" d="M91.6 193.5s-9.3 3.2-10.8 1.5c-1.5-1.8.7-4.8-1-8.4-1.5-3.6-8-18.6 3-23.2 4-9.5 8.6-8.8 14.4-6.5 5.7 2.3 5.4-3.2 9.6-1.5 4.2 1.8 6 3.6 6 8.6.2 5 2.4 12.6-9 10.2-11.4-2.3-7.6 9.6-12.2 19.3z"/>
    <path fill="#E59E74" fill-rule="nonzero" d="M98.9 198.6v9.8c-1.4 5-11.4 9.3-15.6-7.2 2.2-8.7 8.4-7.2 8.2-12.5.0214863-.152282-.0462356-.303397-.1741968-.388705-.1279613-.085307-.2934992-.089698-.4258032-.011295-.6078818.219156-1.2598092.28778-1.9.2-2.5 0-2.3-16.4 5.3-9.7 3.9-2.7-7-9.7-1-9.7 6.2.1 9.7-1.3 14.1 3.1 7 7.8 5.5 33.9-8.5 26.4z"/>
    <path fill="#D97543" fill-rule="nonzero" d="M98.9 198.6l-3.3-3.1.7 7.2 2.6 3z"/>
    <path fill="#373F99" fill-rule="nonzero" d="M104 284.6c1.3 3.4-2 16-7.7 20 4-3.7 8.3-17.3 7.7-20z"/>
    <path fill="#52BF9D" fill-rule="nonzero" d="M111.4 288.5c-8.4 10.3-48 8.7-51-6.4 10.3-33.4-1.7-49.3 13.7-72.9 9-13.7 14-10.5 17.2-10.1 20 8.2 20.9 21.4 19 37.7-1 9.5-3 20-2.7 31.2.172534 6.991506 1.455201 13.911158 3.8 20.5z"/>
    <path fill="#E59E74" fill-rule="nonzero" d="M151 197.6l5.5-9.2s.2-6 4.8-8.5c4.5-2.6 7.2-.4 7.2-.4l-.1.2c-.5 1.2-1.5 2-2.7 2.4-1.364379.300279-2.247581 1.625081-2 3 .5 3.4 7.3 2.5 7.3 2.5l6.9-4c1.6-.9 3.7-.5 4.9 1l-4 3.3h2.7c1.6 0 2.8 1.2 2.9 2.8l-18.7 4.1-5 7.9-9.8-5 .1-.1z"/>
    <path fill="#FFF" fill-rule="nonzero" d="M153.3 193.3c4.1-1.2 9.9.2 10.6 4.7l-2.2 4.2-10.3-6 1.9-2.9z"/>
    <path fill="#3AB78C" fill-rule="nonzero" d="M107.6 268c-4.608687-15.193109-10.3928186-30.004497-17.3-44.3l19.1 12 1 1c-1 9.5-3 20-2.8 31.3z"/>
    <path fill="#52BF9D" fill-rule="nonzero" d="M82.7 207c7.3-17.6 25.2 13 50 15.2 13.4-19.7 13.1-18.5 18.2-25.9 0 0 11-4.2 11.8 6.2-1.4 6.3-10.2 27.1-16 41.4-34.7 14.3-69.7-22.5-64-37v.1z"/>
    <path fill="#FFF" fill-rule="nonzero" d="M82 200l2.6-3.3s15.8 2.6 18.4 9.8c1 3 .6 3.3.6 3.3s-11.1-7-21.6-9.8zM34.3 423.5l-19.7-4.1 2.4-4.5 17 5.5c0 1 .1 2.1.3 3.1z"/>
    <path fill="#504944" fill-rule="nonzero" d="M35.8 427.7h-2.4l-1.5-5.2c.1163118-.502233.4674911-.917655.9433607-1.115934.4758697-.198279 1.018124-.155121 1.4566393.115934 2 .8 2 2 2 2l.3 4.2h-.8z"/>
    <path fill="#FFF" fill-rule="nonzero" d="M104.4 423.2l-18-.5c.3-1.8.3-2.1.7-3.5l16.7.9.6 3v.1z"/>
    <path fill="#504944" fill-rule="nonzero" d="M85.4 433.5l-.2 4H92l2.4-1.6-9-2.4zm20.9-9.2H104l-1.5-4.3s.6-1 2.5-.4c2 .6 1.9 1.2 1.9 1.2l.3 3.5h-.9z"/>
    <path fill="#369C78" fill-rule="nonzero" d="M155.6 201.5c3 .3 6.1 5.3 6.1 5.3l-1.5 4.7c-1.139802-3.27177-3.557212-5.941745-6.7-7.4l2-2.6h.1z"/>
    <rect width="141" height="13" x="328" y="428" fill="#FFF" fill-opacity=".1" fill-rule="nonzero" rx="6.5"/>
    <path fill="#369C78" fill-rule="nonzero" d="M145.6 162.4l-2.5 1v-3.3l2-1 .1-1.4 1 .7z"/>
    <path fill="#112D4B" fill-rule="nonzero" d="M432 373l-52.1-21s-22-10.2-19.2 8.7c2.7 18.9 10 53.8 10 53.8h20.2l-4.6-32.3s14 14.7 22.3 12.8c8.3-2 23.6-22.2 23.6-22.2l-.2.2z"/>
    <path fill="#2C1C2A" fill-rule="nonzero" d="M368.9 405l.8 4.3s-24.2 4.5-26.1 10.2c14.7-.3 39 0 39 0 .6-1.6.6-3.3 0-5-.8-2.2-1.6-10.2-1.6-10.2l-12.1.7zm99.5 22.5s-5 .2-12.8-3.8l-1.2-.6c-8.5-4.6-25.6-3.4-25.6-3.4l5.2-10.4 6-1s1.3-3.5 3.3-3.3c8.736757 7.076604 17.113901 14.585995 25.1 22.5z"/>
    <path fill="#E49C74" fill-rule="nonzero" d="M455.6 423.7l-1.2-.6c-8.5-4.6-25.6-3.4-25.6-3.4l5.2-10.4 6-1s1.5.4 4.4 3.2c3.3 3.3 11.8 9.9 11.2 12.2z"/>
    <path fill="#1F417C" fill-rule="nonzero" d="M440.4 396.6l-11.2 24.1h-68.6l23.1-24.1z"/>
    <path fill="#112D4B" fill-rule="nonzero" d="M436.6 396.6c-17 14.3-53.6 11.7-53.6 11.7l13.8-11.7h39.8z"/>
    <path fill="#1F417C" fill-rule="nonzero" d="M437.6 374.8s3.5 20.6-25.9 28.7c-17.391386 4.71711-34.488009 10.460507-51.2 17.2 0 0-12.8-10.1 3.7-23 12.586921-9.399853 25.672672-18.112559 39.2-26.1l33.3-2.1 1 5.3h-.1z"/>
    <path fill="#EB5D24" fill-rule="nonzero" d="M414.5 307.1l-17.7 14-22.2-19c-6.304852-5.358817-10.895165-12.452937-13.2-20.4l-9-31 16.8-6.6 12.3 29.7 1.3 3 19.8 19 11.9 11.3z"/>
    <path fill="#112D4B" fill-rule="nonzero" d="M396.8 267.8s-6-5.6-11.7-2.4c-5.7 3.2-5.5 12.3 0 17.2 5.5 4.9 2.5 12.5-1.6 19-4.2 6.4-2.4 15 3.2 16.7 5.5 1.6 19-3.8 17.2-16.3-1.9-12.5-7.1-34.2-7.1-34.2z"/>
    <path fill="#E49C74" fill-rule="nonzero" d="M401.5 269.2s-9.5-4-14.8 0c-5.3 4.1-3.9 9.4-6.8 10-2.9.7-4.9 20.5 8.7 17.5l3.6 8.5 11-5.3-2-7.2s16-11.2.3-23.5z"/>
    <path fill="#ECAE22" fill-rule="nonzero" d="M390 305.8l14.1-7.5 2.4 5-16.5 12.6z"/>
    <path fill="#EB5D24" fill-rule="nonzero" d="M413.3 300.6s-27.5 6.4-26.6 14.2c1 7.8 4.7 64.2 4.7 64.2 15 16 50.8-6.8 50.8-6.8s0-9.2-12-24.8c-12.9-17-16.9-46.8-16.9-46.8z"/>
    <path fill="#DE2726" fill-rule="nonzero" d="M387.6 326.7l11.4 2-10.2 14z"/>
    <path fill="#EB5D24" fill-rule="nonzero" d="M400.5 330.2s-23.7 7.8-39 16.3C346 355 342 335 342 335l-4-29.8 17.8-6 4.8 20.9 36.2-14.2 3.7 24.3z"/>
    <path fill="#112D4B" fill-rule="nonzero" d="M393.1 265s26.2-6 22.3 21.3c18.6 15.2 27.6 30.6 9 43.2-18.6 12.6-13.9-11.6-21.6-17.2-7.7-5.7-7.1-15.8-4.3-17.7 2.7-2 7.5-10.6.4-9.9-7.1.7-11.8-13.1-11.2-16.1.7-3 5.4-3.6 5.4-3.6z"/>
    <path fill="#E49C74" fill-rule="nonzero" d="M348.8 298.4l-7.3 3s-1.6-4-2.6-6c-1-1.8-6.5-3.5-6.5-3.5-2.258175-1.004398-4.600598-1.807514-7-2.4 1-1.6 4.2-1.2 4.2-1.2-1.355144-.671731-2.759148-1.240018-4.2-1.7 3.4-1.3 7.8.6 12.8 2l4.7 1.2.4.1c2 .4 2.8-1.4 2.2-4-.4-1.2-.1-2.6.9-3.6l1.7 4.3c1 2.4 1.2 5.2.4 6.7-.9 1.5.3 5.1.3 5.1z"/>
    <path fill="#ECAE22" fill-rule="nonzero" d="M339.4 304.7l-.7-3.5L353 296l1 3.8-14.6 4.9zm15.6-54.9l12-4.8-1.7-4.2-12 5 1.7 4z"/>
    <rect width="141" height="13" x="480" y="428" fill="#FFF" fill-opacity=".1" fill-rule="nonzero" rx="6.5"/>
    <path fill="#E49C74" fill-rule="nonzero" d="M362.7 242.5l-2-7.5c-1.03317-3.192558-2.938181-6.032756-5.5-8.2-2.1-1.5-2.6-.6-2.6-.6s-2.3-1.6-3 0c-1.5-1-2.6-.5-3 .2-.3.7-2-.4-2.8 1.7l-.3.8h2.7s6 5 3.8 5.7c-2.3.7-4.4-1.8-7.2-1.2 2.3 3.5 10.8 8 11.6 10l1 2.5 7.3-3.4z"/>
    <path fill="url(#d)" fill-rule="nonzero" d="M540.5 207.4s-19.1-21.9-29-24.3c-10-2.5-33.7-3.5-33.7-3.5l-2.7-7.3 32.2-6.5c17.2-2 48.4 29 48.4 29l-15.2 12.6z"/>
    <path fill="#363F99" fill-rule="nonzero" d="M521.5 436l-.3-1.8-12.6 1.8h-18.4c1.5-15.4 17.2-9 23-15.7l11.3 1.7 7.5-1.7 1.3 15.7h-11.8z"/>
    <path fill="#B7CBE9" fill-rule="nonzero" d="M598.8 399.8l-21 11c-2-5.2-16.7-36.8-25.2-55.2l-6.2-13.1-3.8-42.2 18.7-21.3 9.5-10.8 4.4 74.1 23.6 57.5z"/>
    <path fill="#8DAFDC" fill-rule="nonzero" d="M565.7 278.1l-13.1 77.5-6.2-13-3.8-42.3 18.7-21.3z"/>
    <path fill="#B7CBE9" fill-rule="nonzero" d="M535.1 273l-25.2 62v74.4l24-2.3c1.5-10.6 2.7-70 2.7-70l28.9-49.3c8.7-16.5 1.5-24.7 1.5-24.7l-31.9 9.8v.1z"/>
    <path fill="#464EA1" fill-rule="nonzero" d="M528.6 206.9l26-19.3s14.7 16.7 10.3 40.6c0 11.9 8.5 33.8 6 40-2.7 6.2-28.9 15-38.2 6.4l-4-67.7h-.1z"/>
    <path fill="#2E3892" fill-rule="nonzero" d="M532.4 268.2l11-31.8-12.7 4.5z"/>
    <path fill="#814A2A" fill-rule="nonzero" d="M511.4 249.3L478.6 238l-3.5 6.5 29 22.2c15.2 8.8 22.5-2.7 22.5-2.7l13.9-24-21.2-5.6"/>
    <path fill="#363F99" fill-rule="nonzero" d="M514.5 239.3l17.3 19.8s17.1-21.8 11.7-37.8c-5.4-16-12.8-16.5-15-14.4-2 2-14 32.4-14 32.4zm19.5-36.4l-.7-6.3L550 183l3.6 5.2-19.6 14.7z"/>
    <path fill="#814A2A" fill-rule="nonzero" d="M535.5 194.8l-1.5-7.2c-12.5 2.2-19.5-9.2-12.5-33.6 4.3-14.7 18.7-10.6 26.4-2.8 7.7 7.9-.8 26.2-.8 26.2l2.3 6-13.9 11.4z"/>
    <path fill="url(#e)" fill-rule="nonzero" d="M521.5 154s13-2.8 15.1.5c2.1 3.3-6 7.7-2.6 11.2 3-2.6 7.8-2 5.7 5.1H550s9.8-17.4-4.3-23c-15.2-6-18.8-5.1-21.8.4l-2.4 5.8z"/>
    <path fill="#814A2A" fill-rule="nonzero" d="M478.6 238s-3.5-5.7-7.4-7.2c-2.5-1-5.1-1.7-7.8-2 0 0-.3 2.9 1.7 3.7 2 1 3.8 3.1 2.1 5-1.7 2-5.6 2-5.6 2h-13.5s.2 3.5 9 3.5c-2.388022.45778-4.730588 1.127085-7 2 0 0 1.2 2.8 5.9 2.5 3-.2 13.4-2.1 13.4-2.1l5.7-.8 3.5-6.7v.1zm-10.2-59.3c3.7 0 3.1 2.7 1 3.8-2.1 1-3.5 2.1-2 4.7 3.1-1.3 9-2.3 10-5.8.3-.9.4-1.8.4-2.7l-2.6-6.3-22.9-3.5c.5 2 1.9 3.8 3.8 4.6l3.1 1.2-9.1.1s-.6 3.9 4.4 3.9h14-.1zm63.4 239h-17.6l1.3-8.7 15.8-1.6.5 10.3z"/>
    <path fill="#C1C7CD" fill-rule="nonzero" d="M514.2 417.7l-1 2.6 11.3 1.7 7.5-1.7-.2-2.6z"/>
    <path fill="#363F99" fill-rule="nonzero" d="M597.7 431l-1-1.4-11 6.5-23.6.6c1.3-14.2 19.5-9.8 22.3-18.3l11-2.8 6.3-4.4 7 15.3-11 4.6v-.1z"/>
    <path fill="#814A2A" fill-rule="nonzero" d="M600.5 408.8l-16.2 6.8-2.6-7 14-7.6z"/>
    <path fill="#C1C7CD" fill-rule="nonzero" d="M584.3 415.6l.1 2.8 11-2.8 6.3-4.4-1.2-2.4z"/>
    <path fill="#8DAFDC" fill-rule="nonzero" d="M522.4 397.7h-1.7v-61.6l23.1-46.3 1.6.8-23 46v61.1zm55.8-9.7l-25-53.7v-.2l-3-20.6 1.8-.3 3 20.6 24.7 53.6-1.5.6z"/>
    <path fill="#503024" fill-rule="nonzero" d="M534 187.6l3.6-1-2.1 8z"/>
    <path fill="#D97543" fill-rule="nonzero" d="M388.6 296.7l3-1 .3 8.6z"/>
    <g fill="#9CC4E9" fill-rule="nonzero" opacity=".5" transform="translate(17.9 55)">
      <circle cx="1.6" cy="5.4" r="1.1"/>
      <path d="M4.7 7.7H3c-.55228474 2e-8-.99999997.44771526-.99999997 1 0 .55228474.44771523.99999998.99999997 1h1.6c.55228475 0 1-.44771525 1-1s-.44771525-1-1-1h.1zM20.2 6v1.4l-.2.2V8h.2l.3.1.5.3.2.2.2.2h.2l.1-.1.7-.3.6-.4c1.5-.9 3-2 4-3.5-1.6488531-1.47884138-3.7851223-2.29774455-6-2.3h-1.7c.6877236 1.03496649 1.0371415 2.25792918 1 3.5V6h-.1zm11.1 3.7l-.1-.4-.1-.5c-.3569218-1.53931645-.9292282-3.02058014-1.7-4.4 0-.2-.2-.3-.4-.3l-.2.3c-.3.6-.8 1.1-1.3 1.6-1.1410066 1.27662862-2.5379572 2.29878756-4.1 3l-.6.3-.7.2-.4.2v1.5l-.4.7v.2l.7.1.8.1h1.7c.8 0 1.7 0 2.5-.2l.7-.2c1.0540623-.2487401 2.0651686-.6531826 3-1.2.2 0 .3-.2.4-.3V10l.2-.4v.1z"/>
      <path d="M23.3 16.3l.2-.3-.3-.6-.4-.6-.3-.3-.9-1.2-.7-1c-.5542775.4811809-1.2982715.6822663-2.0194797.5458215C18.159312 12.7093767 17.5401936 12.2504051 17.2 11.6h.1c.6420505.627209 1.623315.749867 2.4.3l.4-.2c.3-.2.5-.6.6-1l.2-.6c.0112744-.99728675-.7139239-1.85046116-1.7-2V5.6l-.1-.2L19 5l-.3-.4v-.1l-.2-.4-.1-.2-.3-.4-.4-.5-.4-.5c-1.1041498-.97380893-2.5277936-1.50767535-4-1.5H2.4c-.49130503-.14644424-1.02138027.03540055-1.31932453.45260047-.29794427.41719992-.29794427.97759914 0 1.39479906C1.37861973 3.26459945 1.90869497 3.44644424 2.4 3.3h8.8c.3313708 0 .6.26862915.6.6s-.2686292.6-.6.6H5.9c-.60751322 0-1.1.49248678-1.1 1.1 0 .60751322.49248678 1.1 1.1 1.1h7c.3313708 0 .6.26862915.6.6s-.2686292.6-.6.6H8.7c-.57989899 0-1.05.47010101-1.05 1.05S8.12010101 10 8.7 10h6c.3313708 0 .6.2686292.6.6 0 .3313708-.2686292.6-.6.6H10c.3 1.8.2 3.8-.4 5.5L9 18.2l-.6 1c-.2.3-.3.6-.2 1l.4.4c.3.1 1 0 1.3-.2 2.1581504-.7084052 3.9069568-2.3114778 4.8-4.4l.6-1.6c0-.3.2-.6.4-.9 0 0 .3-.3.5-.1.1.2 0 .3 0 .4l-.4 1.9c-.1 4 2.3 7.7 7.4 8.4l.2-.2v-.1c-1.8475942-2.0826205-1.8475942-5.2173795 0-7.3v-.2h-.1z"/>
    </g>
    <rect width="36.2" height="10.3" x="81.7" y="100.6" fill="#FF001F" fill-opacity=".7" fill-rule="nonzero" rx="5.1"/>
    <path stroke="#FD4B62" d="M118 105.7h464.5"/>
    <path fill="#B7CBE9" fill-rule="nonzero" d="M141 79.6h108.1c3.645079 0 6.6 2.9549207 6.6 6.6v19.5H134.4V86.2c0-3.6450793 2.954921-6.6 6.6-6.6z" opacity=".5"/>
    <circle cx="33.7" cy="119.5" r="10.4" fill="#9CC4E9" fill-rule="nonzero" opacity=".3"/>
    <circle cx="33.7" cy="188.3" r="10.4" fill="#9CC4E9" fill-rule="nonzero" opacity=".3"/>
    <circle cx="33.7" cy="257.1" r="10.4" fill="#9CC4E9" fill-rule="nonzero" opacity=".3"/>
    <g fill-rule="nonzero" transform="translate(5)">
      <path fill="url(#f)" fill-opacity=".1" d="M9.96498316 0H593.83165C599.447475 0 604 4.4771525 604 10v19H0V10C0 4.4771525 4.55252544 0 10.1683502 0h-.20336704z"/>
      <circle cx="14.5" cy="15.5" r="4.5" fill="#FE665D"/>
      <circle cx="34.5" cy="15.5" r="4.5" fill="#FFBC34"/>
      <circle cx="53.5" cy="15.5" r="4.5" fill="#38C73E"/>
    </g>
  </g>
</svg>
