<?xml version="1.0" encoding="UTF-8"?>
<svg width="967px" height="623px" viewBox="0 0 967 623" version="1.1" xmlns="http://www.w3.org/2000/svg" xmlns:xlink="http://www.w3.org/1999/xlink">
    <!-- Generator: Sketch 53 (72520) - https://sketchapp.com -->
    <title>player video ilustration landing</title>
    <desc>Created with Sketch.</desc>
    <defs>
        <rect id="path-1" x="0" y="0" width="160" height="160" rx="4"></rect>
    </defs>
    <g id="ilustration-landing-page" stroke="none" stroke-width="1" fill="none" fill-rule="evenodd">
        <g id="ilustration-video-player" transform="translate(-29.000000, -31.000000)">
            <g id="player-video-ilustration-landing" transform="translate(29.000000, 31.000000)">
                <g>
                    <g id="Bottombar">
                        <rect id="Rectangle" fill="#42464D" x="0" y="0" width="967" height="623" rx="8"></rect>
                        <g id="btn-record" transform="translate(871.000000, 539.000000)">
                            <ellipse id="Oval" fill="#E34646" cx="35" cy="34.5" rx="35" ry="34.5"></ellipse>
                            <rect id="Rectangle" fill="#FFFFFF" x="24" y="24" width="22" height="21" rx="2"></rect>
                        </g>
                    </g>
                    <g id="Code-editor-screen">
                        <path d="M8,0 L959,0 C963.418278,-8.11624501e-16 967,3.581722 967,8 L967,524 L0,524 L0,8 C-5.41083001e-16,3.581722 3.581722,8.11624501e-16 8,0 Z" id="background" fill="#2E3135"></path>
                        <g id="code-lines" transform="translate(46.000000, 46.000000)">
                            <rect id="Rectangle" fill="#7289DA" x="1" y="0" width="99" height="10" rx="2"></rect>
                            <rect id="Rectangle" fill="#A7A8AA" x="108" y="0" width="139" height="10" rx="2"></rect>
                            <rect id="Rectangle" fill="#A7A8AA" x="108" y="32" width="107" height="10" rx="2"></rect>
                            <rect id="Rectangle" fill="#A7A8AA" x="108" y="114" width="81" height="10" rx="2"></rect>
                            <rect id="Rectangle" fill="#A7A8AA" x="108" y="64" width="190" height="10" rx="2"></rect>
                            <rect id="Rectangle" fill="#43B581" x="31" y="140" width="271" height="10" rx="2"></rect>
                            <rect id="Rectangle" fill="#43B581" x="31" y="166" width="216" height="10" rx="2"></rect>
                            <rect id="Rectangle" fill="#43B581" x="0" y="422" width="50" height="10" rx="2"></rect>
                            <rect id="Rectangle" fill="#43B581" x="58" y="422" width="600" height="10" rx="2"></rect>
                            <rect id="Rectangle" fill="#43B581" x="223" y="294" width="216" height="10" rx="2"></rect>
                            <rect id="Rectangle" fill="#7289DA" x="1" y="32" width="99" height="10" rx="2"></rect>
                            <rect id="Rectangle" fill="#7289DA" x="1" y="64" width="99" height="10" rx="2"></rect>
                            <rect id="Rectangle" fill="#7289DA" x="1" y="114" width="99" height="10" rx="2"></rect>
                            <rect id="Rectangle" fill="#7289DA" x="197" y="114" width="18" height="10" rx="2"></rect>
                            <rect id="Rectangle" fill="#A7A8AA" x="108" y="242" width="171" height="10" rx="2"></rect>
                            <rect id="Rectangle" fill="#A7A8AA" x="134" y="268" width="191" height="10" rx="2"></rect>
                            <rect id="Rectangle" fill="#A7A8AA" x="165" y="294" width="50" height="10" rx="2"></rect>
                            <rect id="Rectangle" fill="#E34646" x="30" y="268" width="96" height="10" rx="2"></rect>
                            <rect id="Rectangle" fill="#E34646" x="61" y="294" width="96" height="10" rx="2"></rect>
                            <rect id="Rectangle" fill="#43B581" x="617" y="320" width="50" height="10" rx="2"></rect>
                            <rect id="Rectangle" fill="#A7A8AA" x="109" y="320" width="500" height="10" rx="2"></rect>
                            <rect id="Rectangle" fill="#E34646" x="61" y="320" width="40" height="10" rx="2"></rect>
                            <rect id="Rectangle" fill="#E34646" x="30" y="346" width="40" height="10" rx="2"></rect>
                            <rect id="Rectangle" fill="#7289DA" x="1" y="242" width="99" height="10" rx="2"></rect>
                            <rect id="Rectangle" fill="#7289DA" x="287" y="242" width="18" height="10" rx="2"></rect>
                            <rect id="Rectangle" fill="#7289DA" x="1" y="372" width="18" height="10" rx="2"></rect>
                            <rect id="Rectangle" fill="#7289DA" x="1" y="192" width="18" height="10" rx="2"></rect>
                        </g>
                    </g>
                    <g id="face" transform="translate(781.000000, 338.000000)">
                        <mask id="mask-2" fill="white">
                            <use xlink:href="#path-1"></use>
                        </mask>
                        <use id="Mask" fill="#42464D" xlink:href="#path-1"></use>
                        <g id="Jean" mask="url(#mask-2)">
                            <g transform="translate(19.000000, 20.000000)">
                                <path d="M61.5,151 L61.5,151 C53.5244723,151 47,144.459085 47,136.463457 L47,116.536543 C47,108.540915 53.5244723,102 61.5,102 C69.4755277,102 76,108.540915 76,116.536543 L76,136.463457 C76,144.459085 69.4755277,151 61.5,151" id="Fill-1011" fill="#925D37"></path>
                                <path d="M123,75.5 C123,81.8503854 117.850385,87 111.5,87 C105.146928,87 100,81.8503854 100,75.5 C100,69.1469283 105.146928,64 111.5,64 C117.850385,64 123,69.1469283 123,75.5" id="Fill-1012" fill="#F2A775"></path>
                                <path d="M23,75.5 C23,81.8503854 17.8530717,87 11.5,87 C5.14961458,87 0,81.8503854 0,75.5 C0,69.1469283 5.14961458,64 11.5,64 C17.8530717,64 23,69.1469283 23,75.5" id="Fill-1013" fill="#F2A775"></path>
                                <path d="M62,125 L62,125 C34.5014689,125 12,102.262575 12,74.4756875 L12,48.8559397 C12,21.0690522 34.5014689,9 62,9 C89.4985311,9 112,21.0690522 112,48.8559397 L112,74.4756875 C112,102.262575 89.4985311,125 62,125" id="Fill-1014" fill="#A27555"></path>
                                <path d="M123,75.5 C123,81.8503854 117.850385,87 111.5,87 C105.146928,87 100,81.8503854 100,75.5 C100,69.1469283 105.146928,64 111.5,64 C117.850385,64 123,69.1469283 123,75.5" id="Fill-1017" fill="#A27555"></path>
                                <path d="M23,75.5 C23,81.8503854 17.8530717,87 11.5,87 C5.14961458,87 0,81.8503854 0,75.5 C0,69.1469283 5.14961458,64 11.5,64 C17.8530717,64 23,69.1469283 23,75.5" id="Fill-1018" fill="#A27555"></path>
                                <path d="M11.9617935,73 C11.9617935,73 17.6785128,65.9787343 21.5674376,51.7177043 C25.4563623,37.4566744 20.1952027,21 20.1952027,21 C20.1952027,21 14.4784834,22.2124007 11.2728983,35.921855 C5.78395881,59.3971304 11.9617935,73 11.9617935,73" id="Fill-1022" fill="#4F2E1A"></path>
                                <path d="M112.039903,73 C112.039903,73 106.322305,65.9787343 102.432783,51.7177043 C98.5432603,37.4566744 103.805228,21 103.805228,21 C103.805228,21 109.520048,22.2124007 112.726125,35.921855 C118.215908,59.3971304 112.039903,73 112.039903,73" id="Fill-1023" fill="#4F2E1A"></path>
                                <path d="M104.987104,23.4848299 C104.987104,23.4848299 86.6535838,42.273237 53.9596116,40.931402 C21.2683221,39.5895669 13.0941584,22.8139123 11.5489276,15.6565533 C10.0036967,8.49919416 12.2115526,0 12.2115526,0 C12.2115526,0 19.280447,10.289213 49.3212364,5.81552403 C79.3647085,1.34183506 89.3040838,3.35458766 97.4755649,8.49919416 C105.649729,13.6438007 104.987104,23.4848299 104.987104,23.4848299" id="Fill-1024" fill="#4F2E1A"></path>
                                <path d="M40,96 C43.0945406,102.434303 50.8814913,107 60,107 C69.1185087,107 76.9054594,102.434303 80,96 L40,96" id="Fill-1025" fill="#FFFFFF"></path>
                                <path d="M34.998681,82 L34.998681,82 C31.6986151,82 29,79.3591231 29,76.1328175 L29,71.8671825 C29,68.6408769 31.6986151,66 34.998681,66 C38.298747,66 41,68.6408769 41,71.8671825 L41,76.1328175 C41,79.3591231 38.298747,82 34.998681,82" id="Fill-1026" fill="#523B2E"></path>
                                <path d="M36,70.5 C36,71.8802083 34.8802083,73 33.5,73 C32.1197917,73 31,71.8802083 31,70.5 C31,69.1197917 32.1197917,68 33.5,68 C34.8802083,68 36,69.1197917 36,70.5" id="Fill-1027" fill="#FFFFFF"></path>
                                <path d="M85.998681,82 L85.998681,82 C82.6986151,82 80,79.3591231 80,76.1328175 L80,71.8671825 C80,68.6408769 82.6986151,66 85.998681,66 C89.298747,66 92,68.6408769 92,71.8671825 L92,76.1328175 C92,79.3591231 89.298747,82 85.998681,82" id="Fill-1028" fill="#523B2E"></path>
                                <path d="M86,70.5 C86,71.8802083 84.8802083,73 83.5,73 C82.1197917,73 81,71.8802083 81,70.5 C81,69.1197917 82.1197917,68 83.5,68 C84.8802083,68 86,69.1197917 86,70.5" id="Fill-1029" fill="#FFFFFF"></path>
                                <polygon id="Fill-1030" fill="#341909" points="28 62 43 62 43 57 28 57"></polygon>
                                <polygon id="Fill-1031" fill="#341909" points="79 62 94 62 94 57 79 57"></polygon>
                            </g>
                        </g>
                    </g>
                </g>
            </g>
        </g>
    </g>
</svg>