<?xml version="1.0" encoding="UTF-8"?>
<svg width="122px" height="122px" viewBox="0 0 122 122" version="1.1" xmlns="http://www.w3.org/2000/svg" xmlns:xlink="http://www.w3.org/1999/xlink" style="background: #FFFFFF;">
    <!-- Generator: Sketch 49.3 (51167) - http://www.bohemiancoding.com/sketch -->
    <title>Artboard</title>
    <desc>Created with Sketch.</desc>
    <defs>
        <path d="M28.1482956,11.9216311 L14.5708824,11.9216311 L14.5708824,17.5512902 L22.3861739,17.5512902 C21.6576298,21.1277795 18.6109908,23.1809493 14.5708824,23.1809493 C9.80223001,23.1809493 5.96081555,19.3395349 5.96081555,14.5708824 C5.96081555,9.80223001 9.80223001,5.96081555 14.5708824,5.96081555 C16.6240522,5.96081555 18.4785282,6.68935967 19.9356164,7.88152278 L24.1744186,3.64272061 C21.5913985,1.39085696 18.2798343,0 14.5708824,0 C6.49066582,0 0,6.49066582 0,14.5708824 C0,22.6510991 6.49066582,29.1417649 14.5708824,29.1417649 C21.8563237,29.1417649 28.4794521,23.8432622 28.4794521,14.5708824 C28.4794521,13.7098758 28.3469895,12.7826378 28.1482956,11.9216311 Z" id="path-1"></path>
        <path d="M28.1482956,11.9216311 L14.5708824,11.9216311 L14.5708824,17.5512902 L22.3861739,17.5512902 C21.6576298,21.1277795 18.6109908,23.1809493 14.5708824,23.1809493 C9.80223001,23.1809493 5.96081555,19.3395349 5.96081555,14.5708824 C5.96081555,9.80223001 9.80223001,5.96081555 14.5708824,5.96081555 C16.6240522,5.96081555 18.4785282,6.68935967 19.9356164,7.88152278 L24.1744186,3.64272061 C21.5913985,1.39085696 18.2798343,0 14.5708824,0 C6.49066582,0 0,6.49066582 0,14.5708824 C0,22.6510991 6.49066582,29.1417649 14.5708824,29.1417649 C21.8563237,29.1417649 28.4794521,23.8432622 28.4794521,14.5708824 C28.4794521,13.7098758 28.3469895,12.7826378 28.1482956,11.9216311 Z" id="path-3"></path>
        <path d="M28.1482956,11.9216311 L14.5708824,11.9216311 L14.5708824,17.5512902 L22.3861739,17.5512902 C21.6576298,21.1277795 18.6109908,23.1809493 14.5708824,23.1809493 C9.80223001,23.1809493 5.96081555,19.3395349 5.96081555,14.5708824 C5.96081555,9.80223001 9.80223001,5.96081555 14.5708824,5.96081555 C16.6240522,5.96081555 18.4785282,6.68935967 19.9356164,7.88152278 L24.1744186,3.64272061 C21.5913985,1.39085696 18.2798343,0 14.5708824,0 C6.49066582,0 0,6.49066582 0,14.5708824 C0,22.6510991 6.49066582,29.1417649 14.5708824,29.1417649 C21.8563237,29.1417649 28.4794521,23.8432622 28.4794521,14.5708824 C28.4794521,13.7098758 28.3469895,12.7826378 28.1482956,11.9216311 Z" id="path-5"></path>
        <path d="M28.1482956,11.9216311 L14.5708824,11.9216311 L14.5708824,17.5512902 L22.3861739,17.5512902 C21.6576298,21.1277795 18.6109908,23.1809493 14.5708824,23.1809493 C9.80223001,23.1809493 5.96081555,19.3395349 5.96081555,14.5708824 C5.96081555,9.80223001 9.80223001,5.96081555 14.5708824,5.96081555 C16.6240522,5.96081555 18.4785282,6.68935967 19.9356164,7.88152278 L24.1744186,3.64272061 C21.5913985,1.39085696 18.2798343,0 14.5708824,0 C6.49066582,0 0,6.49066582 0,14.5708824 C0,22.6510991 6.49066582,29.1417649 14.5708824,29.1417649 C21.8563237,29.1417649 28.4794521,23.8432622 28.4794521,14.5708824 C28.4794521,13.7098758 28.3469895,12.7826378 28.1482956,11.9216311 Z" id="path-7"></path>
    </defs>
    <g id="Artboard" stroke="none" stroke-width="1" fill="none" fill-rule="evenodd">
        <g id="integrations-1">
            <g>
                <g id="Office_365_2013" transform="translate(81.000000, 16.000000)" fill="#00C86B">
                    <g id="g10" transform="translate(20.270005, 20.864115) scale(-1, 1) rotate(-180.000000) translate(-20.270005, -20.864115) translate(12.770005, 12.364115)" fill-rule="nonzero">
                        <g id="g12" transform="translate(0.248264, 0.841195)">
                            <path d="M8.98995998,2.14442886 C9.01327818,2.29126884 9.01924992,12.9085169 8.99706919,13.1402084 C7.19303643,12.7104981 5.39165777,12.2811706 3.58288554,11.8503124 L3.58288554,4.36596948 C2.65167401,4.00197852 1.72378011,3.63951814 0.796265374,3.27744041 C0.790293639,3.28078855 0.785175008,3.28260611 0.780340747,3.28604992 C0.7762648,3.28901541 0.771051381,3.29351149 0.770672223,3.29762492 C0.76773375,3.32565366 0.764036962,3.3536824 0.764036962,3.38209379 C0.763657804,6.40623209 0.763657804,9.43075304 0.763657804,12.4474298 C0.805175582,12.4986085 0.858826409,12.5050178 0.905462817,12.5221412 C3.55662887,13.515009 6.20855323,14.5068246 8.86000365,15.4995968 C8.95185462,15.5340349 9.03517455,15.5508712 9.13697841,15.5209293 C10.5918068,15.0986806 12.0480571,14.6813107 13.5039282,14.2624102 C13.5250663,14.2560009 13.5462043,14.2485393 13.5761578,14.2388775 L13.5761578,1.49240195 C13.1581363,1.37617356 12.7438117,1.25994517 12.3291078,1.14563001 C11.2734378,0.854532899 10.2171042,0.565636 9.16219241,0.272338684 C9.05887191,0.243544655 8.96853756,0.245744864 8.86701807,0.283148403 C6.25926558,1.24683958 3.65028084,2.20756527 1.0421492,3.16867359 C0.99067853,3.18771018 0.940250544,3.20904263 0.896931767,3.25496002 C3.59473422,2.88465542 6.29253668,2.51473346 8.98995998,2.14442886 Z" id="path14"></path>
                        </g>
                    </g>
                    <circle id="Oval-2" fill-opacity="0.1" cx="20.5" cy="20.5" r="20.5"></circle>
                </g>
                <g id="google">
                    <circle id="Oval-2" fill-opacity="0.1" fill="#4A90E2" cx="31.5" cy="31.5" r="31.5"></circle>
                    <g id="Clipped" transform="translate(17.260274, 17.260274)">
                        <mask id="mask-2" fill="white">
                            <use xlink:href="#path-1"></use>
                        </mask>
                        <g id="a"></g>
                        <polygon id="Shape" fill="#4A90E2" fill-rule="nonzero" mask="url(#mask-2)" points="-1.32462568 23.1809493 -1.32462568 5.96081555 9.93469258 14.5708824"></polygon>
                    </g>
                    <g id="Clipped" transform="translate(17.260274, 17.260274)">
                        <mask id="mask-4" fill="white">
                            <use xlink:href="#path-3"></use>
                        </mask>
                        <g id="a"></g>
                        <polygon id="Shape" fill="#4A90E2" fill-rule="nonzero" mask="url(#mask-4)" points="-1.32462568 5.96081555 9.93469258 14.5708824 14.5708824 10.5307741 30.4663906 7.94775406 30.4663906 -1.32462568 -1.32462568 -1.32462568"></polygon>
                    </g>
                    <g id="Clipped" transform="translate(17.260274, 17.260274)">
                        <mask id="mask-6" fill="white">
                            <use xlink:href="#path-5"></use>
                        </mask>
                        <g id="a"></g>
                        <polygon id="Shape" fill="#4A90E2" fill-rule="nonzero" mask="url(#mask-6)" points="-1.32462568 23.1809493 18.5447595 7.94775406 23.7770309 8.6100669 30.4663906 -1.32462568 30.4663906 30.4663906 -1.32462568 30.4663906"></polygon>
                    </g>
                    <g id="Clipped" transform="translate(17.260274, 17.260274)">
                        <mask id="mask-8" fill="white">
                            <use xlink:href="#path-7"></use>
                        </mask>
                        <g id="a"></g>
                        <polygon id="Shape" fill="#4A90E2" fill-rule="nonzero" mask="url(#mask-8)" points="30.4663906 30.4663906 9.93469258 14.5708824 7.28544122 12.5839439 30.4663906 5.96081555"></polygon>
                    </g>
                </g>
                <g id="slack" transform="translate(43.000000, 68.000000)">
                    <circle id="Oval-2" fill-opacity="0.1" fill="#F5A623" cx="27" cy="27" r="27"></circle>
                    <g id="Group" transform="translate(15.428571, 15.428571)" stroke="#F5A623" stroke-linecap="round" stroke-linejoin="round" stroke-width="2">
                        <path d="M22.1804645,8.41916065 C19.7913264,0.433620388 16.3497047,-1.41809909 8.41397741,0.970198192 C0.478250159,3.35849548 -1.42674537,6.7989061 0.96239267,14.7318407 C3.35153072,22.6647753 6.79315248,24.5691004 14.7288797,22.1808031 C22.664607,19.7925059 24.5696025,16.3520952 22.1804645,8.41916065 Z" id="Shape"></path>
                        <path d="M11.9020408,4.62857143 L15.8693878,15.2081633" id="Shape"></path>
                        <path d="M6.6122449,6.6122449 L10.5795918,17.1918367" id="Shape"></path>
                        <path d="M15.8693878,6.6122449 L5.28979592,10.5795918" id="Shape"></path>
                        <path d="M17.1918367,11.9020408 L6.6122449,15.8693878" id="Shape"></path>
                    </g>
                </g>
            </g>
        </g>
    </g>
</svg>