<?xml version="1.0" encoding="UTF-8"?>
<svg width="967px" height="623px" viewBox="0 0 967 623" version="1.1" xmlns="http://www.w3.org/2000/svg" xmlns:xlink="http://www.w3.org/1999/xlink">
    <!-- Generator: Sketch 53 (72520) - https://sketchapp.com -->
    <title>player video ilustration landing</title>
    <desc>Created with Sketch.</desc>
    <defs>
        <rect id="path-1" x="0" y="0" width="160" height="160" rx="4"></rect>
    </defs>
    <g id="ilustration-landing-page" stroke="none" stroke-width="1" fill="none" fill-rule="evenodd">
        <g id="ilustration-video-player" transform="translate(-29.000000, -31.000000)">
            <g id="player-video-ilustration-landing" transform="translate(29.000000, 31.000000)">
                <g>
                    <g id="Bottombar">
                        <rect id="Rectangle" fill="#FFFFFF" x="0" y="0" width="967" height="623" rx="4"></rect>
                        <g id="btn-record" transform="translate(871.000000, 539.000000)">
                            <ellipse id="Oval" fill="#E34646" cx="35" cy="34.5" rx="35" ry="34.5"></ellipse>
                            <rect id="Rectangle" fill="#FFFFFF" x="24" y="24" width="22" height="21" rx="4"></rect>
                        </g>
                    </g>
                    <g id="Code-editor-screen">
                        <path d="M4,0 L963,0 C965.209139,-4.05812251e-16 967,1.790861 967,4 L967,524 L0,524 L0,4 C-2.705415e-16,1.790861 1.790861,4.05812251e-16 4,0 Z" id="background" fill="#2E3135"></path>
                        <g id="code-lines" transform="translate(46.000000, 46.000000)">
                            <rect id="Rectangle" fill="#7289DA" x="1" y="0" width="99" height="10" rx="2"></rect>
                            <rect id="Rectangle" fill="#A7A8AA" x="108" y="0" width="139" height="10" rx="2"></rect>
                            <rect id="Rectangle" fill="#A7A8AA" x="108" y="32" width="107" height="10" rx="2"></rect>
                            <rect id="Rectangle" fill="#A7A8AA" x="108" y="114" width="81" height="10" rx="2"></rect>
                            <rect id="Rectangle" fill="#A7A8AA" x="108" y="64" width="190" height="10" rx="2"></rect>
                            <rect id="Rectangle" fill="#43B581" x="31" y="140" width="271" height="10" rx="2"></rect>
                            <rect id="Rectangle" fill="#43B581" x="31" y="166" width="216" height="10" rx="2"></rect>
                            <rect id="Rectangle" fill="#43B581" x="0" y="422" width="50" height="10" rx="2"></rect>
                            <rect id="Rectangle" fill="#43B581" x="58" y="422" width="600" height="10" rx="2"></rect>
                            <rect id="Rectangle" fill="#43B581" x="223" y="294" width="216" height="10" rx="2"></rect>
                            <rect id="Rectangle" fill="#7289DA" x="1" y="32" width="99" height="10" rx="2"></rect>
                            <rect id="Rectangle" fill="#7289DA" x="1" y="64" width="99" height="10" rx="2"></rect>
                            <rect id="Rectangle" fill="#7289DA" x="1" y="114" width="99" height="10" rx="2"></rect>
                            <rect id="Rectangle" fill="#7289DA" x="197" y="114" width="18" height="10" rx="2"></rect>
                            <rect id="Rectangle" fill="#A7A8AA" x="108" y="242" width="171" height="10" rx="2"></rect>
                            <rect id="Rectangle" fill="#A7A8AA" x="134" y="268" width="191" height="10" rx="2"></rect>
                            <rect id="Rectangle" fill="#A7A8AA" x="165" y="294" width="50" height="10" rx="2"></rect>
                            <rect id="Rectangle" fill="#E34646" x="30" y="268" width="96" height="10" rx="2"></rect>
                            <rect id="Rectangle" fill="#E34646" x="61" y="294" width="96" height="10" rx="2"></rect>
                            <rect id="Rectangle" fill="#43B581" x="617" y="320" width="50" height="10" rx="2"></rect>
                            <rect id="Rectangle" fill="#A7A8AA" x="109" y="320" width="500" height="10" rx="2"></rect>
                            <rect id="Rectangle" fill="#E34646" x="61" y="320" width="40" height="10" rx="2"></rect>
                            <rect id="Rectangle" fill="#E34646" x="30" y="346" width="40" height="10" rx="2"></rect>
                            <rect id="Rectangle" fill="#7289DA" x="1" y="242" width="99" height="10" rx="2"></rect>
                            <rect id="Rectangle" fill="#7289DA" x="287" y="242" width="18" height="10" rx="2"></rect>
                            <rect id="Rectangle" fill="#7289DA" x="1" y="372" width="18" height="10" rx="2"></rect>
                            <rect id="Rectangle" fill="#7289DA" x="1" y="192" width="18" height="10" rx="2"></rect>
                        </g>
                    </g>
                    <g id="face" transform="translate(781.000000, 338.000000)">
                        <mask id="mask-2" fill="white">
                            <use xlink:href="#path-1"></use>
                        </mask>
                        <use id="Mask" fill="#42464D" xlink:href="#path-1"></use>
                        <g mask="url(#mask-2)">
                            <g transform="translate(1.000000, 30.000000)">
                                <path d="M80.162061,0 L80.162061,0 C105.924135,0 127,21.0382231 127,46.753946 L127,92.0509268 C127,107.457883 119.431723,121.185136 107.823857,129.717091 L107.809911,129.729315 C89.2480749,146.808844 28.8892819,145.673083 8.9825031,128.723937 C-10.9239356,111.774792 6.6395687,85.7670645 19.5206057,78.8998728 C32.4016427,72.0323416 33.3224213,56.6912561 33.3224213,56.6912561 L33.3224213,46.753946 C33.3227615,21.0382231 54.4003272,0 80.162061,0 Z" id="Path" fill="#64291F"></path>
                                <path d="M108.765356,10 C112.2674,12.7200914 115.37764,15.9230616 118,19.5091819 C106.516062,29.9556763 80.215127,46.5925464 34,39.1368844 C35.9344885,28.1872913 41.6558454,18.5115523 49.742675,11.5408254 C65.7064635,15.5416251 89.3032707,18.7000429 108.765356,10 Z" id="Path" fill="#7A423C"></path>
                                <path d="M104.801329,132.701447 C88.1678478,143.246239 52.8856112,144.651941 28.6839822,137.784692 C13.8333995,130.49553 11.7066947,110.157141 23.9817903,97.9419372 C36.2616421,85.7220003 39.1901078,80.1262388 39.1901078,80.1262388 L58.7758361,49.3519171 C58.7758361,49.3519171 115,37.5880389 115,83.4636819 C115,121.588357 107.378515,130.707501 104.801329,132.701447 Z" id="Path" fill="#471610"></path>
                                <rect id="Rectangle" fill="#E47C6B" x="71" y="102" width="18" height="27"></rect>
                                <path d="M45.9991532,83 C51.5073077,83 56,78.5075704 56,72.9993226 C56,67.4927684 51.5073077,63 45.9991532,63 C40.4909987,63 36,67.4924296 36,72.9993226 C36,78.5075704 40.4909987,83 45.9991532,83 Z" id="Path" fill="#E47C6B"></path>
                                <path d="M115.000677,83 C120.507232,83 125,78.5075704 125,72.9993226 C125,67.4927684 120.507232,63 115.000677,63 C109.492091,63 105,67.4924296 105,72.9993226 C105,78.5075704 109.49243,83 115.000677,83 Z" id="Path" fill="#E47C6B"></path>
                                <path d="M81.0006724,15 L81.0006724,15 C99.7005716,15 115,30.3999414 115,49.2264543 L115,77.7721918 C115,96.5983663 99.7005716,112 81.0006724,112 L81.0006724,112 C62.2994284,112 47,96.5980279 47,77.7721918 L47,49.2264543 C47,30.4002798 62.2994284,15 81.0006724,15 Z" id="Path" fill="#F9A887"></path>
                                <path d="M106.156835,26.3480686 C111.647548,32.4181706 115,40.4198228 115,49.1600785 L115,77.7382788 C115,96.5821577 99.4317467,112 80.4032733,112 L80.4032733,112 C78.6156868,112 76.8595755,111.863799 75.1431504,111.600544 C116.771849,109.47384 116.119423,65.0112575 89.659037,47.8356741 C79.5910761,41.3007262 71.2963327,47.5852943 71.2963327,47.5852943 L53,43.8990524 L77.3104921,15.0393018 L77.7453289,15 C79.7549525,15.7497843 91.776771,20.2657695 106.156835,26.3480686 Z" id="Path" fill="#F08E77"></path>
                                <path d="M60.0006062,64 L60.0006062,64 C61.6500303,64 63,65.4977679 63,67.3285225 L63,71.6701321 C63,73.5018958 61.6500303,75 60.0006062,75 L60.0006062,75 C58.3496666,75 57,73.5018958 57,71.6701321 L57,67.3285225 C57,65.4977679 58.3499697,64 60.0006062,64 Z" id="Path" fill="#64291F"></path>
                                <path d="M99.9998485,64 L99.9998485,64 C101.650538,64 103,65.4977679 103,67.3285225 L103,71.6701321 C103,73.5018958 101.650538,75 99.9998485,75 L99.9998485,75 C98.3491591,75 97.0000001,73.5018958 97.0000001,71.6701321 L97.0000001,67.3285225 C96.999697,65.4977679 98.3491591,64 99.9998485,64 Z" id="Path" fill="#64291F"></path>
                                <path d="M55.8052572,55 L65.1950785,55 C66.1873322,55 67,55.9001302 67,57 L67,57 C67,58.0998698 66.1873322,59 65.1950785,59 L55.8052572,59 C54.8126678,59 54,58.0998698 54,57 L54,57 C54,55.9001302 54.8126678,55 55.8052572,55 Z" id="Path" fill="#64291F"></path>
                                <path d="M94.8068889,55 L104.194789,55 C105.187353,55 106,55.9001302 106,57 L106,57 C106,58.0998698 105.187353,59 104.194789,59 L94.8068889,59 C93.8126469,59 93,58.0998698 93,57 L93,57 C93,55.9001302 93.8126469,55 94.8068889,55 Z" id="Path" fill="#64291F"></path>
                                <path d="M98,32.2169768 C98,32.2169768 113.597691,40.4735078 114.629512,62.7652818 L114.629512,67 C114.629512,67 118.922323,63.1831816 122,65.9801869 C122,65.9801869 118.456174,41.3949511 117.279002,38.7300229 C116.416815,36.7774161 112.640428,28.3571646 110.685885,24 C107.682081,26.0960342 104.171771,28.221992 100.129989,30.2065863 L98,32.2169768 Z" id="Path" fill="#64291F"></path>
                                <path d="M92,82.7667365 C92,88.4185115 87.0755048,93 81.000171,93 C74.9234691,93 70,88.4185115 70,82.7667365 L70.0174421,82.7667365 C70.0174421,81.7950791 70.8724486,81 71.9169245,81 L90.0820495,81 C91.1282354,81 91.9815319,81.7950791 91.9815319,82.7667365 L92,82.7667365 Z" id="Path" fill="#FFFFFF"></path>
                                <g id="Group" stroke-width="1" fill="none" transform="translate(52.000000, 77.000000)">
                                    <path d="M5.26673077,9.76366667 C8.05742308,9.76366667 10.3313077,7.57233333 10.3313077,4.88666667 C10.3313077,2.19933333 8.05742308,0.00966666667 5.26673077,0.00966666667 C2.47603846,0.00966666667 0.202153846,2.19933333 0.202153846,4.88666667 C0.202153846,7.57233333 2.47638462,9.76366667 5.26673077,9.76366667 Z" id="Path" fill="#E47C6B"></path>
                                    <path d="M48.8364231,9.76366667 C51.6253846,9.76366667 53.9027308,7.57233333 53.9027308,4.88666667 C53.9027308,2.19933333 51.6253846,0.00966666667 48.8364231,0.00966666667 C46.0474615,0.00966666667 43.7718462,2.19933333 43.7718462,4.88666667 C43.7718462,7.57233333 46.0474615,9.76366667 48.8364231,9.76366667 Z" id="Path" fill="#E47C6B"></path>
                                </g>
                                <path d="M112,16.7346045 C112,16.7346045 95.1294574,61.7852503 39.3184841,65 C39.3184841,65 38.6564282,34.5641377 39.241414,31.0559648 C39.8267393,27.5494899 53.2657952,6.50486731 66.9992113,5.33457071 C80.7333064,4.16563255 107.909174,5.62799388 112,16.7346045 Z" id="Path" fill="#64291F"></path>
                                <path d="M112,17.1611841 C112,17.1611841 110.403227,21.3242182 106.575793,27.1795021 C92.9704569,35.3179115 71.0702532,42.8737486 39,38.9159766 C39.0125623,35.1043459 39.0784296,32.1200742 39.2400422,31.1671666 C39.6274371,28.8946694 45.660408,19.0912457 53.6833188,12.4022922 C68.6080378,15.6047793 88.5814528,17.5012948 105.807114,11 C108.822072,12.5959294 111.043566,14.6199863 112,17.1611841 Z" id="Path" fill="#7A423C"></path>
                            </g>
                        </g>
                    </g>
                </g>
            </g>
        </g>
    </g>
</svg>