<?xml version="1.0" encoding="UTF-8"?>
<svg width="122px" height="122px" viewBox="0 0 122 122" version="1.1" xmlns="http://www.w3.org/2000/svg" xmlns:xlink="http://www.w3.org/1999/xlink">
    <!-- Generator: Sketch 49.3 (51167) - http://www.bohemiancoding.com/sketch -->
    <title>integrations 1</title>
    <desc>Created with Sketch.</desc>
    <defs>
        <path d="M29.1246328,12.3351386 L15.0762805,12.3351386 L15.0762805,18.1600651 L23.1626491,18.1600651 C22.4088351,21.8606067 19.2565219,23.9849917 15.0762805,23.9849917 C10.1422251,23.9849917 6.16756929,20.0103359 6.16756929,15.0762805 C6.16756929,10.1422251 10.1422251,6.16756929 15.0762805,6.16756929 C17.2006655,6.16756929 19.1194648,6.92138331 20.6270928,8.15489717 L25.0129199,3.76907012 C22.3403065,1.4390995 18.9138792,0 15.0762805,0 C6.71579767,0 0,6.71579767 0,15.0762805 C0,23.4367633 6.71579767,30.152561 15.0762805,30.152561 C22.6144207,30.152561 29.4672755,24.6702772 29.4672755,15.0762805 C29.4672755,14.1854094 29.3302184,13.2260097 29.1246328,12.3351386 Z" id="path-1"></path>
        <path d="M29.1246328,12.3351386 L15.0762805,12.3351386 L15.0762805,18.1600651 L23.1626491,18.1600651 C22.4088351,21.8606067 19.2565219,23.9849917 15.0762805,23.9849917 C10.1422251,23.9849917 6.16756929,20.0103359 6.16756929,15.0762805 C6.16756929,10.1422251 10.1422251,6.16756929 15.0762805,6.16756929 C17.2006655,6.16756929 19.1194648,6.92138331 20.6270928,8.15489717 L25.0129199,3.76907012 C22.3403065,1.4390995 18.9138792,0 15.0762805,0 C6.71579767,0 0,6.71579767 0,15.0762805 C0,23.4367633 6.71579767,30.152561 15.0762805,30.152561 C22.6144207,30.152561 29.4672755,24.6702772 29.4672755,15.0762805 C29.4672755,14.1854094 29.3302184,13.2260097 29.1246328,12.3351386 Z" id="path-3"></path>
        <path d="M29.1246328,12.3351386 L15.0762805,12.3351386 L15.0762805,18.1600651 L23.1626491,18.1600651 C22.4088351,21.8606067 19.2565219,23.9849917 15.0762805,23.9849917 C10.1422251,23.9849917 6.16756929,20.0103359 6.16756929,15.0762805 C6.16756929,10.1422251 10.1422251,6.16756929 15.0762805,6.16756929 C17.2006655,6.16756929 19.1194648,6.92138331 20.6270928,8.15489717 L25.0129199,3.76907012 C22.3403065,1.4390995 18.9138792,0 15.0762805,0 C6.71579767,0 0,6.71579767 0,15.0762805 C0,23.4367633 6.71579767,30.152561 15.0762805,30.152561 C22.6144207,30.152561 29.4672755,24.6702772 29.4672755,15.0762805 C29.4672755,14.1854094 29.3302184,13.2260097 29.1246328,12.3351386 Z" id="path-5"></path>
        <path d="M29.1246328,12.3351386 L15.0762805,12.3351386 L15.0762805,18.1600651 L23.1626491,18.1600651 C22.4088351,21.8606067 19.2565219,23.9849917 15.0762805,23.9849917 C10.1422251,23.9849917 6.16756929,20.0103359 6.16756929,15.0762805 C6.16756929,10.1422251 10.1422251,6.16756929 15.0762805,6.16756929 C17.2006655,6.16756929 19.1194648,6.92138331 20.6270928,8.15489717 L25.0129199,3.76907012 C22.3403065,1.4390995 18.9138792,0 15.0762805,0 C6.71579767,0 0,6.71579767 0,15.0762805 C0,23.4367633 6.71579767,30.152561 15.0762805,30.152561 C22.6144207,30.152561 29.4672755,24.6702772 29.4672755,15.0762805 C29.4672755,14.1854094 29.3302184,13.2260097 29.1246328,12.3351386 Z" id="path-7"></path>
    </defs>
    <g id="integrations-1" stroke="none" stroke-width="1" fill="none" fill-rule="evenodd">
        <g>
            <g id="Office_365_2013" transform="translate(80.000000, 14.000000)">
                <circle id="Oval-2" fill="#E5F9F0" cx="20.5" cy="20.5" r="20.5"></circle>
                <g id="g10" transform="translate(20.270005, 20.864115) scale(-1, 1) rotate(-180.000000) translate(-20.270005, -20.864115) translate(12.770005, 12.364115)" fill="#00C86B" fill-rule="nonzero">
                    <g id="g12" transform="translate(0.248264, 0.841195)">
                        <path d="M8.98995998,2.14442886 C9.01327818,2.29126884 9.01924992,12.9085169 8.99706919,13.1402084 C7.19303643,12.7104981 5.39165777,12.2811706 3.58288554,11.8503124 L3.58288554,4.36596948 C2.65167401,4.00197852 1.72378011,3.63951814 0.796265374,3.27744041 C0.790293639,3.28078855 0.785175008,3.28260611 0.780340747,3.28604992 C0.7762648,3.28901541 0.771051381,3.29351149 0.770672223,3.29762492 C0.76773375,3.32565366 0.764036962,3.3536824 0.764036962,3.38209379 C0.763657804,6.40623209 0.763657804,9.43075304 0.763657804,12.4474298 C0.805175582,12.4986085 0.858826409,12.5050178 0.905462817,12.5221412 C3.55662887,13.515009 6.20855323,14.5068246 8.86000365,15.4995968 C8.95185462,15.5340349 9.03517455,15.5508712 9.13697841,15.5209293 C10.5918068,15.0986806 12.0480571,14.6813107 13.5039282,14.2624102 C13.5250663,14.2560009 13.5462043,14.2485393 13.5761578,14.2388775 L13.5761578,1.49240195 C13.1581363,1.37617356 12.7438117,1.25994517 12.3291078,1.14563001 C11.2734378,0.854532899 10.2171042,0.565636 9.16219241,0.272338684 C9.05887191,0.243544655 8.96853756,0.245744864 8.86701807,0.283148403 C6.25926558,1.24683958 3.65028084,2.20756527 1.0421492,3.16867359 C0.99067853,3.18771018 0.940250544,3.20904263 0.896931767,3.25496002 C3.59473422,2.88465542 6.29253668,2.51473346 8.98995998,2.14442886 Z" id="path14"></path>
                    </g>
                </g>
            </g>
            <g id="google">
                <circle id="Oval-2" fill="#ECF3FC" cx="27.5" cy="27.5" r="27.5"></circle>
                <g id="Group-2" transform="translate(12.000000, 11.000000)">
                    <g id="Clipped" transform="translate(0.997061, 0.997061)">
                        <mask id="mask-2" fill="white">
                            <use xlink:href="#path-1"></use>
                        </mask>
                        <g id="a"></g>
                        <polygon id="Shape" fill="#4A90E2" fill-rule="nonzero" mask="url(#mask-2)" points="-1.37057095 23.9849917 -1.37057095 6.16756929 10.2792821 15.0762805"></polygon>
                    </g>
                    <g id="Clipped" transform="translate(0.997061, 0.997061)">
                        <mask id="mask-4" fill="white">
                            <use xlink:href="#path-3"></use>
                        </mask>
                        <g id="a"></g>
                        <polygon id="Shape" fill="#4A90E2" fill-rule="nonzero" mask="url(#mask-4)" points="-1.37057095 6.16756929 10.2792821 15.0762805 15.0762805 10.8960391 31.5231319 8.22342572 31.5231319 -1.37057095 -1.37057095 -1.37057095"></polygon>
                    </g>
                    <g id="Clipped" transform="translate(0.997061, 0.997061)">
                        <mask id="mask-6" fill="white">
                            <use xlink:href="#path-5"></use>
                        </mask>
                        <g id="a"></g>
                        <polygon id="Shape" fill="#4A90E2" fill-rule="nonzero" mask="url(#mask-6)" points="-1.37057095 23.9849917 19.1879933 8.22342572 24.6017486 8.9087112 31.5231319 -1.37057095 31.5231319 31.5231319 -1.37057095 31.5231319"></polygon>
                    </g>
                    <g id="Clipped" transform="translate(0.997061, 0.997061)">
                        <mask id="mask-8" fill="white">
                            <use xlink:href="#path-7"></use>
                        </mask>
                        <g id="a"></g>
                        <polygon id="Shape" fill="#4A90E2" fill-rule="nonzero" mask="url(#mask-8)" points="31.5231319 31.5231319 10.2792821 15.0762805 7.53814024 13.0204241 31.5231319 6.16756929"></polygon>
                    </g>
                </g>
            </g>
            <g id="slack" transform="translate(35.000000, 67.000000)">
                <circle id="Oval-2" fill="#FEF6E9" cx="27" cy="27" r="27"></circle>
                <g id="Group" transform="translate(15.428571, 15.428571)" stroke="#F5A623" stroke-linecap="round" stroke-linejoin="round" stroke-width="2">
                    <path d="M22.1804645,8.41916065 C19.7913264,0.433620388 16.3497047,-1.41809909 8.41397741,0.970198192 C0.478250159,3.35849548 -1.42674537,6.7989061 0.96239267,14.7318407 C3.35153072,22.6647753 6.79315248,24.5691004 14.7288797,22.1808031 C22.664607,19.7925059 24.5696025,16.3520952 22.1804645,8.41916065 Z" id="Shape"></path>
                    <path d="M11.9020408,4.62857143 L15.8693878,15.2081633" id="Shape"></path>
                    <path d="M6.6122449,6.6122449 L10.5795918,17.1918367" id="Shape"></path>
                    <path d="M15.8693878,6.6122449 L5.28979592,10.5795918" id="Shape"></path>
                    <path d="M17.1918367,11.9020408 L6.6122449,15.8693878" id="Shape"></path>
                </g>
            </g>
        </g>
    </g>
</svg>