<?xml version="1.0" encoding="UTF-8"?>
<svg width="932px" height="688px" viewBox="0 0 932 688" version="1.1" xmlns="http://www.w3.org/2000/svg" xmlns:xlink="http://www.w3.org/1999/xlink">
    <!-- Generator: Sketch 49.3 (51167) - http://www.bohemiancoding.com/sketch -->
    <title>hermes-logo</title>
    <desc>Created with Sketch.</desc>
    <defs>
        <linearGradient x1="25.7492739%" y1="82.998944%" x2="78.242064%" y2="11.3961289%" id="linearGradient-1">
            <stop stop-color="#2F6EFE" offset="0%"></stop>
            <stop stop-color="#40AFFF" offset="100%"></stop>
        </linearGradient>
    </defs>
    <g id="logos" stroke="none" stroke-width="1" fill="none" fill-rule="evenodd">
        <g id="Artboard-2" transform="translate(-34.000000, -214.000000)" fill="url(#linearGradient-1)" fill-rule="nonzero">
            <g id="hermes-logo" transform="translate(34.000000, 214.000000)">
                <path d="M66,139.975 C66,158.225 51.2436179,173 33,173 C14.7638815,173 0,158.225 0,139.975 C0,121.725 14.7638815,107 33,107 C51.2436179,107 66,121.725 66,139.975 Z M125.809779,204 C144.598573,204 160,218.401279 160,235.97442 C160,253.573142 144.598573,268 125.809779,268 L77.2051767,268 C58.386472,268 43,253.573142 43,235.97442 C43,218.401279 58.386472,204 77.2051767,204 L125.809779,204 Z M598.952112,158.240039 C599.102331,155.46585 599.177444,152.741199 599.177444,149.96701 C599.177444,111.722828 587.284909,76.3271448 567,47 L617.529501,47 C689.986326,47 755.082303,72.6612515 801,113.580545 C771.982217,152.939356 728.868655,190.762456 677.818388,220.560222 C672.10997,223.90411 666.376517,227.074613 660.567951,230.146037 C653.858062,233.638543 647.073054,237.031971 640.21294,240.202473 C638.510431,241.019868 636.782886,241.812493 635.080377,242.55558 C633.653271,243.224358 632.326313,244.091292 630.723952,243.992214 C627.944853,243.868366 626.667972,241.490489 624.940428,239.707082 C622.937473,237.62644 620.834371,235.694415 618.581049,233.861468 C613.799002,229.997419 608.541248,226.6783 602.98305,224.077497 C600.128844,222.789481 597.249597,221.625312 594.245171,220.708839 C593.469026,220.461143 592.717917,220.213448 591.916737,219.990522 C590.890224,219.693287 589.83867,219.396053 588.787121,219.123588 C587.960905,218.900662 586.85928,218.529118 586.38358,217.736493 C586.183283,217.439259 586.10817,217.166794 586.10817,216.844789 C586.10817,216.052164 586.433651,215.432925 586.70906,214.714608 C586.984464,214.021061 587.259873,213.302744 587.510241,212.658736 C588.436605,210.206551 589.312898,207.729596 590.139115,205.252641 C590.965331,202.750917 591.71644,200.224423 592.417472,197.722698 C593.168581,195.171435 593.819542,192.644941 594.445462,190.044139 C595.046352,187.443336 595.597165,184.867303 596.072864,182.266501 C596.598642,179.665698 597.024264,176.990587 597.399822,174.365015 C597.800409,171.714673 598.100854,169.039562 598.351222,166.339681 C598.626631,163.66457 598.826922,160.93992 598.952112,158.240039 Z M931.846995,265.554651 C932.223433,270.860066 931.997571,276.535626 930.115387,281.618954 C929.663661,282.852772 929.111548,284.037236 928.433966,285.172348 C925.673419,289.934884 920.9554,293.290867 916.337763,296.128647 C907.453832,301.532767 898.218564,306.319979 888.732333,310.564311 C867.852587,319.941323 845.818427,326.65329 823.43293,331.563883 C816.456289,333.093817 809.404355,334.451016 802.352421,335.635481 C777.833777,339.756431 753.064176,341.92795 728.219281,342.717593 C710.928246,343.285149 693.662299,342.989033 676.396357,341.903273 C667.763384,341.311041 659.13041,340.521398 650.522536,339.509667 C644.198384,338.769377 637.949514,337.732971 631.675556,336.573182 C630.320379,336.301742 628.387995,336.054979 628.036657,334.451016 C627.735507,333.093817 629.366734,331.761294 630.11961,330.749564 C634.712153,324.383066 638.074995,317.32563 640.434005,309.873373 C642.617345,302.939319 643.972522,295.832531 643.972522,288.528332 C643.972522,283.691768 643.470602,278.87988 642.491863,274.142021 C642.015044,271.773091 641.36255,269.478191 640.659867,267.158614 C640.333623,266.196236 639.706229,265.110477 639.80661,264.074071 C639.881898,262.618166 641.337456,262.272697 642.516963,261.853199 C646.105668,260.693411 649.669279,259.484269 653.23289,258.2011 C660.410299,255.634759 667.562615,252.920361 674.589455,250.008552 C680.687744,247.540917 686.735846,244.9499 692.70866,242.18615 C717.352779,230.983087 741.093454,217.805917 763.328377,202.506581 C783.254477,188.860561 802.001077,173.462519 818.815299,156.238428 C833.446174,141.235208 846.671691,124.751407 857.161755,106.663644 C858.792982,103.899893 860.173252,101.160819 863.661576,100.297146 C869.308145,98.8412414 873.825395,102.986868 876.510655,107.255876 C880.074266,112.758702 883.412008,118.409586 886.548993,124.159175 C892.948432,135.880441 898.569902,148.021204 903.563977,160.408731 C913.777984,185.850046 921.306744,212.303092 927.204264,239.076929 C928.233197,243.642054 929.186836,248.231855 930.090287,252.821655 C930.91845,257.016635 931.570945,261.285643 931.846995,265.554651 Z M689.489592,461.853449 C665.221904,488.957525 649.751565,524.044982 648.102061,563.000931 C646.227623,607.032732 662.322774,647.614928 689.814493,678.168615 C690.664239,679.351336 691.239064,680.706543 691.164087,682.258861 C691.089109,685.191031 688.864779,687.482556 686.015637,688 C530.402522,668.805384 457.379522,559.600602 462.532969,438.100422 C463.302737,419.546451 467.761394,399.686555 472.879852,381.871786 C474.01451,377.929375 477.273528,372.483919 474.336913,368.713989 C469.570849,362.504692 461.640738,370.093833 458.434204,374.060884 C452.663443,381.181864 449.236975,389.731968 446.732729,398.405272 C441.966665,414.815557 437.280577,431.324404 430.177717,446.946207 C421.200422,466.682903 409.733877,485.335435 396.035503,502.213882 C376.661341,526.188668 352.776036,546.763126 325.539242,561.596448 C312.638129,568.643507 299.012234,574.360005 284.871495,578.425612 C273.582396,581.653463 255.730275,588.454122 244.263729,583.082586 C238.920339,580.593943 234.796581,575.764484 233.149578,570.146551 C230.265447,560.265884 235.786283,551.98682 240.707301,543.830958 C246.365596,534.344531 251.886433,524.734905 256.647498,514.780317 C264.040271,499.207793 270.338373,483.142468 275.589291,466.756823 C292.35674,414.076355 300.366826,356.393955 286.855897,302.161163 L424.626889,302.161163 C436.548298,302.161163 446.190393,294.153141 446.190393,284.272474 C446.190393,274.416446 436.548298,266.408423 424.626889,266.408423 L244.168757,266.408423 C224.532174,266.408423 208.474511,252.511425 208.474511,235.559057 C208.474511,218.63133 224.532174,204.758971 244.168757,204.758971 L375.636649,204.758971 C387.240653,204.758971 396.730294,196.677029 396.730294,186.845641 C396.730294,177.014254 387.240653,168.981592 375.636649,168.981592 L159.564247,168.981592 C138.885477,168.981592 121.980571,154.34539 121.980571,136.505981 C121.980571,118.691211 138.885477,104.05501 159.564247,104.05501 L320.383296,104.05501 C331.997297,104.05501 341.494435,96.0223479 341.494435,86.1909605 C341.494435,76.334933 331.997297,68.3022707 320.383296,68.3022707 L55.6055676,68.3022707 C33.8146329,68.3022707 16,52.9515078 16,34.151135 C16,15.3754029 33.8146329,0 55.6055676,0 L379.423008,0 C380.987537,0 382.482087,0.246400689 384.011626,0.394241077 C429.782836,0.468161333 471.430289,17.4451687 503.428148,44.9927656 C503.640585,45.1406057 503.778043,45.3130867 503.940494,45.4609269 C508.414146,49.3047773 512.652869,53.4443093 516.716645,57.682401 C517.213995,58.1998427 517.683854,58.6926436 518.136217,59.2347256 C521.857596,63.2510564 525.409026,67.3659482 528.710532,71.6779599 C529.370333,72.5403624 530.012639,73.4027648 530.642449,74.2158869 C533.689032,78.2814982 536.545671,82.4456704 539.20237,86.7084023 C539.93465,87.866485 540.636938,89.0738489 541.406706,90.3058523 C543.778492,94.3468234 545.990325,98.510995 548.092192,102.699807 C548.801978,104.227491 549.606736,105.705895 550.259039,107.25822 C552.118479,111.27455 553.795474,115.414082 555.377497,119.578253 C555.992312,121.376978 556.717094,123.151064 557.309415,124.949789 C558.679002,129.08932 559.81366,133.253492 560.890836,137.466944 C561.395684,139.413509 561.945518,141.360075 562.427873,143.38056 C563.372588,147.741852 564.067379,152.250985 564.669698,156.760118 C564.947114,158.632763 565.341995,160.431488 565.504446,162.304133 C566.229228,168.685911 566.616611,175.141609 566.616611,181.720507 C566.616611,191.896856 565.52444,201.728243 563.842447,211.41179 L563.854943,211.41179 L563.657502,212.471313 C563.540038,213.161235 563.410077,213.900437 563.270119,214.590359 L563.137659,215.255641 C592.418839,220.553255 614.637144,245.562925 614.637144,275.94413 C614.637144,282.596948 613.312541,288.880166 611.363132,294.867703 C611.363132,294.892343 611.363132,294.916983 611.363132,294.916983 C607.739222,305.906454 601.216189,315.4668 592.543798,322.809541 C592.01896,323.253062 591.444128,323.696583 590.8943,324.140105 C588.045158,326.431631 584.971082,328.427476 581.722061,330.152281 C580.972286,330.546522 580.247505,330.965404 579.49773,331.359644 C571.10026,335.425256 561.768072,337.938543 551.761087,337.938543 C535.123599,337.938543 520.100626,331.458205 508.854014,321.084736 C508.444137,320.665855 507.864312,320.419454 507.227004,320.419454 C505.989877,320.419454 505.01517,321.405057 504.987679,322.61242 C517.581384,344.394241 541.209266,359.153642 568.491046,359.153642 C586.695564,359.153642 603.315553,352.599384 616.161683,341.782394 C623.234551,351.318101 630.307425,360.779887 637.405283,370.290953 C646.25262,382.118187 655.099951,393.994699 663.947288,405.846573 C666.696462,409.542583 669.470626,413.238593 672.219794,416.934604 C676.768427,423.04534 681.192089,429.229998 685.890678,435.192894 C689.664538,439.948428 694.263152,445.172122 693.988238,451.627821 C693.838283,455.644151 692.038823,459.167681 689.489592,461.853449 Z" id="Combined-Shape"></path>
            </g>
        </g>
    </g>
</svg>