<?xml version="1.0" encoding="UTF-8"?>
<svg width="64px" height="48px" viewBox="0 0 64 48" version="1.1" xmlns="http://www.w3.org/2000/svg" xmlns:xlink="http://www.w3.org/1999/xlink">
    <!-- Generator: Sketch 47.1 (45422) - http://www.bohemiancoding.com/sketch -->
    <title>Group</title>
    <desc>Created with Sketch.</desc>
    <defs></defs>
    <g id="Final" stroke="none" stroke-width="1" fill="none" fill-rule="evenodd">
        <g id="Desktop-HD" transform="translate(-661.000000, -4367.000000)" fill-rule="nonzero" fill="#697A88">
            <g id="Group-29" transform="translate(125.000000, 4054.000000)">
                <g id="Group-7" transform="translate(0.000000, 278.000000)">
                    <g id="Group-13" transform="translate(0.000000, 35.000000)">
                        <g id="Group" transform="translate(536.000000, 0.000000)">
                            <path d="M4.5443787,9.55542206 C4.5443787,8.29925323 3.52833948,7.28571429 2.27218935,7.28571429 C1.01655559,7.28571429 0,8.29925323 0,9.55542206 C0,10.8115909 1.01655559,11.8285714 2.27218935,11.8285714 C3.52833948,11.8285714 4.5443787,10.8115909 4.5443787,9.55542206" id="Fill-51"></path>
                            <path d="M8.74763319,14.3142857 L5.39146654,14.3142857 C4.09202767,14.3142857 3.0295858,15.2786571 3.0295858,16.4554299 C3.0295858,17.6339157 4.09202767,18.6 5.39146654,18.6 L8.74763319,18.6 C10.0450067,18.6 11.1084813,17.6339157 11.1084813,16.4554299 C11.1084813,15.2786571 10.0450067,14.3142857 8.74763319,14.3142857" id="Fill-52"></path>
                            <path d="M41.074499,10.8912776 C41.0658996,11.0786442 41.0521415,11.2677298 41.0332234,11.4533775 C41.0160255,11.6407441 40.9953877,11.8263918 40.967871,12.0103205 C40.9420737,12.1925302 40.9128373,12.3781779 40.8767213,12.5586687 C40.8440451,12.7391595 40.8062094,12.9179313 40.7649338,13.0984221 C40.7219389,13.2789129 40.6772239,13.4542468 40.6256297,13.6312997 C40.5774752,13.8049146 40.525881,13.9802485 40.4691276,14.1538635 C40.4123742,14.3257595 40.3521809,14.4976555 40.2885483,14.6678325 C40.2713503,14.7125255 40.2524322,14.7623753 40.2335146,14.8105062 C40.2145965,14.860356 40.192239,14.90333 40.192239,14.9583367 C40.192239,14.9806832 40.1973986,14.9995918 40.2111571,15.0202193 C40.2438333,15.075226 40.3195047,15.1010104 40.3762581,15.116481 C40.4484898,15.1353896 40.5207218,15.1560171 40.5912338,15.1766446 C40.6462675,15.1921153 40.6978617,15.2093049 40.7511757,15.2264945 C40.9575519,15.290096 41.1553296,15.3708871 41.3513871,15.460273 C41.733184,15.6407638 42.094343,15.8711044 42.4228254,16.1392622 C42.5776078,16.2664652 42.7220715,16.4005441 42.8596559,16.5449367 C42.9783223,16.6687018 43.0660321,16.833722 43.2569305,16.8423168 C43.3669979,16.8491926 43.4581476,16.789029 43.5561766,16.7426171 C43.6731233,16.6910483 43.7917896,16.6360416 43.9087363,16.5793159 C44.3799627,16.3592891 44.8460299,16.1237916 45.3069372,15.8814182 C45.705932,15.6682672 46.0997672,15.4482403 46.4918827,15.2161807 C49.9985639,13.1482719 52.9600669,10.5234201 54.9533202,7.79199283 C51.7991991,4.95227104 47.3277076,3.17142857 42.3505938,3.17142857 L38.8796844,3.17142857 C40.27307,5.20667713 41.0899772,7.66307083 41.0899772,10.3171449 C41.0899772,10.5096684 41.0848177,10.6987541 41.074499,10.8912776" id="Fill-53"></path>
                            <path d="M63.8691568,17.5463058 C63.8072573,17.2265578 63.7419193,16.9068098 63.6714225,16.5887808 C63.2673569,14.723584 62.7515279,12.8807351 62.0517205,11.1083684 C61.709554,10.2453925 61.3244019,9.39960741 60.8859477,8.58304659 C60.6710188,8.18250201 60.4423351,7.78883374 60.1981761,7.4054799 C60.014197,7.10807987 59.7047,6.81927519 59.3178282,6.92070064 C59.0788275,6.9808683 58.984259,7.17168566 58.8724963,7.3642221 C58.153775,8.62430439 57.2476356,9.77264679 56.2452088,10.8178446 C55.0931911,12.0177593 53.8087776,13.0904623 52.4435511,14.041111 C50.920137,15.1069378 49.293557,16.0249241 47.6050779,16.8053843 C47.1958537,16.9979208 46.7814711,17.1784237 46.36365,17.3503312 C45.8822097,17.5531821 45.3921725,17.7422804 44.900416,17.9210643 C44.6562571,18.0104562 44.4120981,18.0946909 44.1662199,18.1754874 C44.0854065,18.2047117 43.9856797,18.2287788 43.9805214,18.3302042 C43.9736439,18.4024054 44.0166295,18.4780447 44.0389819,18.5450886 C44.0871258,18.7066817 44.1318312,18.8665557 44.1645002,19.031587 C44.231558,19.3616495 44.2659467,19.6968692 44.2659467,20.033808 C44.2659467,20.5426543 44.1730975,21.037748 44.0235071,21.5208082 C43.8618808,22.0399689 43.6314774,22.5316245 43.3168217,22.975146 C43.2652388,23.0456281 43.1534761,23.1384582 43.1741092,23.2330073 C43.198181,23.3447472 43.3305773,23.361938 43.4234265,23.3808478 C43.8532835,23.4616443 44.2814216,23.5338455 44.7147176,23.5854177 C45.3044816,23.6558999 45.8959653,23.7109103 46.487449,23.7521681 C47.670416,23.8278074 48.8533834,23.8484363 50.0380697,23.8088976 C51.7403047,23.7538872 53.4373811,23.6026085 55.1172633,23.3155229 C55.6004229,23.2330073 56.0835825,23.1384582 56.5615834,23.0318755 C58.0953141,22.6897795 59.6049731,22.222191 61.0355381,21.5689423 C61.6854823,21.2732613 62.3182319,20.9397607 62.9269098,20.5632832 C63.2432848,20.3655895 63.5665374,20.1317952 63.7556748,19.8000137 C63.802099,19.7209362 63.8399268,19.6384206 63.8708765,19.5524668 C63.9998334,19.1983373 64.0153082,18.80295 63.9895168,18.4333487 C63.9706033,18.1359487 63.925898,17.8385486 63.8691568,17.5463058 Z" id="Fill-54"></path>
                            <path d="M47.8414003,31.5089177 C47.8603045,31.0585202 47.5440856,30.6940764 47.2845801,30.362295 C46.9614866,29.9462789 46.6572981,29.5147912 46.3445161,29.0884607 C46.1554725,28.8305995 45.96471,28.5727383 45.7756659,28.3148772 C45.167288,27.4880023 44.5589106,26.6594084 43.9505328,25.8342525 C43.462456,25.1706898 42.9760972,24.5105652 42.4897389,23.8452833 C41.6063882,24.599957 40.4635321,25.0572309 39.2117175,25.0572309 C37.3357145,25.0572309 35.710968,24.0275052 34.844975,22.5078433 C34.8468654,22.4236086 34.9138901,22.3548456 34.9989598,22.3548456 C35.8842009,23.124991 36.91724,23.5771077 38.0612994,23.5771077 C38.7494192,23.5771077 39.3911374,23.4017621 39.9685806,23.1181147 C40.3449499,22.9135449 40.5563355,22.7742998 40.7522537,22.6144259 C41.4620276,22.0093116 41.9105771,21.3423107 42.1597715,20.5756035 C42.2938206,20.1544302 42.3849055,19.7160662 42.3849055,19.2519161 C42.3849055,17.1322971 40.8570871,15.3874364 38.8435975,15.0178354 C38.86233,14.9232863 38.8712666,14.871714 38.8793439,14.82358 C39.007722,14.0740635 39.0828239,13.3881527 39.0828239,12.6781749 C39.0828239,12.219182 39.0561859,11.7687845 39.0063471,11.3235441 C38.9951763,11.1928945 38.9680227,11.067402 38.9489465,10.9367524 C38.9075287,10.6221618 38.8597521,10.3075711 38.7947897,10.0032949 C38.7616211,9.8623308 38.7238124,9.72652389 38.689097,9.59071701 C38.6150262,9.29675524 38.5370026,9.00623164 38.4428244,8.71742713 C38.402094,8.59193469 38.3522551,8.46816129 38.309978,8.34266884 C38.2011918,8.05214524 38.0858751,7.76334073 37.9580126,7.4831316 C37.9131577,7.37482989 37.8578194,7.27168543 37.8090117,7.1651028 C37.664479,6.87286011 37.5123846,6.58233651 37.3492913,6.3004083 C37.296359,6.21445457 37.2480668,6.13021989 37.1977124,6.04942341 C37.0150273,5.75202351 36.8185935,5.46149987 36.6090984,5.17785257 C36.5657902,5.12112313 36.5216226,5.06095551 36.4762521,5.0007879 C36.2492275,4.69994987 36.0050172,4.4128644 35.7491205,4.13265527 C35.3720638,3.72867274 35.0805925,3.43986819 34.7729665,3.17169257 C32.5374362,1.21710479 29.6735928,0.0326624186 26.5261836,0.0275051914 C26.4560654,0.0206288943 18.928566,0.0114604971 3.94368518,0 C2.4452544,0 1.22024984,1.07270253 1.22024984,2.38263733 C1.22024984,3.69429124 2.4452544,4.7652747 3.94368518,4.7652747 L22.1508481,4.7652747 C22.9494727,4.7652747 23.6025335,5.325693 23.6025335,6.01332283 C23.6025335,6.69923357 22.9494727,7.25965187 22.1508481,7.25965187 L11.0922948,7.25965187 C9.67034088,7.25965187 8.50789268,8.28078219 8.50789268,9.5236731 C8.50789268,10.7682831 9.67034088,11.7894134 11.0922948,11.7894134 L25.950287,11.7894134 C26.7482242,11.7894134 27.4007694,12.3498317 27.4007694,13.0357424 C27.4007694,13.7216532 26.7482242,14.2855096 25.950287,14.2855096 L16.9100353,14.2855096 C15.5597462,14.2855096 14.4555578,15.2533486 14.4555578,16.4343528 C14.4555578,17.6170761 15.5597462,18.5866342 16.9100353,18.5866342 L29.3190496,18.5866342 C30.1388127,18.5866342 30.8018413,19.1453334 30.8018413,19.8329633 C30.8018413,20.5223121 30.1388127,21.0810114 29.3190496,21.0810114 L19.8453717,21.0810114 C20.7744366,24.8646945 20.2236314,28.8890481 19.0706353,32.5644295 C18.7095615,33.7076141 18.2764791,34.8284507 17.7681228,35.9149058 C17.4407331,36.6094119 17.0610985,37.279851 16.6720118,37.9416947 C16.3336232,38.5107084 15.9539887,39.0883175 16.1523129,39.7776663 C16.2655674,40.1696151 16.5491333,40.5065541 16.9165659,40.6801804 C17.7050509,41.0549387 18.9326333,40.5804741 19.7089163,40.3552753 C20.6812895,40.0716283 21.6182599,39.6728028 22.5053914,39.1811475 C24.378301,38.1462646 26.0207489,36.7108373 27.3529929,35.0381778 C28.2949471,33.8606117 29.0834321,32.5592723 29.7007464,31.1822935 C30.1891671,30.0924003 30.5114011,28.9406203 30.8391345,27.7957167 C31.0113363,27.1906024 31.2469537,26.5940835 31.6437741,26.097271 C31.8642681,25.8204999 32.4095738,25.291025 32.7373072,25.7242318 C32.9392405,25.9872502 32.7151375,26.3671657 32.6371139,26.6422176 C32.2851486,27.8851085 31.9785537,29.2706826 31.9256214,30.5651457 C31.57125,39.0419025 36.5926,46.6608407 47.2931728,48 C47.4890911,47.9638993 47.6420448,47.8040254 47.6472005,47.5994554 C47.6523563,47.4911541 47.612829,47.3966049 47.5543972,47.3140894 C45.6639579,45.1824369 44.5571917,42.3511209 44.6860855,39.2791347 C44.7995119,36.5612778 45.8633135,34.1133157 47.5320556,32.2223337 C47.7073508,32.0349545 47.8310888,31.7891268 47.8414003,31.5089177 Z" id="Fill-55"></path>
                        </g>
                    </g>
                </g>
            </g>
        </g>
    </g>
</svg>