<svg xmlns="http://www.w3.org/2000/svg" viewBox="0 0 64 42">
  <g fill="none" fill-rule="nonzero">
    <path fill="#FFF" d="M63.9999998 37.475356c-.001095 2.4988253-2.0225221 4.5240955-4.516058 4.524644H21.5869444c-2.4420239 0-4.4972122-1.9134314-4.5835063-4.3586477-.0315487-.807438.1544987-1.6084867.5385942-2.3189794l.1200183-.210726 18.866668-32.74601791.1091075-.18885816C37.457715.82513278 38.9218089 0 40.5002311 0c1.5784223 0 3.0425162.82513278 3.862405 2.17677083l.1081156.18885816L63.3433711 35.1275508c.4297036.7073975.6568725 1.5196503.6566287 2.3478052z"/>
    <path fill="#ADADAD" d="M46.999999 37.475356C46.9989061 39.97263 44.9798867 41.9972584 42.4878899 42H4.5867688C2.14572671 42 .09052996 40.0865686.00324361 37.6413523c-.03057134-.8073446.15541757-1.608138.53859645-2.3189794l.12101062-.210726L19.5295965 2.36562899l.1081161-.18885816C20.4576048.82513278 21.9217048 0 23.5001335 0s3.0425287.82513278 3.8624209 2.17677083l.108116.18885816L46.3443595 35.1275508c.4293574.7074989.6561822 1.519745.6556395 2.3478052z"/>
    <path fill="#D5D5D4" d="M47 37.4304349C46.9994521 39.9527318 44.9736137 41.9977851 42.4733698 42H21.60273c-2.4010735 0-4.5117105-1.9767332-4.5992393-4.3979806-.0318487-.8157563.1547183-1.6251046.5400923-2.3429808l.1213467-.213728L31.9987614 10l14.3427835 25.0613653c.4306283.7138573.6584148 1.533415.6584551 2.3690696z"/>
  </g>
</svg>