<?xml version="1.0" encoding="UTF-8"?>
<svg width="1130px" height="217px" viewBox="0 0 1130 217" version="1.1" xmlns="http://www.w3.org/2000/svg" xmlns:xlink="http://www.w3.org/1999/xlink">
    <!-- Generator: Sketch 49.3 (51167) - http://www.bohemiancoding.com/sketch -->
    <title>meant-logo-text</title>
    <desc>Created with Sketch.</desc>
    <defs></defs>
    <g id="Page-1" stroke="none" stroke-width="1" fill="none" fill-rule="evenodd">
        <g id="meant-logo-text">
            <path d="M374.44,188 L374.44,46.18 L389.28,46.18 C392.826684,46.18 395.066662,47.9066494 396,51.36 L397.82,65.92 C403.046693,59.4799678 408.903301,54.2066872 415.39,50.1 C421.876699,45.9933128 429.41329,43.94 438,43.94 C447.613381,43.94 455.383304,46.5999734 461.31,51.92 C467.236696,57.2400266 471.506654,64.4266214 474.12,73.48 C476.08001,68.346641 478.669984,63.913352 481.89,60.18 C485.110016,56.446648 488.726647,53.3666788 492.74,50.94 C496.753353,48.5133212 501.023311,46.7400056 505.55,45.62 C510.076689,44.4999944 514.67331,43.94 519.34,43.94 C526.806704,43.94 533.456638,45.1299881 539.29,47.51 C545.123362,49.8900119 550.06998,53.3666438 554.13,57.94 C558.19002,62.5133562 561.293323,68.1366333 563.44,74.81 C565.586677,81.4833667 566.66,89.1132904 566.66,97.7 L566.66,188 L541.74,188 L541.74,97.7 C541.74,86.5932778 539.313358,78.1700287 534.46,72.43 C529.606642,66.6899713 522.560046,63.82 513.32,63.82 C509.213313,63.82 505.316685,64.5433261 501.63,65.99 C497.943315,67.4366739 494.700014,69.559986 491.9,72.36 C489.099986,75.160014 486.883342,78.6833121 485.25,82.93 C483.616658,87.1766879 482.8,92.099972 482.8,97.7 L482.8,188 L457.88,188 L457.88,97.7 C457.88,86.3132764 455.593356,77.820028 451.02,72.22 C446.446644,66.619972 439.773377,63.82 431,63.82 C424.839969,63.82 419.12336,65.4766501 413.85,68.79 C408.57664,72.1033499 403.746689,76.6066382 399.36,82.3 L399.36,188 L374.44,188 Z M661.393333,43.94 C669.886709,43.94 677.726631,45.3633191 684.913333,48.21 C692.100036,51.0566809 698.306641,55.1633065 703.533333,60.53 C708.760026,65.8966935 712.843319,72.5232939 715.783333,80.41 C718.723348,88.2967061 720.193333,97.2799496 720.193333,107.36 C720.193333,111.28002 719.773338,113.893327 718.933333,115.2 C718.093329,116.506673 716.506678,117.16 714.173333,117.16 L619.813333,117.16 C620.000001,126.120045 621.213322,133.9133 623.453333,140.54 C625.693345,147.1667 628.773314,152.696644 632.693333,157.13 C636.613353,161.563356 641.279973,164.876656 646.693333,167.07 C652.106694,169.263344 658.1733,170.36 664.893333,170.36 C671.146698,170.36 676.536644,169.636674 681.063333,168.19 C685.590023,166.743326 689.48665,165.180008 692.753333,163.5 C696.020016,161.819992 698.749989,160.256674 700.943333,158.81 C703.136678,157.363326 705.026659,156.64 706.613333,156.64 C708.666677,156.64 710.253328,157.433325 711.373333,159.02 L718.373333,168.12 C715.293318,171.853352 711.606688,175.096653 707.313333,177.85 C703.019979,180.603347 698.423358,182.866658 693.523333,184.64 C688.623309,186.413342 683.560026,187.743329 678.333333,188.63 C673.106641,189.516671 667.926692,189.96 662.793333,189.96 C652.993284,189.96 643.963375,188.30335 635.703333,184.99 C627.443292,181.67665 620.303363,176.823365 614.283333,170.43 C608.263303,164.036635 603.57335,156.126714 600.213333,146.7 C596.853317,137.273286 595.173333,126.446728 595.173333,114.22 C595.173333,104.326617 596.689985,95.0867096 599.723333,86.5 C602.756682,77.9132904 607.119972,70.4700315 612.813333,64.17 C618.506695,57.8699685 625.459959,52.9233513 633.673333,49.33 C641.886708,45.7366487 651.126615,43.94 661.393333,43.94 Z M661.953333,62.28 C649.913273,62.28 640.440035,65.7566319 633.533333,72.71 C626.626632,79.6633681 622.333342,89.2999384 620.653333,101.62 L697.793333,101.62 C697.793333,95.8333044 697.000008,90.5366907 695.413333,85.73 C693.826659,80.9233093 691.493349,76.7700175 688.413333,73.27 C685.333318,69.7699825 681.576689,67.0633429 677.143333,65.15 C672.709978,63.2366571 667.646695,62.28 661.953333,62.28 Z M857.066667,188 L846.006667,188 C843.579988,188 841.620007,187.62667 840.126667,186.88 C838.633326,186.13333 837.653336,184.546679 837.186667,182.12 L834.386667,168.96 C830.653315,172.320017 827.013351,175.329987 823.466667,177.99 C819.919982,180.650013 816.186686,182.889991 812.266667,184.71 C808.346647,186.530009 804.170022,187.906662 799.736667,188.84 C795.303311,189.773338 790.380027,190.24 784.966667,190.24 C779.459972,190.24 774.303357,189.470008 769.496667,187.93 C764.689976,186.389992 760.513351,184.080015 756.966667,181 C753.419982,177.919985 750.596677,174.023357 748.496667,169.31 C746.396656,164.596643 745.346667,159.020032 745.346667,152.58 C745.346667,146.979972 746.886651,141.590026 749.966667,136.41 C753.046682,131.229974 758.016632,126.633353 764.876667,122.62 C771.736701,118.606647 780.719944,115.316679 791.826667,112.75 C802.933389,110.18332 816.513253,108.713335 832.566667,108.34 L832.566667,97.28 C832.566667,86.2666116 830.210024,77.9366949 825.496667,72.29 C820.78331,66.6433051 813.806713,63.82 804.566667,63.82 C798.49997,63.82 793.390021,64.5899923 789.236667,66.13 C785.083313,67.6700077 781.490015,69.3966571 778.456667,71.31 C775.423318,73.2233429 772.810011,74.9499923 770.616667,76.49 C768.423322,78.0300077 766.253344,78.8 764.106667,78.8 C762.426658,78.8 760.956673,78.3566711 759.696667,77.47 C758.43666,76.5833289 757.433337,75.4866732 756.686667,74.18 L752.206667,66.2 C760.046706,58.6399622 768.493288,52.993352 777.546667,49.26 C786.600045,45.526648 796.633278,43.66 807.646667,43.66 C815.58004,43.66 822.626636,44.9666536 828.786667,47.58 C834.946697,50.1933464 840.126646,53.83331 844.326667,58.5 C848.526688,63.16669 851.699989,68.8133002 853.846667,75.44 C855.993344,82.0666998 857.066667,89.346627 857.066667,97.28 L857.066667,188 Z M792.386667,172.74 C796.773355,172.74 800.786648,172.296671 804.426667,171.41 C808.066685,170.523329 811.496651,169.263341 814.716667,167.63 C817.936683,165.996658 821.016652,164.013345 823.956667,161.68 C826.896681,159.346655 829.766653,156.686682 832.566667,153.7 L832.566667,124.16 C821.086609,124.533335 811.333373,125.443326 803.306667,126.89 C795.27996,128.336674 788.746692,130.226655 783.706667,132.56 C778.666641,134.893345 775.003345,137.646651 772.716667,140.82 C770.429989,143.993349 769.286667,147.53998 769.286667,151.46 C769.286667,155.193352 769.893327,158.41332 771.106667,161.12 C772.320006,163.82668 773.953323,166.043325 776.006667,167.77 C778.06001,169.496675 780.486653,170.756663 783.286667,171.55 C786.086681,172.343337 789.119984,172.74 792.386667,172.74 Z M895.8,188 L895.8,46.18 L910.64,46.18 C914.186684,46.18 916.426662,47.9066494 917.36,51.36 L919.32,66.76 C925.480031,59.9466326 932.363295,54.440021 939.97,50.24 C947.576705,46.039979 956.373283,43.94 966.36,43.94 C974.106705,43.94 980.943304,45.2233205 986.87,47.79 C992.796696,50.3566795 997.743314,53.9966431 1001.71,58.71 C1005.67669,63.4233569 1008.68666,69.0933002 1010.74,75.72 C1012.79334,82.3466998 1013.82,89.6732932 1013.82,97.7 L1013.82,188 L988.9,188 L988.9,97.7 C988.9,86.966613 986.450025,78.6366963 981.55,72.71 C976.649976,66.7833037 969.16005,63.82 959.08,63.82 C951.70663,63.82 944.823365,65.5933156 938.43,69.14 C932.036635,72.6866844 926.13336,77.493303 920.72,83.56 L920.72,188 L895.8,188 Z M1095.39333,190.24 C1084.19328,190.24 1075.58336,187.113365 1069.56333,180.86 C1063.5433,174.606635 1060.53333,165.600059 1060.53333,153.84 L1060.53333,67.04 L1043.45333,67.04 C1041.95999,67.04 1040.70001,66.5966711 1039.67333,65.71 C1038.64666,64.8233289 1038.13333,63.446676 1038.13333,61.58 L1038.13333,51.64 L1061.37333,48.7 L1067.11333,4.88 C1067.3,3.479993 1067.90666,2.3366711 1068.93333,1.45 C1069.96001,0.5633289 1071.26666,0.12 1072.85333,0.12 L1085.45333,0.12 L1085.45333,48.98 L1126.05333,48.98 L1126.05333,67.04 L1085.45333,67.04 L1085.45333,152.16 C1085.45333,158.133363 1086.89999,162.566652 1089.79333,165.46 C1092.68668,168.353348 1096.41998,169.8 1100.99333,169.8 C1103.60668,169.8 1105.86999,169.450003 1107.78333,168.75 C1109.69668,168.049996 1111.35333,167.280004 1112.75333,166.44 C1114.15334,165.599996 1115.34333,164.830003 1116.32333,164.13 C1117.30334,163.429996 1118.16666,163.08 1118.91333,163.08 C1120.22001,163.08 1121.38666,163.873325 1122.41333,165.46 L1129.69333,177.36 C1125.39998,181.373353 1120.22003,184.523322 1114.15333,186.81 C1108.08664,189.096678 1101.83337,190.24 1095.39333,190.24 Z" id="meant" fill="#03061A"></path>
            <path d="M221.693431,194.854015 C221.693431,206.617277 212.157423,216.153285 200.394161,216.153285 L21.2992701,216.153285 C13.7976862,216.147896 6.85125408,212.199345 3.00889657,205.756514 C-0.833460937,199.313682 -1.00594163,191.325302 2.55474453,184.722628 L3.12408759,183.729927 L92.1167883,29.5985401 L92.6277372,28.6788321 C96.4860642,22.2856843 103.408716,18.3779149 110.875912,18.3779149 C118.343109,18.3779149 125.265761,22.2856843 129.124088,28.6788321 L129.635036,29.5693431 L218.686131,183.773723 C220.685975,187.121371 221.726364,190.954651 221.693431,194.854015 Z" id="Shape" fill="#03061A" fill-rule="nonzero"></path>
            <path d="M302.277372,194.854015 C302.277372,206.617277 292.741364,216.153285 280.978102,216.153285 L101.883212,216.153285 C94.3946488,216.122293 87.4717267,212.163554 83.6470416,205.725284 C79.8223564,199.287014 79.6570815,191.313862 83.2116788,184.722628 L83.7810219,183.729927 L172.832117,29.5985401 L173.343066,28.7080292 C177.201393,22.3148814 184.124044,18.4071119 191.591241,18.4071119 C199.058438,18.4071119 205.981089,22.3148814 209.839416,28.7080292 L210.350365,29.5985401 L299.40146,183.80292 C301.35018,187.15533 302.34471,190.97695 302.277372,194.854015 Z" id="Shape" fill="#353848" fill-rule="nonzero" opacity="0.8"></path>
        </g>
    </g>
</svg>