<svg xmlns="http://www.w3.org/2000/svg" viewBox="0 0 861 159.06"><defs><style>.a{fill:#5c606d;}.b{fill:#03061a;}.c{fill:#2b2e3f;}</style></defs><title>meant-logo-with-text</title><path class="a" d="M480.91,444.13a16,16,0,0,1-16,15.95H331.18a16.17,16.17,0,0,1-16.27-14.94,15.8,15.8,0,0,1,1.88-8.6l.43-.74,66.65-115.44.38-.67a16,16,0,0,1,27.29,0l.38.67,66.67,115.49A15.89,15.89,0,0,1,480.91,444.13Z" transform="translate(-254.52 -301.02)"/><path class="b" d="M420.56,444.13a16,16,0,0,1-16,15.95H270.83a16.18,16.18,0,0,1-16.28-14.94,16,16,0,0,1,1.88-8.6l.43-.74,66.65-115.44.38-.67a16,16,0,0,1,27.29,0l.39.67,66.67,115.49A16,16,0,0,1,420.56,444.13Z" transform="translate(-254.52 -301.02)"/><path class="c" d="M420.56,444.12a16,16,0,0,1-15.95,16H331.19c-8.24,0-15.77-6.7-16.28-14.93a15.83,15.83,0,0,1,1.88-8.61l.43-.74,50.49-87.47,50.53,87.52A15.86,15.86,0,0,1,420.56,444.12Z" transform="translate(-254.52 -301.02)"/><path class="b" d="M509.64,452.5V338.16h12a5.12,5.12,0,0,1,5.42,4.17l1.47,11.74a58.56,58.56,0,0,1,14.16-12.75,33.37,33.37,0,0,1,18.23-5q11.63,0,18.79,6.44T590,360.17a35.68,35.68,0,0,1,6.27-10.72A36.2,36.2,0,0,1,605,342a36.92,36.92,0,0,1,10.33-4.29,45.75,45.75,0,0,1,11.12-1.36,42.23,42.23,0,0,1,16.08,2.88,31.92,31.92,0,0,1,12,8.41,37.5,37.5,0,0,1,7.5,13.6,60.25,60.25,0,0,1,2.6,18.46v72.8H644.52V379.7q0-13.44-5.87-20.38t-17-6.94a25.46,25.46,0,0,0-9.42,1.75,22.67,22.67,0,0,0-7.84,5.14,24,24,0,0,0-5.37,8.52,33.18,33.18,0,0,0-2,11.91v72.8H576.91V379.7q0-13.77-5.53-20.55t-16.14-6.77a25.52,25.52,0,0,0-13.83,4,45.15,45.15,0,0,0-11.68,10.89V452.5Z" transform="translate(-254.52 -301.02)"/><path class="b" d="M740.23,336.35a51,51,0,0,1,19,3.45,42.53,42.53,0,0,1,15,9.93,45.35,45.35,0,0,1,9.87,16,61.91,61.91,0,0,1,3.56,21.72q0,4.74-1,6.32c-.68,1.06-2,1.58-3.84,1.58H706.71a63.26,63.26,0,0,0,2.93,18.85,38.53,38.53,0,0,0,7.45,13.38,29.83,29.83,0,0,0,11.29,8,38.72,38.72,0,0,0,14.67,2.66,43.28,43.28,0,0,0,13-1.75,61.55,61.55,0,0,0,9.42-3.79,69.69,69.69,0,0,0,6.61-3.78,8.81,8.81,0,0,1,4.57-1.75,4.44,4.44,0,0,1,3.84,1.92l5.64,7.34a37.9,37.9,0,0,1-8.92,7.84,55.46,55.46,0,0,1-11.11,5.48A70.26,70.26,0,0,1,753.89,453a74.34,74.34,0,0,1-12.53,1.08,58.17,58.17,0,0,1-21.84-4,47.82,47.82,0,0,1-17.27-11.74,53.86,53.86,0,0,1-11.34-19.13A77.78,77.78,0,0,1,686.84,393a66.73,66.73,0,0,1,3.67-22.34,52.73,52.73,0,0,1,10.56-18,48.59,48.59,0,0,1,16.81-12A55.15,55.15,0,0,1,740.23,336.35Zm.45,14.79q-14.55,0-22.91,8.41t-10.38,23.31h62.19a40.61,40.61,0,0,0-1.92-12.81A28.56,28.56,0,0,0,762,360a25.49,25.49,0,0,0-9.09-6.55A30.69,30.69,0,0,0,740.68,351.14Z" transform="translate(-254.52 -301.02)"/><path class="b" d="M897.23,452.5h-8.91a10.5,10.5,0,0,1-4.74-.91q-1.82-.9-2.37-3.83L879,437.15q-4.51,4.07-8.81,7.28a50.14,50.14,0,0,1-9,5.41A46.65,46.65,0,0,1,851,453.17a57.34,57.34,0,0,1-11.9,1.13,40.72,40.72,0,0,1-12.48-1.86,28.55,28.55,0,0,1-10.1-5.61,26.79,26.79,0,0,1-6.83-9.46,33.17,33.17,0,0,1-2.54-13.53,25.25,25.25,0,0,1,3.73-13.08q3.72-6.28,12-11.16t21.73-8q13.43-3.11,32.84-3.11v-9q0-13.41-5.7-20.28t-16.87-6.87a35.75,35.75,0,0,0-12.36,1.86,46.62,46.62,0,0,0-8.69,4.18q-3.68,2.31-6.32,4.18a9.13,9.13,0,0,1-5.25,1.86,6.06,6.06,0,0,1-3.56-1.07,8.35,8.35,0,0,1-2.43-2.66l-3.61-6.43a65.2,65.2,0,0,1,20.43-13.66,63.09,63.09,0,0,1,24.27-4.51,43.19,43.19,0,0,1,17,3.16,34.93,34.93,0,0,1,12.53,8.8,37.24,37.24,0,0,1,7.68,13.66,56.89,56.89,0,0,1,2.59,17.61Zm-52.14-12.31a40.71,40.71,0,0,0,9.7-1.07,37.91,37.91,0,0,0,8.3-3.05,43.41,43.41,0,0,0,7.45-4.79,64.54,64.54,0,0,0,6.94-6.44V401.25A135.07,135.07,0,0,0,853.89,403a66.24,66.24,0,0,0-15.8,4.6q-6.09,2.83-8.86,6.7a14.42,14.42,0,0,0-2.77,8.63,19.1,19.1,0,0,0,1.47,7.83,14.87,14.87,0,0,0,4,5.39,15.54,15.54,0,0,0,5.87,3.07A26.81,26.81,0,0,0,845.09,440.19Z" transform="translate(-254.52 -301.02)"/><path class="b" d="M927.71,452.5V338.16h12a5.12,5.12,0,0,1,5.42,4.17l1.58,12.42a64.36,64.36,0,0,1,16.65-13.32,43.34,43.34,0,0,1,21.27-5.08,41.29,41.29,0,0,1,16.54,3.11,32,32,0,0,1,12,8.8,38.73,38.73,0,0,1,7.28,13.72,59.52,59.52,0,0,1,2.49,17.72v72.8h-20.09V379.7q0-13-5.93-20.15t-18.12-7.17a33.74,33.74,0,0,0-16.64,4.29A54.53,54.53,0,0,0,947.8,368.3v84.2Z" transform="translate(-254.52 -301.02)"/><path class="b" d="M1087.87,454.3q-13.55,0-20.82-7.56T1059.77,425V355H1046a4.48,4.48,0,0,1-3-1.08,4.15,4.15,0,0,1-1.24-3.33v-8l18.73-2.37,4.63-35.33a4.24,4.24,0,0,1,1.47-2.76,4.64,4.64,0,0,1,3.16-1.08h10.16v39.4h32.73V355h-32.73V423.6q0,7.23,3.5,10.73a12.22,12.22,0,0,0,9,3.49,16,16,0,0,0,5.47-.84,24.72,24.72,0,0,0,4-1.86c1.13-.68,2.09-1.3,2.88-1.87a3.77,3.77,0,0,1,2.08-.84,3.46,3.46,0,0,1,2.83,1.92l5.86,9.59a37.42,37.42,0,0,1-12.52,7.62A42.69,42.69,0,0,1,1087.87,454.3Z" transform="translate(-254.52 -301.02)"/></svg>