<?xml version="1.0" encoding="UTF-8"?>
<svg width="122px" height="122px" viewBox="0 0 122 122" version="1.1" xmlns="http://www.w3.org/2000/svg" xmlns:xlink="http://www.w3.org/1999/xlink" style="background: #FFFFFF;">
    <!-- Generator: Sketch 49.3 (51167) - http://www.bohemiancoding.com/sketch -->
    <title>Artboard</title>
    <desc>Created with Sketch.</desc>
    <defs></defs>
    <g id="Artboard" stroke="none" stroke-width="1" fill="none" fill-rule="evenodd">
        <g id="ilustration-2">
            <g transform="translate(2.000000, 20.000000)">
                <g id="bell" transform="translate(0.000000, 4.000000)" stroke="#000000" stroke-linecap="round" stroke-linejoin="round" stroke-width="2">
                    <path d="M22,16.5 L0,16.5 C1.82253967,16.5 3.3,15.0225397 3.3,13.2 L3.3,7.7 C3.30000006,3.44740747 6.74740747,1.1473894e-07 11,1.1473894e-07 C15.2525925,1.14738941e-07 18.6999999,3.44740747 18.7,7.7 L18.7,13.2 C18.7,15.0225397 20.1774603,16.5 22,16.5 Z M12.903,20.9 C12.5094225,21.5784848 11.7843755,21.9961019 11,21.9961019 C10.2156245,21.9961019 9.49057754,21.5784848 9.097,20.9 L12.903,20.9 Z" id="Shape"></path>
                </g>
                <circle id="Oval" stroke="#FFFFFF" stroke-width="3" fill="#D0021B" cx="19" cy="5" r="5"></circle>
                <rect id="Rectangle" fill="#D0021B" opacity="0.1" x="34" y="10" width="62" height="7" rx="3.5"></rect>
                <rect id="Rectangle" fill="#D0021B" opacity="0.1" x="34" y="27" width="62" height="7" rx="3.5"></rect>
                <rect id="Rectangle" fill="#D0021B" opacity="0.1" x="34" y="44" width="62" height="7" rx="3.5"></rect>
                <rect id="Rectangle" fill="#D0021B" opacity="0.1" x="34" y="61" width="62" height="7" rx="3.5"></rect>
                <rect id="Rectangle" fill="#D0021B" opacity="0.1" x="34" y="78" width="62" height="7" rx="3.5"></rect>
            </g>
        </g>
    </g>
</svg>