<?xml version="1.0" encoding="UTF-8"?>
<svg width="1024px" height="688px" viewBox="0 0 1024 688" version="1.1" xmlns="http://www.w3.org/2000/svg" xmlns:xlink="http://www.w3.org/1999/xlink">
    <!-- Generator: Sketch 53 (72520) - https://sketchapp.com -->
    <title>ilustration team look videos</title>
    <desc>Created with Sketch.</desc>
    <defs>
        <rect id="path-1" x="0" y="0" width="160" height="160" rx="15"></rect>
        <rect id="path-3" x="0" y="0" width="160" height="160" rx="15"></rect>
        <rect id="path-5" x="0" y="0" width="160" height="160" rx="15"></rect>
        <path d="M22.9285033,5.49834437 L2.95444371,5.49834437 C1.89387417,5.49834437 1.06056954,4.67725828 1.06056954,3.66556291 C1.06056954,2.65386755 1.89387417,1.83278146 2.95444371,1.83278146 L22.9285033,1.83278146 C23.9890728,1.83278146 24.8223775,2.65386755 24.8223775,3.66556291 C24.8223775,4.67725828 23.9890728,5.49834437 22.9285033,5.49834437 L22.9285033,5.49834437 Z" id="path-7"></path>
        <rect id="path-9" x="0" y="0" width="160" height="160" rx="15"></rect>
        <path d="M17.3811762,12.4519371 C11.3609642,12.4493576 5.85534305,10.4631656 1.70364503,7.14338742 C0.884296689,6.49078146 0.734415894,5.27327152 1.36891126,4.42978477 C1.73861722,3.93710596 2.29317616,3.67915894 2.85273113,3.67915894 C3.25241325,3.67915894 3.65709139,3.81071192 3.99682119,4.08413576 C7.4490755,6.84932781 12.1628265,8.58531126 17.3811762,8.58273179 C17.3886702,8.58273179 17.3961642,8.58273179 17.4036583,8.58273179 C24.4505536,8.58273179 30.5681881,5.39708609 33.9130278,0.828844371 C34.2802358,0.325847682 34.8397907,0.0627417219 35.4068397,0.0627417219 C35.8015258,0.0627417219 36.1987099,0.191715232 36.5384397,0.457400662 C37.3627841,1.10226821 37.522657,2.31461921 36.8981536,3.16584437 C32.7264715,8.82778146 25.5172053,12.4441987 17.3811762,12.4519371 L17.3811762,12.4519371 Z" id="path-11"></path>
    </defs>
    <g id="ilustration-team-look-videos" stroke="none" stroke-width="1" fill="none" fill-rule="evenodd">
        <circle id="Oval" fill-opacity="0.1" fill="#7289DA" cx="512" cy="344" r="265"></circle>
        <g id="Play-button" transform="translate(417.000000, 249.000000)">
            <circle id="Oval" fill="#7289DA" cx="95" cy="95" r="95"></circle>
            <path d="M122,111.475356 C121.998905,113.974181 119.977478,115.999452 117.483942,116 L79.5869444,116 C77.1449205,116 75.0897322,114.086569 75.0034381,111.641352 C74.9718894,110.833914 75.1579368,110.032866 75.5420323,109.322373 L75.6620506,109.111647 L94.5287186,76.365629 L94.6378261,76.1767708 C95.457715,74.8251328 96.9218089,74 98.5002311,74 C100.078653,74 101.542747,74.8251328 102.362636,76.1767708 L102.470752,76.365629 L121.343371,109.127551 C121.773075,109.834948 122.000244,110.647201 122,111.475356 L122,111.475356 Z" id="Shape" fill="#FFFFFF" fill-rule="nonzero" transform="translate(98.500000, 95.000000) rotate(90.000000) translate(-98.500000, -95.000000) "></path>
        </g>
        <g id="Faces" transform="translate(167.000000, -1.000000)">
            <g id="face" transform="translate(0.000000, 265.000000)">
                <mask id="mask-2" fill="white">
                    <use xlink:href="#path-1"></use>
                </mask>
                <use id="Mask" fill="#42464D" xlink:href="#path-1"></use>
                <g id="Angerfist" mask="url(#mask-2)">
                    <g transform="translate(19.000000, 20.000000)">
                        <polyline id="Fill-111" fill="#F4B48A" points="61.0927152 68.4238411 61.0927152 89.4959803 102.635762 89.602649 78.4885969 68.4238411 61.0927152 68.4238411"></polyline>
                        <path d="M71.5513662,79.2413285 L74.0283931,80.7496062 C80.1415844,84.4730113 87.6180224,84.3087435 93.4540286,80.971119 L103.450331,89.602649 L59.4635762,89.4981149 L60.620194,69.2384106 C63.6188327,72.8672372 66.6804681,76.3168626 71.5513662,79.2413285" id="Fill-113" fill="#2B3A4D"></path>
                        <path d="M61.0914544,151.509934 C53.0271529,151.509934 46.4304636,144.986395 46.4304636,137.011519 L46.4304636,117.13667 C46.4304636,109.161794 53.0271529,102.635762 61.0914544,102.635762 C69.1557558,102.635762 75.7549669,109.161794 75.7549669,117.13667 L75.7549669,137.011519 C75.7549669,144.986395 69.1557558,151.509934 61.0914544,151.509934" id="Fill-610" fill="#F7C282"></path>
                        <path d="M122.18543,76.5695364 C122.18543,82.8670276 117.078948,87.9735099 110.781457,87.9735099 C104.481448,87.9735099 99.3774834,82.8670276 99.3774834,76.5695364 C99.3774834,70.2695272 104.481448,65.1655629 110.781457,65.1655629 C117.078948,65.1655629 122.18543,70.2695272 122.18543,76.5695364" id="Fill-611" fill="#F8CB95"></path>
                        <path d="M22.807947,76.5695364 C22.807947,82.8670276 17.7014647,87.9735099 11.4039735,87.9735099 C5.1039643,87.9735099 0,82.8670276 0,76.5695364 C0,70.2695272 5.1039643,65.1655629 11.4039735,65.1655629 C17.7014647,65.1655629 22.807947,70.2695272 22.807947,76.5695364" id="Fill-612" fill="#F8CB95"></path>
                        <path d="M61.0914608,126.258278 C33.7638446,126.258278 11.4039735,103.906299 11.4039735,76.5883291 L11.4039735,51.4022238 C11.4039735,24.0817454 33.7638446,12.218543 61.0914608,12.218543 C88.4215859,12.218543 110.781457,24.0817454 110.781457,51.4022238 L110.781457,76.5883291 C110.781457,103.906299 88.4215859,126.258278 61.0914608,126.258278" id="Fill-613" fill="#F8CB95"></path>
                        <path d="M119.620228,24.5995037 C117.597917,22.2868643 114.499333,23.0702179 111.50641,24.8265266 C115.086614,20.0415833 116.098998,15.1244179 112.155122,13.9244399 C107.909006,12.6321559 103.918443,28.0347837 103.031378,31.7095603 C102.795482,31.7619502 102.635762,31.7968767 102.635762,31.7968767 L102.955203,32.0263944 L102.938003,32.1012371 L102.751252,32.3107966 L102.881486,32.3407337 L102.844627,32.5028929 L103.065779,32.3756603 C103.205842,32.4031026 103.392593,32.4330397 103.628488,32.4704611 C104.404977,32.9619281 105.581996,33.6355124 107.017027,34.214296 C112.877552,36.5793253 115.204561,43.0157975 118.575899,38.1260744 C120.386888,35.4990957 117.317791,33.0692027 113.361629,31.8367929 C118.703676,30.4796452 122.367426,27.7428971 119.620228,24.5995037" id="Fill-614" fill="#341909"></path>
                        <path d="M10.589404,51.2305941 C10.589404,44.5256347 11.9984397,38.4906712 14.7773711,33.2907027 L15.5914807,31.7682119 L16.0455033,33.4232019 C16.6534761,35.6506884 17.0605308,37.6856761 17.2927608,39.6481642 C18.0546838,46.0031257 18.6835312,59.6255433 15.6410578,65.7005065 C14.5816717,67.8104937 13.1909013,69.1729855 11.4974492,69.742982 L10.589404,70.0529801 L10.589404,51.2305941" id="Fill-615" fill="#341909"></path>
                        <path d="M110.68776,69.7429618 C108.996504,69.172928 107.602784,67.8103473 106.54575,65.7002222 C103.499924,59.6248623 104.131535,46.0015552 104.893644,39.6461787 C105.13115,37.6585609 105.540914,35.6234403 106.143815,33.4208098 L106.597949,31.7682119 L107.409647,33.288302 C110.186647,38.4911102 111.596026,44.5264678 111.596026,51.2293649 L111.596026,70.0529801 L110.68776,69.7429618" id="Fill-616" fill="#341909"></path>
                        <path d="M108.337748,33.0588112 C108.337748,33.0588112 91.0593239,45.7864952 59.7969617,47.1098707 C28.5320808,48.4307158 3.5564457,39.8528135 2.53384507,30.9080097 C1.27196597,19.8883151 13.6766657,24.8275675 13.6766657,24.8275675 C13.6766657,24.8275675 2.92424679,16.3660614 9.51825776,9.87064101 C14.9939567,4.47592485 22.333509,14.8200147 22.333509,14.8200147 C22.333509,14.8200147 17.6033514,3.51692043 24.9126791,2.97289418 C31.5495083,2.47694466 33.4687735,12.0644585 38.5691831,9.25323447 C43.6695926,6.44454079 56.9986629,-5.12930147 77.5665367,2.64141772 C98.1344105,10.4096066 108.337748,33.0588112 108.337748,33.0588112" id="Fill-617" fill="#341909"></path>
                        <path d="M58.9225587,110.781457 C52.843714,110.781457 47.2844719,108.820079 43.0923392,105.546029 C42.265011,104.902412 42.1136704,103.704216 42.7543454,102.869804 C43.127652,102.383912 43.6850896,102.129518 44.2500943,102.129518 C44.6561914,102.129518 45.0648108,102.261802 45.4078493,102.528916 C48.8937262,105.25602 53.6533859,106.968091 58.9225587,106.965547 C58.9301257,106.965547 58.9376927,106.965547 58.9452597,106.965547 C66.060787,106.965547 72.2354806,103.823781 75.6154191,99.318464 C75.9862034,98.8223958 76.5512081,98.5629139 77.1237798,98.5629139 C77.5223098,98.5629139 77.9233622,98.6901109 78.2638784,98.9521367 C79.0962513,99.5881217 79.2602036,100.783773 78.629618,101.623274 C74.4147843,107.207221 67.1378271,110.776369 58.9225587,110.781457" id="Fill-618" fill="#CE9866"></path>
                        <path d="M34.6204746,83.9006623 L34.6204746,83.9006623 C31.2592964,83.9006623 28.5099338,81.2119125 28.5099338,77.9273178 L28.5099338,73.5826159 C28.5099338,70.2955386 31.2592964,67.6092715 34.6204746,67.6092715 C37.9791142,67.6092715 40.7284768,70.2955386 40.7284768,73.5826159 L40.7284768,77.9273178 C40.7284768,81.2119125 37.9791142,83.9006623 34.6204746,83.9006623" id="Fill-619" fill="#523B2E"></path>
                        <path d="M35.0264901,72.9052267 C35.0264901,74.0305858 34.1166786,74.9403974 32.9913194,74.9403974 C31.8659603,74.9403974 30.9536424,74.0305858 30.9536424,72.9052267 C30.9536424,71.7798675 31.8659603,70.8675497 32.9913194,70.8675497 C34.1166786,70.8675497 35.0264901,71.7798675 35.0264901,72.9052267" id="Fill-620" fill="#FFFFFF"></path>
                        <path d="M85.1225166,83.9006623 L85.1225166,83.9006623 C81.7606398,83.9006623 79.013245,81.2119125 79.013245,77.9273178 L79.013245,73.5826159 C79.013245,70.2955386 81.7606398,67.6092715 85.1225166,67.6092715 C88.4818541,67.6092715 91.2317881,70.2955386 91.2317881,73.5826159 L91.2317881,77.9273178 C91.2317881,81.2119125 88.4818541,83.9006623 85.1225166,83.9006623" id="Fill-621" fill="#523B2E"></path>
                        <path d="M85.5298013,72.9052267 C85.5298013,74.0305858 84.6174834,74.9403974 83.4921243,74.9403974 C82.3667652,74.9403974 81.4569536,74.0305858 81.4569536,72.9052267 C81.4569536,71.7798675 82.3667652,70.8675497 83.4921243,70.8675497 C84.6174834,70.8675497 85.5298013,71.7798675 85.5298013,72.9052267" id="Fill-622" fill="#FFFFFF"></path>
                        <polygon id="Fill-623" fill="#341909" points="26.8807947 61.9072848 42.3576159 61.9072848 42.3576159 57.8344371 26.8807947 57.8344371"></polygon>
                        <polygon id="Fill-624" fill="#341909" points="77.384106 61.9072848 92.8609272 61.9072848 92.8609272 57.8344371 77.384106 57.8344371"></polygon>
                    </g>
                </g>
            </g>
            <g id="face" transform="translate(530.000000, 265.000000)">
                <mask id="mask-4" fill="white">
                    <use xlink:href="#path-3"></use>
                </mask>
                <use id="Mask" fill="#42464D" xlink:href="#path-3"></use>
                <g id="Tatiana" mask="url(#mask-4)">
                    <g transform="translate(19.000000, 21.000000)">
                        <path d="M13.2145621,70.2980246 C13.2145621,70.2980246 2.86674536,79.508716 1.09572538,92.2294413 C-0.649994309,104.952684 6.18108275,114.382438 9.26771757,120.961863 C12.3290521,127.543806 14.3277747,135.218543 14.3277747,135.218543 C14.3277747,135.218543 26.2189088,129.515368 33.505391,117.67341 C40.7665729,105.828934 42.3098903,93.5463335 39.2232555,79.7277784 C36.1366207,65.9117413 18.2999195,65.6926789 13.2145621,70.2980246" id="Fill-799" fill="#4F2E1A"></path>
                        <path d="M62.1903498,140.92053 L60.8347538,140.92053 C54.7094679,140.92053 49.6887417,135.860132 49.6887417,129.676611 L49.6887417,102.475707 C49.6887417,96.2896502 54.7094679,91.2317881 60.8347538,91.2317881 L62.1903498,91.2317881 C68.3156358,91.2317881 73.3112583,96.2896502 73.3112583,102.475707 L73.3112583,129.676611 C73.3112583,135.860132 68.3156358,140.92053 62.1903498,140.92053" id="Fill-803" fill="#F7C282"></path>
                        <path d="M122.18543,65.9801325 C122.18543,72.2776237 117.075041,77.384106 110.781457,77.384106 C104.487873,77.384106 99.3774834,72.2776237 99.3774834,65.9801325 C99.3774834,59.6826412 104.487873,54.5761589 110.781457,54.5761589 C117.075041,54.5761589 122.18543,59.6826412 122.18543,65.9801325" id="Fill-804" fill="#F8CB95"></path>
                        <path d="M22.807947,65.9801325 C22.807947,72.2776237 17.6975571,77.384106 11.4039735,77.384106 C5.08521556,77.384106 0,72.2776237 0,65.9801325 C0,59.6826412 5.08521556,54.5761589 11.4039735,54.5761589 C17.6975571,54.5761589 22.807947,59.6826412 22.807947,65.9801325" id="Fill-805" fill="#F8CB95"></path>
                        <path d="M61.1052597,115.668874 L61.1052597,115.668874 C33.7833513,115.668874 11.4039735,93.3168955 11.4039735,65.9989251 L11.4039735,40.8128199 C11.4039735,13.4948495 33.7833513,1.62913907 61.1052597,1.62913907 C88.4271682,1.62913907 110.781457,13.4948495 110.781457,40.8128199 L110.781457,65.9989251 C110.781457,93.3168955 88.4271682,115.668874 61.1052597,115.668874" id="Fill-806" fill="#F8CB95"></path>
                        <path d="M61.5125241,11.8420064 C61.5125241,11.8420064 49.7899367,41.1497126 10.589404,65.9801325 L10.589404,40.6785519 C10.589404,15.2081598 29.6260844,0 61.5125241,0 C93.3989639,0 112.410596,15.2081598 112.410596,40.6785519 L112.410596,65.9801325 C71.6069744,40.9279899 61.5125241,11.8420064 61.5125241,11.8420064" id="Fill-807" fill="#4F2E1A"></path>
                        <path d="M49.6704368,118.112583 C49.6704368,118.112583 50.6889756,121.072342 52.9744773,124.428588 C56.4027298,129.52988 60.2781457,132.128508 60.2781457,132.128508 L54.2414402,141.735099 C54.2414402,141.735099 50.8877149,138.050552 47.7824137,131.997188 C45.1739606,126.905998 44.8013245,122.453732 44.8013245,122.453732 L49.6704368,118.112583" id="Fill-810" fill="#FBD3CD"></path>
                        <path d="M74.1611869,118.112583 C74.1611869,118.112583 73.1161283,121.072342 70.8518345,124.428588 C67.4180703,129.52988 63.5364238,132.128508 63.5364238,132.128508 L69.5828347,141.735099 C69.5828347,141.735099 72.9419518,138.050552 76.0522455,131.997188 C78.6648921,126.905998 79.013245,122.453732 79.013245,122.453732 L74.1611869,118.112583" id="Fill-811" fill="#FBD3CD"></path>
                        <path d="M39.9139073,87.1589404 C43.0035301,93.8298096 50.7652653,98.5629139 59.8583015,98.5629139 C68.9513376,98.5629139 76.7381918,93.8298096 79.8278146,87.1589404 L39.9139073,87.1589404" id="Fill-812" fill="#FFFFFF"></path>
                        <path d="M35.4337748,73.3112583 L35.4337748,73.3112583 C32.0876178,73.3112583 29.3245033,70.6225085 29.3245033,67.3379139 L29.3245033,62.993212 C29.3245033,59.7061347 32.0876178,57.0198675 35.4337748,57.0198675 C38.7799319,57.0198675 41.5430464,59.7061347 41.5430464,62.993212 L41.5430464,67.3379139 C41.5430464,70.6225085 38.7799319,73.3112583 35.4337748,73.3112583" id="Fill-813" fill="#523B2E"></path>
                        <path d="M35.8410596,62.3158227 C35.8410596,63.4411819 34.9359823,64.3509934 33.8046358,64.3509934 C32.6732892,64.3509934 31.7682119,63.4411819 31.7682119,62.3158227 C31.7682119,61.1904636 32.6732892,60.2781457 33.8046358,60.2781457 C34.9359823,60.2781457 35.8410596,61.1904636 35.8410596,62.3158227" id="Fill-814" fill="#FFFFFF"></path>
                        <path d="M85.1225166,73.3112583 L85.1225166,73.3112583 C81.7763595,73.3112583 79.013245,70.6225085 79.013245,67.3379139 L79.013245,62.993212 C79.013245,59.7061347 81.7763595,57.0198675 85.1225166,57.0198675 C88.4686736,57.0198675 91.2317881,59.7061347 91.2317881,62.993212 L91.2317881,67.3379139 C91.2317881,70.6225085 88.4686736,73.3112583 85.1225166,73.3112583" id="Fill-815" fill="#523B2E"></path>
                        <path d="M85.5298013,62.3158227 C85.5298013,63.4411819 84.6247241,64.3509934 83.4933775,64.3509934 C82.3620309,64.3509934 81.4569536,63.4411819 81.4569536,62.3158227 C81.4569536,61.1904636 82.3620309,60.2781457 83.4933775,60.2781457 C84.6247241,60.2781457 85.5298013,61.1904636 85.5298013,62.3158227" id="Fill-816" fill="#FFFFFF"></path>
                        <polygon id="Fill-817" fill="#4F2E1A" points="27.6953642 51.3178808 43.1721854 51.3178808 43.1721854 48.8741722 27.6953642 48.8741722"></polygon>
                        <polygon id="Fill-818" fill="#4F2E1A" points="77.384106 51.3178808 92.8609272 51.3178808 92.8609272 48.8741722 77.384106 48.8741722"></polygon>
                    </g>
                </g>
            </g>
            <g id="face" transform="translate(265.000000, 0.000000)">
                <mask id="mask-6" fill="white">
                    <use xlink:href="#path-5"></use>
                </mask>
                <use id="Mask" fill="#42464D" xlink:href="#path-5"></use>
                <g id="Robert" mask="url(#mask-6)">
                    <g transform="translate(19.000000, 20.000000)">
                        <path d="M11.9325045,74.1258278 C11.9325045,74.1258278 13.9979591,81.7566849 12.6881586,91.8915354 C11.3783581,102.026386 8.9602649,106.432403 8.9602649,106.432403 C8.9602649,106.432403 11.7309967,107.616109 15.6352097,106.308468 C19.9676267,104.861716 20.8240347,103.210092 20.8240347,103.210092 C20.8240347,103.210092 20.4462077,105.838021 19.1364072,108.759346 C17.8014182,111.680672 15.9122829,114.154314 15.9122829,114.154314 C15.9122829,114.154314 18.8341455,115.522658 23.4940127,114.091082 C27.7004873,112.798617 30.2445229,109.955699 30.2445229,109.955699 C30.2445229,109.955699 30.0682036,111.966482 27.9271836,115.520129 C27.3478487,116.511609 26.0632367,118.107589 26.0632367,118.107589 C26.0632367,118.107589 31.7810196,120.090549 40.7733038,117.887541 C49.7655879,115.684532 57.0198675,111.278516 57.0198675,111.278516 L11.9325045,74.1258278" id="Fill-298" fill="#925D37"></path>
                        <path d="M110.227738,74.1258278 C110.227738,74.1258278 108.162283,81.7566849 109.497272,91.8915354 C110.807072,102.026386 113.225166,106.432403 113.225166,106.432403 C113.225166,106.432403 110.454434,107.616109 106.550221,106.308468 C102.217804,104.861716 101.361396,103.210092 101.361396,103.210092 C101.361396,103.210092 101.739223,105.838021 103.049023,108.759346 C104.358824,111.680672 106.273148,114.154314 106.273148,114.154314 C106.273148,114.154314 103.351285,115.522658 98.6914178,114.091082 C94.4849431,112.798617 91.9409076,109.955699 91.9409076,109.955699 C91.9409076,109.955699 92.0920384,111.966482 94.2330584,115.520129 C94.8375817,116.511609 96.0970053,118.107589 96.0970053,118.107589 C96.0970053,118.107589 90.4044108,120.090549 81.4121267,117.887541 C72.4198426,115.684532 65.1655629,111.278516 65.1655629,111.278516 L110.227738,74.1258278" id="Fill-299" fill="#925D37"></path>
                        <path d="M61.0927152,141.735099 C53.0171205,141.735099 46.4304636,135.209067 46.4304636,127.234191 L46.4304636,107.359342 C46.4304636,99.3844658 53.0171205,92.8609272 61.0927152,92.8609272 C69.1683099,92.8609272 75.7549669,99.3844658 75.7549669,107.359342 L75.7549669,127.234191 C75.7549669,135.209067 69.1683099,141.735099 61.0927152,141.735099" id="Fill-306" fill="#F7C282"></path>
                        <path d="M122.18543,66.794702 C122.18543,73.0921932 117.075041,78.1986755 110.781457,78.1986755 C104.487873,78.1986755 99.3774834,73.0921932 99.3774834,66.794702 C99.3774834,60.4972108 104.487873,55.3907285 110.781457,55.3907285 C117.075041,55.3907285 122.18543,60.4972108 122.18543,66.794702" id="Fill-307" fill="#F8CB95"></path>
                        <path d="M22.807947,66.794702 C22.807947,73.0921932 17.6975571,78.1986755 11.4039735,78.1986755 C5.1103899,78.1986755 0,73.0921932 0,66.794702 C0,60.4972108 5.1103899,55.3907285 11.4039735,55.3907285 C17.6975571,55.3907285 22.807947,60.4972108 22.807947,66.794702" id="Fill-308" fill="#F8CB95"></path>
                        <path d="M61.0927152,116.483444 C33.7639073,116.483444 11.4039735,94.131465 11.4039735,66.8134946 L11.4039735,41.6273894 C11.4039735,14.309419 33.7639073,2.44370861 61.0927152,2.44370861 C88.4215232,2.44370861 110.781457,14.309419 110.781457,41.6273894 L110.781457,66.8134946 C110.781457,94.131465 88.4215232,116.483444 61.0927152,116.483444" id="Fill-309" fill="#F8CB95"></path>
                        <path d="M10.589404,42.2728292 C10.589404,35.5653698 11.997134,29.5304063 14.786525,24.3329378 L15.5946663,22.807947 L16.0378406,24.465437 C16.6634984,26.6904235 17.0545345,28.7254112 17.2891562,30.6878993 C18.0451594,37.0428608 18.6968862,50.6652784 15.6468045,56.7402416 C14.5779724,58.8527288 13.1963114,60.2152205 11.5018216,60.7827171 L10.589404,61.0927152 L10.589404,42.2728292" id="Fill-310" fill="#925D37"></path>
                        <path d="M110.683609,60.7826969 C108.989119,60.2151632 107.607458,58.8525825 106.538626,56.7399573 C103.488544,50.6645974 104.140271,37.0412903 104.896274,30.6859138 C105.130896,28.698296 105.548001,26.6656756 106.14759,24.4630451 L106.590764,22.807947 L107.398905,24.3305372 C110.188296,29.5308453 111.596026,35.5662029 111.596026,42.2716002 L111.596026,61.0927152 L110.683609,60.7826969" id="Fill-311" fill="#925D37"></path>
                        <path d="M6.51655629,43.1311445 C6.51655629,14.293681 32.263241,0 60.8678829,0 C84.5839138,0 102.960077,9.47354254 109.152318,28.8273584 C108.525573,31.3384787 97.9962568,36.2925099 90.6006658,38.9501544 C93.0073666,34.1072794 93.8848096,27.506115 93.207925,23.5449111 C89.071408,32.1266775 77.0629738,40.4886577 63.5252817,43.5707169 C65.0545395,36.7497662 67.2356121,31.0277465 66.8094255,25.3057268 C59.1631365,33.8874932 48.6839601,42.0296873 29.0292368,46.4304636 C33.1657538,39.3897268 35.7980828,34.5468518 38.8565984,27.0665426 C16.3439179,42.9113583 6.51655629,43.1311445 6.51655629,43.1311445" id="Fill-312" fill="#925D37"></path>
                        <path d="M46.0466459,119.741722 C46.0466459,119.741722 47.3482884,123.417913 50.2269208,127.584263 C54.5824168,133.916315 59.4635762,137.13986 59.4635762,137.13986 L51.8289423,149.066225 C51.8289423,149.066225 47.5986043,144.492243 43.6686452,136.977307 C40.3895074,130.66026 39.9139073,125.133469 39.9139073,125.133469 L46.0466459,119.741722" id="Fill-317" fill="#F0553F"></path>
                        <path d="M76.9533541,119.741722 C76.9533541,119.741722 75.62668,123.417913 72.7730792,127.584263 C68.4175832,133.916315 63.5364238,137.13986 63.5364238,137.13986 L71.1710577,149.066225 C71.1710577,149.066225 75.4013957,144.492243 79.3063232,136.977307 C82.6104926,130.66026 83.0860927,125.133469 83.0860927,125.133469 L76.9533541,119.741722" id="Fill-318" fill="#F0553F"></path>
                        <path d="M111.244606,54.5761589 C111.244606,54.5761589 109.866431,54.6639168 107.88687,63.3469255 C105.907309,72.0299343 108.538371,88.0820921 94.8067341,96.2711498 C81.0750972,104.462715 70.3253303,103.151362 67.5188644,102.168475 C64.6873407,101.185587 64.6873407,95.6167272 64.6873407,95.6167272 L61.3797202,95.6167272 L61.3797202,95.6443082 L58.2976192,95.6443082 C58.2976192,95.6443082 58.2976192,101.213168 55.4911533,102.196056 C52.6596296,103.178943 41.9098627,104.487788 28.1782258,96.2987308 C14.4465889,88.1071658 17.1027085,72.055008 15.0980899,63.3745066 C13.1185291,54.6914978 11.7654116,54.60374 11.7654116,54.60374 C11.7654116,54.60374 5.50097874,85.8154331 21.8887352,106.945007 C34.2923123,122.936988 61.6052398,122.179764 61.6052398,122.179764 L61.6052398,122.157197 C64.0859552,122.187286 89.3190909,122.117079 101.096225,106.919934 C117.483981,85.7878521 111.244606,54.5761589 111.244606,54.5761589" id="Fill-319" fill="#925D37"></path>
                        <path d="M87.1589404,111.568228 C87.1589404,111.568228 86.0010009,98.8541048 84.1885738,91.1791313 C83.3075329,87.5071733 81.1930347,82.3467202 75.7809261,80.0343723 C71.5015845,78.2072383 63.7484243,79.2838069 60.6521948,79.8145097 C58.1097624,79.3242414 50.809709,78.1794396 46.4045043,80.062171 C41.0175684,82.3719918 38.8778976,87.5324448 38.0220292,91.2044028 C36.1844296,98.8819035 35.0264901,111.596026 35.0264901,111.596026 L44.9193211,105.652155 C44.9193211,105.652155 44.0886253,93.552131 49.7272873,89.7209621 C55.1142232,86.0591127 67.4487962,86.5544354 72.4581432,89.6931634 C78.2226681,93.3120511 77.291282,105.624356 77.291282,105.624356 L87.1589404,111.568228" id="Fill-320" fill="#925D37"></path>
                        <path d="M33.7919346,74.1258278 L33.7919346,74.1258278 C30.4388209,74.1258278 27.6953642,71.4374877 27.6953642,68.1533935 L27.6953642,63.8093537 C27.6953642,60.5227772 30.4388209,57.8344371 33.7919346,57.8344371 C37.1704506,57.8344371 39.9139073,60.5227772 39.9139073,63.8093537 L39.9139073,68.1533935 C39.9139073,71.4374877 37.1704506,74.1258278 33.7919346,74.1258278" id="Fill-321" fill="#523B2E"></path>
                        <path d="M34.2119205,63.1303923 C34.2119205,64.2557514 33.2874091,65.1655629 32.1879901,65.1655629 C31.0635843,65.1655629 30.1390728,64.2557514 30.1390728,63.1303923 C30.1390728,62.0050331 31.0635843,61.0927152 32.1879901,61.0927152 C33.2874091,61.0927152 34.2119205,62.0050331 34.2119205,63.1303923" id="Fill-322" fill="#FFFFFF"></path>
                        <path d="M84.3206482,74.1258278 L84.3206482,74.1258278 C80.9421321,74.1258278 78.1986755,71.4374877 78.1986755,68.1533935 L78.1986755,63.8093537 C78.1986755,60.5227772 80.9421321,57.8344371 84.3206482,57.8344371 C87.6737619,57.8344371 90.4172185,60.5227772 90.4172185,63.8093537 L90.4172185,68.1533935 C90.4172185,71.4374877 87.6737619,74.1258278 84.3206482,74.1258278" id="Fill-323" fill="#523B2E"></path>
                        <path d="M84.7152318,63.1303923 C84.7152318,64.2557514 83.8157071,65.1655629 82.6913013,65.1655629 C81.5668955,65.1655629 80.6423841,64.2557514 80.6423841,63.1303923 C80.6423841,62.0050331 81.5668955,61.0927152 82.6913013,61.0927152 C83.8157071,61.0927152 84.7152318,62.0050331 84.7152318,63.1303923" id="Fill-324" fill="#FFFFFF"></path>
                        <polygon id="Fill-325" fill="#895837" points="26.0662252 52.1324503 41.5430464 52.1324503 41.5430464 48.0596026 26.0662252 48.0596026"></polygon>
                        <polygon id="Fill-326" fill="#895837" points="76.5695364 52.1324503 92.0463576 52.1324503 92.0463576 48.0596026 76.5695364 48.0596026"></polygon>
                        <g id="Group-329" stroke-width="1" fill="none" transform="translate(48.059603, 88.788079)">
                            <mask id="mask-8" fill="white">
                                <use xlink:href="#path-7"></use>
                            </mask>
                            <g id="Clip-328"></g>
                            <polygon id="Fill-327" fill="#CE9866" mask="url(#mask-8)" points="1.06056954 5.49834437 24.8223775 5.49834437 24.8223775 1.83278146 1.06056954 1.83278146"></polygon>
                        </g>
                    </g>
                </g>
            </g>
            <g id="face" transform="translate(265.000000, 530.000000)">
                <mask id="mask-10" fill="white">
                    <use xlink:href="#path-9"></use>
                </mask>
                <use id="Mask" fill="#42464D" xlink:href="#path-9"></use>
                <g id="Mark" mask="url(#mask-10)">
                    <g transform="translate(19.000000, 26.000000)">
                        <path d="M61.0939761,142.549669 C53.0296746,142.549669 46.4304636,135.914869 46.4304636,127.807078 L46.4304636,107.600982 C46.4304636,99.4931915 53.0296746,92.8609272 61.0939761,92.8609272 C69.1557558,92.8609272 75.7549669,99.4931915 75.7549669,107.600982 L75.7549669,127.807078 C75.7549669,135.914869 69.1557558,142.549669 61.0939761,142.549669" id="Fill-7" fill="#F2A775"></path>
                        <path d="M122.18543,66.794702 C122.18543,73.0947112 117.078948,78.1986755 110.781457,78.1986755 C104.483966,78.1986755 99.3774834,73.0947112 99.3774834,66.794702 C99.3774834,60.4972108 104.483966,55.3907285 110.781457,55.3907285 C117.078948,55.3907285 122.18543,60.4972108 122.18543,66.794702" id="Fill-8" fill="#F2A775"></path>
                        <path d="M22.807947,66.794702 C22.807947,73.0947112 17.7014647,78.1986755 11.4039735,78.1986755 C5.10648229,78.1986755 0,73.0947112 0,66.794702 C0,60.4972108 5.10648229,55.3907285 11.4039735,55.3907285 C17.7014647,55.3907285 22.807947,60.4972108 22.807947,66.794702" id="Fill-9" fill="#F2A775"></path>
                        <path d="M61.0939697,117.298013 C33.7638446,117.298013 11.4039735,94.9465261 11.4039735,67.6266485 L11.4039735,42.4436052 C11.4039735,15.1237276 33.7638446,3.25827815 61.0939697,3.25827815 C88.4215859,3.25827815 110.781457,15.1237276 110.781457,42.4436052 L110.781457,67.6266485 C110.781457,94.9465261 88.4215859,117.298013 61.0939697,117.298013" id="Fill-10" fill="#F4B48A"></path>
                        <path d="M10.589404,42.2728292 C10.589404,35.5653698 11.9987836,29.5304063 14.7757834,24.3329378 L15.5927015,22.807947 L16.044225,24.465437 C16.6523462,26.6904235 17.0595003,28.7279112 17.2917869,30.6903993 C18.0538959,37.0428608 18.6855068,50.6652784 15.6396809,56.7427416 C14.5826462,58.8527288 13.1889263,60.2152205 11.4976708,60.7852171 L10.589404,61.0927152 L10.589404,42.2728292" id="Fill-17" fill="#FDDD4E"></path>
                        <path d="M110.68776,60.785197 C108.996504,60.2151632 107.602784,58.8525825 106.54575,56.7424575 C103.499924,50.6645974 104.131535,37.0412903 104.893644,30.6884139 C105.13115,28.698296 105.540914,26.6656756 106.143815,24.4630451 L106.597949,22.807947 L107.412257,24.3305372 C110.186647,29.5308453 111.596026,35.5662029 111.596026,42.2716002 L111.596026,61.0927152 L110.68776,60.785197" id="Fill-18" fill="#FDDD4E"></path>
                        <path d="M6.51655629,43.1311445 C6.51655629,14.2962073 32.2431851,0 60.860362,0 C84.5713789,0 102.945035,9.47354254 109.152318,28.8273584 C108.518052,31.3384787 97.9837219,36.2925099 90.5906379,38.9501544 C92.9923247,34.1098057 93.8672608,27.506115 93.210432,23.5449111 C89.0613801,32.1292038 77.0504389,40.491184 63.5127468,43.5707169 C65.0420046,36.7497662 67.2255842,31.0277465 66.7893697,25.3057268 C59.1455876,33.8874932 48.6639042,42.0296873 29.0091809,46.4304636 C33.1582329,39.3897268 35.778027,34.5493781 38.8365426,27.0665426 C16.3439179,42.9113583 6.51655629,43.1311445 6.51655629,43.1311445" id="Fill-19" fill="#FDDD4E"></path>
                        <g id="Group-22" stroke-width="1" fill="none" transform="translate(42.357616, 88.158940)">
                            <mask id="mask-12" fill="white">
                                <use xlink:href="#path-11"></use>
                            </mask>
                            <g id="Clip-21"></g>
                            <polygon id="Fill-20" fill="#CB875F" mask="url(#mask-12)" points="0.734415894 12.4519371 37.522657 12.4519371 37.522657 0.0627417219 0.734415894 0.0627417219"></polygon>
                        </g>
                        <path d="M34.6204746,74.1258278 L34.6204746,74.1258278 C31.2592964,74.1258278 28.5099338,71.4374877 28.5099338,68.1533935 L28.5099338,63.8093537 C28.5099338,60.5227772 31.2592964,57.8344371 34.6204746,57.8344371 C37.9791142,57.8344371 40.7284768,60.5227772 40.7284768,63.8093537 L40.7284768,68.1533935 C40.7284768,71.4374877 37.9791142,74.1258278 34.6204746,74.1258278" id="Fill-23" fill="#523B2E"></path>
                        <path d="M35.0264901,63.1303923 C35.0264901,64.2557514 34.1166786,65.1655629 32.9913194,65.1655629 C31.8659603,65.1655629 30.9536424,64.2557514 30.9536424,63.1303923 C30.9536424,62.0050331 31.8659603,61.0927152 32.9913194,61.0927152 C34.1166786,61.0927152 35.0264901,62.0050331 35.0264901,63.1303923" id="Fill-24" fill="#FFFFFF"></path>
                        <path d="M85.1225166,74.1258278 L85.1225166,74.1258278 C81.7606398,74.1258278 79.013245,71.4374877 79.013245,68.1533935 L79.013245,63.8093537 C79.013245,60.5227772 81.7606398,57.8344371 85.1225166,57.8344371 C88.4818541,57.8344371 91.2317881,60.5227772 91.2317881,63.8093537 L91.2317881,68.1533935 C91.2317881,71.4374877 88.4818541,74.1258278 85.1225166,74.1258278" id="Fill-25" fill="#523B2E"></path>
                        <path d="M85.5298013,63.1303923 C85.5298013,64.2557514 84.6174834,65.1655629 83.4921243,65.1655629 C82.3667652,65.1655629 81.4569536,64.2557514 81.4569536,63.1303923 C81.4569536,62.0050331 82.3667652,61.0927152 83.4921243,61.0927152 C84.6174834,61.0927152 85.5298013,62.0050331 85.5298013,63.1303923" id="Fill-26" fill="#FFFFFF"></path>
                        <polygon id="Fill-27" fill="#FDDD4E" points="26.8807947 51.3178808 42.3576159 51.3178808 42.3576159 47.2450331 26.8807947 47.2450331"></polygon>
                        <polygon id="Fill-28" fill="#FDDD4E" points="77.384106 51.3178808 92.8609272 51.3178808 92.8609272 47.2450331 77.384106 47.2450331"></polygon>
                    </g>
                </g>
            </g>
        </g>
    </g>
</svg>