<?xml version="1.0" encoding="UTF-8"?>
<svg width="36px" height="36px" viewBox="0 0 36 36" version="1.1" xmlns="http://www.w3.org/2000/svg" xmlns:xlink="http://www.w3.org/1999/xlink">
    <!-- Generator: Sketch 53 (72520) - https://sketchapp.com -->
    <title>{}</title>
    <desc>Created with Sketch.</desc>
    <g id="ilustration-landing-page" stroke="none" stroke-width="1" fill="none" fill-rule="evenodd">
        <g id="Artboard" transform="translate(-362.000000, -162.000000)" fill="#272b2f" fill-rule="nonzero">
            <path d="M371.878906,197.328125 C367.660135,196.144525 365.550781,193.419943 365.550781,189.154297 L365.550781,185.673828 C365.550781,183.306629 364.601572,182.123047 362.703125,182.123047 L362.703125,178.132812 C364.601572,178.132812 365.550781,176.943371 365.550781,174.564453 L365.550781,170.873047 C365.585938,168.763661 366.133784,167.0586 367.194336,165.757812 C368.254888,164.457025 369.816396,163.513675 371.878906,162.927734 L372.986328,166.021484 C371.509758,166.583987 370.742188,168.160143 370.683594,170.75 L370.683594,174.564453 C370.683594,177.189466 369.59962,179.04101 367.431641,180.119141 C369.59962,181.197271 370.683594,183.054674 370.683594,185.691406 L370.683594,189.488281 C370.742188,192.078138 371.509758,193.654294 372.986328,194.216797 L371.878906,197.328125 Z M386.935,194.216797 C388.41157,193.654294 389.17914,192.078138 389.237734,189.488281 L389.237734,185.673828 C389.237734,183.037096 390.327567,181.185552 392.507266,180.119141 C390.327567,179.052729 389.237734,177.201185 389.237734,174.564453 L389.237734,170.75 C389.17914,168.160143 388.41157,166.583987 386.935,166.021484 L388.042422,162.927734 C390.140089,163.513675 391.716245,164.471673 392.770937,165.801758 C393.82563,167.131843 394.358828,168.874989 394.370547,171.03125 L394.370547,174.564453 C394.370547,176.943371 395.319756,178.132812 397.218203,178.132812 L397.218203,182.123047 C395.319756,182.123047 394.370547,183.300769 394.370547,185.65625 L394.370547,189.400391 C394.288515,193.525411 392.179161,196.167963 388.042422,197.328125 L386.935,194.216797 Z" id="{}"></path>
        </g>
    </g>
</svg>