<?xml version="1.0" encoding="UTF-8"?>
<svg width="63px" height="14px" viewBox="0 0 63 14" version="1.1" xmlns="http://www.w3.org/2000/svg" xmlns:xlink="http://www.w3.org/1999/xlink">
    <!-- Generator: Sketch 53 (72520) - https://sketchapp.com -->
    <title>===</title>
    <desc>Created with Sketch.</desc>
    <g id="ilustration-landing-page" stroke="none" stroke-width="1" fill="none" fill-rule="evenodd">
        <g id="Artboard" transform="translate(-416.000000, -417.000000)" fill="#272b2f" fill-rule="nonzero">
            <path d="M432.527344,422.308594 L416.25,422.308594 L416.25,417.738281 L432.527344,417.738281 L432.527344,422.308594 Z M432.527344,430.025391 L416.25,430.025391 L416.25,425.455078 L432.527344,425.455078 L432.527344,430.025391 Z M455.383516,422.308594 L439.106172,422.308594 L439.106172,417.738281 L455.383516,417.738281 L455.383516,422.308594 Z M455.383516,430.025391 L439.106172,430.025391 L439.106172,425.455078 L455.383516,425.455078 L455.383516,430.025391 Z M478.239687,422.308594 L461.962344,422.308594 L461.962344,417.738281 L478.239687,417.738281 L478.239687,422.308594 Z M478.239687,430.025391 L461.962344,430.025391 L461.962344,425.455078 L478.239687,425.455078 L478.239687,430.025391 Z" id="==="></path>
        </g>
    </g>
</svg>