<?xml version="1.0" encoding="UTF-8"?>
<svg width="53px" height="27px" viewBox="0 0 53 27" version="1.1" xmlns="http://www.w3.org/2000/svg" xmlns:xlink="http://www.w3.org/1999/xlink">
    <!-- Generator: Sketch 53 (72520) - https://sketchapp.com -->
    <title>!==</title>
    <desc>Created with Sketch.</desc>
    <g id="ilustration-landing-page" stroke="none" stroke-width="1" fill="none" fill-rule="evenodd">
        <g id="Artboard" transform="translate(-118.000000, -409.000000)" fill="#272b2f" fill-rule="nonzero">
            <path d="M124.541016,426.896484 L119.742188,426.896484 L118.986328,409.40625 L125.296875,409.40625 L124.541016,426.896484 Z M118.810547,432.345703 C118.810547,431.478511 119.12402,430.766604 119.750977,430.209961 C120.377933,429.653318 121.160152,429.375 122.097656,429.375 C123.035161,429.375 123.81738,429.653318 124.444336,430.209961 C125.071292,430.766604 125.384766,431.478511 125.384766,432.345703 C125.384766,433.212895 125.071292,433.924802 124.444336,434.481445 C123.81738,435.038089 123.035161,435.316406 122.097656,435.316406 C121.160152,435.316406 120.377933,435.038089 119.750977,434.481445 C119.12402,433.924802 118.810547,433.212895 118.810547,432.345703 Z M147.238984,422.308594 L130.961641,422.308594 L130.961641,417.738281 L147.238984,417.738281 L147.238984,422.308594 Z M147.238984,430.025391 L130.961641,430.025391 L130.961641,425.455078 L147.238984,425.455078 L147.238984,430.025391 Z M170.095156,422.308594 L153.817812,422.308594 L153.817812,417.738281 L170.095156,417.738281 L170.095156,422.308594 Z M170.095156,430.025391 L153.817812,430.025391 L153.817812,425.455078 L170.095156,425.455078 L170.095156,430.025391 Z" id="!=="></path>
        </g>
    </g>
</svg>