<?xml version="1.0" encoding="UTF-8"?>
<svg width="775px" height="375px" viewBox="0 0 775 375" version="1.1" xmlns="http://www.w3.org/2000/svg" xmlns:xlink="http://www.w3.org/1999/xlink">
    <!-- Generator: Sketch 49.3 (51167) - http://www.bohemiancoding.com/sketch -->
    <title>cocoon</title>
    <desc>Created with Sketch.</desc>
    <defs></defs>
    <g id="Page-1" stroke="none" stroke-width="1" fill="none" fill-rule="evenodd">
        <g id="cocoon" transform="translate(-1.000000, -1.000000)" fill="#4A4A4A" fill-rule="nonzero">
            <path d="M674.06,266.06 L674.06,110.21 C674.06,101.925729 680.775729,95.21 689.06,95.21 L690.34,95.21 C698.624271,95.21 705.34,101.925729 705.34,110.21 L705.95,110.21 C710.52,104.11 716.6,100.64 721.57,98.11 C726.54,95.58 762.92,86.27 772.88,124.34 C774.507372,130.361717 775.274972,136.583319 775.16,142.82 L775.16,266.4 C775.16,274.684271 768.444271,281.4 760.16,281.4 L758.94,281.4 C750.655729,281.4 743.94,274.684271 743.94,266.4 L743.94,143.89 C743.94,138.183333 742.606667,133.693333 739.94,130.42 C737.29,127.15 731.63,123.96 724.78,123.96 C716.96,123.96 710.95,127.36 708.71,131.03 C706.47,134.7 705.34,140.03 705.34,146.96 L705.34,266.06 C705.34,274.344271 698.624271,281.06 690.34,281.06 L689.12,281.06 C685.131367,281.075955 681.300626,279.502648 678.47459,276.687871 C675.648554,273.873095 674.059968,270.048665 674.06,266.06 Z" id="Shape"></path>
            <path d="M86.44,212.31 C95.0666878,212.31 102.06,219.303312 102.06,227.93 L102.06,233.44 C102.091702,240.013442 100.788727,246.524914 98.23,252.58 C95.7173951,258.537709 92.1387891,263.98695 87.67,268.66 C83.1711796,273.358978 77.8148985,277.153859 71.89,279.84 C65.7860347,282.609705 59.1527803,284.01893 52.45,283.97 C46.3322082,283.948227 40.2436677,283.124543 34.34,281.52 C28.2640875,279.912967 22.6168869,276.986938 17.8,272.95 C12.7167926,268.610808 8.60714625,263.24714 5.74,257.21 C2.58,250.77 1,242.55 1,232.55 L1,143.1 C0.93943056,136.296251 2.18530084,129.544109 4.67,123.21 C7.01556108,117.245288 10.5623077,111.826458 15.09,107.29 C19.6869406,102.728727 25.1511349,99.1346673 31.16,96.72 C37.736344,94.1025634 44.7624716,92.8013028 51.84,92.89 C66.54,92.89 78.4833333,97.69 87.67,107.29 C92.2337912,112.119955 95.8197202,117.787488 98.23,123.98 C100.831081,130.672581 102.131002,137.800082 102.06,144.98 L102.06,149.21 C102.06,157.836688 95.0666878,164.83 86.44,164.83 C82.2973184,164.83 78.3243103,163.184326 75.3949921,160.255008 C72.4656738,157.32569 70.82,153.352682 70.82,149.21 L70.82,146.76 C70.9458803,141.016643 69.111849,135.401686 65.62,130.84 C62.3066184,126.426211 57.0457775,123.90967 51.53,124.1 C43.77,124.1 38.6133333,126.5 36.06,131.3 C33.5066667,136.1 32.23,142.173333 32.23,149.52 L32.23,230.37 C32.23,236.703333 33.61,242.01 36.37,246.29 C39.13,250.57 44.08,252.713333 51.22,252.72 C53.4575896,252.69229 55.6785924,252.331672 57.81,251.65 C60.2096779,250.911665 62.4440002,249.716404 64.39,248.13 C66.4030767,246.251308 67.974174,243.949309 68.99,241.39 C70.3101169,237.978311 70.9323941,234.336459 70.82,230.68 L70.82,227.92 C70.8255203,219.297218 77.8172159,212.309998 86.44,212.31 Z" id="Shape"></path>
            <path d="M132.02,92.57 C131.862684,84.5706181 133.428097,76.631005 136.61,69.29 C139.449817,62.8670738 143.629888,57.1254429 148.87,52.45 C153.764406,48.1636852 159.423307,44.8389114 165.55,42.65 C184.21661,35.9287246 205.050334,39.6633231 220.22,52.45 C225.30039,57.1959158 229.362688,62.9253221 232.16,69.29 C235.350146,76.6287441 236.919185,84.5694466 236.76,92.57 L236.76,284.28 C236.76,293.466667 235.226667,301.326667 232.16,307.86 C229.358495,314.045286 225.290949,319.574287 220.22,324.09 C215.244055,328.505268 209.475304,331.935979 203.22,334.2 C191.065306,338.693298 177.704694,338.693298 165.55,334.2 C159.370672,331.977644 153.699106,328.540022 148.87,324.09 C143.641939,319.645135 139.456258,314.104058 136.61,307.86 C133.55,301.333333 132.02,293.473333 132.02,284.28 L132.02,92.57 Z M163.26,284.28 C163.26,291.826667 165.353333,297.39 169.54,300.97 C178.150068,308.117118 190.629932,308.117118 199.24,300.97 C203.42,297.403333 205.513333,291.84 205.52,284.28 L205.52,92.57 C205.52,85.0166667 203.426667,79.4533333 199.24,75.88 C190.629932,68.7328824 178.150068,68.7328824 169.54,75.88 C165.346667,79.4466667 163.253333,85.01 163.26,92.57 L163.26,284.28 Z" id="Shape"></path>
            <path d="M354.14,223.79 C362.766688,223.79 369.76,230.783312 369.76,239.41 L369.76,325.31 C369.796681,331.887156 368.493535,338.402887 365.93,344.46 C363.413301,350.41967 359.823797,355.866632 355.34,360.53 C350.847705,365.232072 345.494051,369.027498 339.57,371.71 C333.464448,374.486706 326.827117,375.899485 320.12,375.85 C314.015701,375.823365 307.941012,374.999735 302.05,373.4 C295.973465,371.789384 290.326325,368.859972 285.51,364.82 C280.409044,360.47849 276.288159,355.103274 273.42,349.05 C270.253333,342.616667 268.67,334.4 268.67,324.4 L268.67,51.21 C268.612401,44.4065097 269.858168,37.6549277 272.34,31.32 C274.692692,25.3560309 278.238457,19.9352985 282.76,15.39 C287.359414,10.829514 292.827404,7.23859478 298.84,4.83 C305.412574,2.21159544 312.435629,0.910274736 319.51,1 C334.176667,1 346.12,5.79666667 355.34,15.39 C359.910433,20.2147899 363.497232,25.8836978 365.9,32.08 C368.505837,38.7712358 369.805926,45.8996617 369.73,53.08 L369.73,137.76 C369.73,146.386688 362.736688,153.38 354.11,153.38 C349.968237,153.380001 345.996257,151.734008 343.068526,148.804402 C340.140796,145.874796 338.497347,141.901762 338.5,137.76 L338.5,54.9 C338.637218,49.1583514 336.817582,43.5407531 333.34,38.97 C330.026837,34.5427577 324.75635,32.0177048 319.23,32.21 C311.47,32.21 306.316667,34.6066667 303.77,39.4 C301.223333,44.1933333 299.946667,50.27 299.94,57.63 L299.94,322.21 C299.94,328.543333 301.316667,333.853333 304.07,338.14 C306.823333,342.426667 311.773333,344.57 318.92,344.57 C321.15759,344.54229 323.378592,344.181672 325.51,343.5 C327.906237,342.753428 330.139058,341.55897 332.09,339.98 C334.098801,338.097641 335.669201,335.796663 336.69,333.24 C338.013798,329.825601 338.639466,326.180407 338.53,322.52 L338.53,239.41 C338.529998,230.787216 345.517218,223.79552 354.14,223.79 Z" id="Shape"></path>
            <path d="M401.16,54.29 C401.002684,46.2906181 402.568097,38.351005 405.75,31.01 C408.58777,24.6000426 412.764663,18.8717318 418,14.21 C422.898088,9.92358128 428.560277,6.59886903 434.69,4.41 C446.844694,-0.0832983317 460.205306,-0.0832983317 472.36,4.41 C478.561775,6.64529906 484.317677,9.96340687 489.36,14.21 C494.450382,18.9404411 498.526213,24.6561304 501.34,31.01 C504.525334,38.3502453 506.094164,46.2898884 505.94,54.29 L505.94,322.56 C505.94,331.746667 504.406667,339.606667 501.34,346.14 C498.520925,352.330781 494.43262,357.860213 489.34,362.37 C484.361052,366.781156 478.593125,370.211376 472.34,372.48 C460.185306,376.973298 446.824694,376.973298 434.67,372.48 C428.487588,370.25786 422.812706,366.820289 417.98,362.37 C412.751964,357.927484 408.569104,352.385622 405.73,346.14 C402.67,339.613333 401.14,331.753333 401.14,322.56 L401.16,54.29 Z M432.39,322.56 C432.39,330.106667 434.483333,335.67 438.67,339.25 C447.283281,346.398657 459.766719,346.398657 468.38,339.25 C472.56,335.683333 474.653333,330.12 474.66,322.56 L474.66,54.29 C474.66,46.7433333 472.566667,41.18 468.38,37.6 C459.766719,30.4513435 447.283281,30.4513435 438.67,37.6 C434.49,41.1733333 432.396667,46.7366667 432.39,54.29 L432.39,322.56 Z" id="Shape"></path>
            <path d="M537.68,92.57 C537.520815,84.5694466 539.089854,76.6287441 542.28,69.29 C545.109124,62.8661399 549.282968,57.1236938 554.52,52.45 C559.418088,48.1635813 565.080277,44.838869 571.21,42.65 C589.87661,35.9287246 610.710334,39.6633231 625.88,52.45 C630.96039,57.1959158 635.022688,62.9253221 637.82,69.29 C641.010146,76.6287441 642.579185,84.5694466 642.42,92.57 L642.42,284.28 C642.42,293.466667 640.886667,301.326667 637.82,307.86 C635.018495,314.045286 630.950949,319.574287 625.88,324.09 C620.902622,328.503306 615.134264,331.933782 608.88,334.2 C596.725306,338.693298 583.364694,338.693298 571.21,334.2 C565.027588,331.97786 559.352706,328.540289 554.52,324.09 C549.295108,319.646889 545.115635,314.104991 542.28,307.86 C539.206667,301.333333 537.673333,293.473333 537.68,284.28 L537.68,92.57 Z M568.92,284.28 C568.92,291.826667 571.013333,297.39 575.2,300.97 C583.810068,308.117118 596.289932,308.117118 604.9,300.97 C609.08,297.403333 611.173333,291.84 611.18,284.28 L611.18,92.57 C611.18,85.0166667 609.086667,79.4533333 604.9,75.88 C596.289932,68.7328824 583.810068,68.7328824 575.2,75.88 C571.013333,79.4466667 568.92,85.01 568.92,92.57 L568.92,284.28 Z" id="Shape"></path>
        </g>
    </g>
</svg>