<?xml version="1.0" encoding="UTF-8"?>
<svg width="324px" height="64px" viewBox="0 0 324 64" version="1.1" xmlns="http://www.w3.org/2000/svg" xmlns:xlink="http://www.w3.org/1999/xlink">
    <!-- Generator: Sketch 49.3 (51167) - http://www.bohemiancoding.com/sketch -->
    <title>dropbox</title>
    <desc>Created with Sketch.</desc>
    <defs></defs>
    <g id="Page-1" stroke="none" stroke-width="1" fill="none" fill-rule="evenodd">
        <g id="dropbox" fill="#4A4A4A" fill-rule="nonzero">
            <path d="M37.6,12 L18.8,24 L37.6,36 L18.8,48 L1.42108547e-14,35.9 L18.8,23.9 L1.42108547e-14,12 L18.8,0 L37.6,12 Z M18.7,51.8 L37.5,39.8 L56.3,51.8 L37.5,63.8 L18.7,51.8 Z M37.6,35.9 L56.4,23.9 L37.6,12 L56.3,0 L75.1,12 L56.3,24 L75.1,36 L56.3,48 L37.6,35.9 Z" id="Shape"></path>
            <path d="M89.8,12 L105,12 C114.7,12 122.7,17.6 122.7,30.4 L122.7,33.1 C122.7,46 115.2,51.8 105.3,51.8 L89.8,51.8 L89.8,12 Z M98.3,19.2 L98.3,44.5 L104.8,44.5 C110.3,44.5 114,40.9 114,32.9 L114,30.8 C114,22.8 110.1,19.2 104.5,19.2 L98.3,19.2 Z M127.2,19.6 L134,19.6 L135.1,27.1 C136.4,22 139.7,19.3 145.7,19.3 L147.8,19.3 L147.8,27.9 L144.3,27.9 C137.4,27.9 135.7,30.3 135.7,37.1 L135.7,51.9 L127.3,51.9 L127.3,19.6 L127.2,19.6 Z M149.5,36.4 L149.5,35.5 C149.5,24.7 156.4,18.8 165.8,18.8 C175.4,18.8 182.1,24.7 182.1,35.5 L182.1,36.4 C182.1,47 175.6,52.7 165.8,52.7 C155.4,52.6 149.5,47 149.5,36.4 Z M173.5,36.3 L173.5,35.5 C173.5,29.5 170.5,25.9 165.7,25.9 C161,25.9 157.9,29.2 157.9,35.5 L157.9,36.3 C157.9,42.1 160.9,45.4 165.7,45.4 C170.5,45.3 173.5,42.1 173.5,36.3 Z M186.5,19.6 L193.5,19.6 L194.3,25.7 C196,21.6 199.6,18.8 204.9,18.8 C213.1,18.8 218.5,24.7 218.5,35.6 L218.5,36.5 C218.5,47.1 212.5,52.7 204.9,52.7 C199.8,52.7 196.3,50.4 194.6,46.7 L194.6,63 L186.4,63 L186.5,19.6 Z M210,36.3 L210,35.6 C210,29.2 206.7,26 202.3,26 C197.6,26 194.5,29.6 194.5,35.6 L194.5,36.2 C194.5,41.9 197.5,45.5 202.2,45.5 C207,45.4 210,42.3 210,36.3 Z M230.9,45.9 L230.2,51.8 L223,51.8 L223,8.8 L231.2,8.8 L231.2,25.3 C233,21.1 236.6,18.8 241.7,18.8 C249.4,18.9 255.1,24.2 255.1,34.9 L255.1,35.9 C255.1,46.6 249.7,52.7 241.5,52.7 C236.1,52.6 232.6,50.1 230.9,45.9 Z M246.5,35.9 L246.5,35.1 C246.5,29.2 243.3,25.9 238.8,25.9 C234.2,25.9 231,29.6 231,35.2 L231,35.9 C231,41.9 234.1,45.4 238.7,45.4 C243.6,45.4 246.5,42.3 246.5,35.9 Z M258.7,36.4 L258.7,35.5 C258.7,24.7 265.6,18.8 275,18.8 C284.6,18.8 291.3,24.7 291.3,35.5 L291.3,36.4 C291.3,47 284.7,52.7 275,52.7 C264.6,52.6 258.7,47 258.7,36.4 Z M282.8,36.3 L282.8,35.5 C282.8,29.5 279.8,25.9 275,25.9 C270.3,25.9 267.2,29.2 267.2,35.5 L267.2,36.3 C267.2,42.1 270.2,45.4 275,45.4 C279.8,45.3 282.8,42.1 282.8,36.3 Z M302.3,35.1 L291,19.6 L300.7,19.6 L307.2,29.3 L313.8,19.6 L323.4,19.6 L311.9,35 L324,51.8 L314.5,51.8 L307.1,41.1 L299.9,51.8 L290,51.8 L302.3,35.1 Z" id="Shape"></path>
        </g>
    </g>
</svg>