<?xml version="1.0" encoding="UTF-8"?>
<svg width="324px" height="71px" viewBox="0 0 324 71" version="1.1" xmlns="http://www.w3.org/2000/svg" xmlns:xlink="http://www.w3.org/1999/xlink">
    <!-- Generator: Sketch 49.3 (51167) - http://www.bohemiancoding.com/sketch -->
    <title>mozilla</title>
    <desc>Created with Sketch.</desc>
    <defs></defs>
    <g id="Page-1" stroke="none" stroke-width="1" fill="none" fill-rule="evenodd">
        <g id="mozilla" fill="#4A4A4A" fill-rule="nonzero">
            <path d="M322.8,61.7 C322.1,61.9 321.5,62 320.9,62 C318.8,62 317.8,61.1 317.8,58.5 L317.8,39 C317.8,28.7 309.6,23.7 299.9,23.7 C292.5,23.7 288.5,24.6 280.6,27.8 L279,38.2 L289.3,39.3 L290.8,34.2 C292.9,33.1 295,32.9 297.7,32.9 C305,32.9 305.1,38.4 305.1,43 L305.1,44.5 C302.8,44.2 300.2,44.1 297.7,44.1 C287.4,44.1 276.7,46.7 276.7,57.8 C276.7,67.2 284.1,70.7 290.6,70.7 C297.9,70.7 302.5,66.3 305.1,61.7 C305.7,67.2 309,70.7 315,70.7 C317.8,70.7 320.7,69.9 323.1,68.6 L322.8,61.7 Z M295.2,61.4 C291.3,61.4 289.9,59.1 289.9,56.2 C289.9,51.3 293.9,50 298.5,50 C300.6,50 302.9,50.3 305,50.6 C304.7,58.1 299.8,61.4 295.2,61.4 Z M277.9,0.9 L258.4,69.6 L245.7,69.6 L265.2,0.9 L277.9,0.9 Z M251.7,0.9 L232.2,69.6 L219.5,69.6 L239,0.9 L251.7,0.9 Z M197.7,24.6 L211.2,24.6 L211.2,40.8 L197.7,40.8 L197.7,24.6 Z M197.7,53.5 L211.2,53.5 L211.2,69.7 L197.7,69.7 L197.7,53.5 Z M178,52.9 L188.2,53.9 L185.4,69.7 L146.1,69.7 L144.8,62.9 L169.6,34.4 L155.5,34.4 L153.5,41.4 L144.2,40.4 L145.8,24.6 L185.3,24.6 L186.3,31.4 L161.3,59.9 L175.9,59.9 L178,52.9 Z M113.5,23.7 C97.3,23.7 89.3,34.6 89.3,47.8 C89.3,62.2 98.9,70.7 112.8,70.7 C127.2,70.7 137.6,61.6 137.6,47.2 C137.6,34.6 129.7,23.7 113.5,23.7 Z M113.2,60.7 C106.2,60.7 102.6,54.7 102.6,46.9 C102.6,38.4 106.7,33.5 113.3,33.5 C119.4,33.5 124.3,37.6 124.3,46.7 C124.3,55.4 119.9,60.7 113.2,60.7 Z M77.7,59.8 L83.7,59.8 L83.7,69.6 L64.9,69.6 L64.9,44.3 C64.9,36.5 62.3,33.5 57.2,33.5 C51,33.5 48.5,37.9 48.5,44.2 L48.5,59.9 L54.5,59.9 L54.5,69.7 L35.6,69.7 L35.6,44.3 C35.6,36.5 33,33.5 27.9,33.5 C21.7,33.5 19.2,37.9 19.2,44.2 L19.2,59.9 L27.8,59.9 L27.8,69.7 L0.4,69.7 L0.4,59.9 L6.4,59.9 L6.4,34.4 L0.4,34.4 L0.4,24.6 L19.3,24.6 L19.3,31.4 C22,26.6 26.7,23.7 33,23.7 C39.5,23.7 45.5,26.8 47.7,33.4 C50.2,27.4 55.3,23.7 62.4,23.7 C70.5,23.7 77.9,28.6 77.9,39.3 L77.9,59.8 L77.7,59.8 Z" id="Shape"></path>
        </g>
    </g>
</svg>