<?xml version="1.0" encoding="UTF-8"?>
<svg width="424px" height="57px" viewBox="0 0 424 57" version="1.1" xmlns="http://www.w3.org/2000/svg" xmlns:xlink="http://www.w3.org/1999/xlink">
    <!-- Generator: Sketch 49.3 (51167) - http://www.bohemiancoding.com/sketch -->
    <title>SolVoltaics_Logo_HORIZONTAL_COLOR_RGB_trademark</title>
    <desc>Created with Sketch.</desc>
    <defs></defs>
    <g id="Page-1" stroke="none" stroke-width="1" fill="none" fill-rule="evenodd">
        <g id="SolVoltaics_Logo_HORIZONTAL_COLOR_RGB_trademark" fill="#4A4A4A" fill-rule="nonzero">
            <g id="Group">
                <g id="Shape">
                    <g>
                        <path d="M35.488,41.325 C35.488,43.2583333 35.2445714,44.95 34.5142857,46.8833333 C33.784,48.8166667 32.8102857,50.2666667 31.3497143,51.7166667 C29.8891429,53.1666667 27.9417143,54.375 25.5074286,55.1 C23.0731429,56.0666667 19.9085714,56.55 16.2571429,56.55 C13.5794286,56.55 11.1451429,56.55 8.95428571,56.0666667 C7.00685714,55.825 5.05942857,55.5833333 3.35542857,55.1 C2.86857143,55.1 2.62514286,54.8583333 2.38171429,54.6166667 C2.13828571,54.375 1.89485714,54.1333333 1.89485714,53.65 L1.89485714,48.3333333 C1.89485714,47.85 2.13828571,47.6083333 2.38171429,47.3666667 C2.62514286,47.125 2.86857143,46.8833333 3.35542857,46.8833333 L3.59885714,46.8833333 C4.32914286,46.8833333 5.30285714,47.125 6.52,47.125 C7.73714286,47.125 8.95428571,47.3666667 10.1714286,47.3666667 C11.3885714,47.3666667 12.6057143,47.6083333 13.8228571,47.6083333 C15.04,47.6083333 15.7702857,47.6083333 16.5005714,47.6083333 C19.6651429,47.6083333 22.0994286,47.125 23.0731429,45.9166667 C24.2902857,44.7083333 24.7771429,43.2583333 24.7771429,41.0833333 C24.7771429,40.3583333 24.7771429,39.6333333 24.5337143,39.15 C24.2902857,38.6666667 24.0468571,37.9416667 23.56,37.4583333 C23.0731429,36.975 22.3428571,36.4916667 21.6125714,35.7666667 C20.8822857,35.2833333 19.9085714,34.5583333 18.6914286,33.8333333 L8.95428571,28.0333333 C7.25028571,27.0666667 5.78971429,26.1 4.816,24.8916667 C3.59885714,23.925 2.86857143,22.7166667 2.13828571,21.75 C1.408,20.5416667 0.921142857,19.575 0.677714286,18.3666667 C0.434285714,17.1583333 0.190857143,15.95 0.190857143,14.7416667 C0.190857143,12.8083333 0.434285714,10.875 1.16457143,9.18333333 C1.89485714,7.49166667 2.86857143,6.04166667 4.32914286,4.83333333 C5.78971429,3.625 7.73714286,2.65833333 9.928,1.93333333 C12.3622857,1.20833333 15.04,0.966666667 18.448,0.966666667 C19.6651429,0.966666667 20.8822857,0.966666667 22.3428571,0.966666667 C23.8034286,0.966666667 25.0205714,1.20833333 26.4811429,1.20833333 C27.6982857,1.45 28.9154286,1.45 30.1325714,1.69166667 C31.1062857,1.93333333 32.08,1.93333333 32.8102857,2.175 C33.2971429,2.175 33.5405714,2.41666667 33.784,2.65833333 C34.0274286,2.9 34.2708571,3.14166667 34.2708571,3.625 L34.2708571,8.94166667 C34.2708571,9.425 34.2708571,9.66666667 34.0274286,9.90833333 C33.784,10.15 33.5405714,10.3916667 33.0537143,10.3916667 L32.8102857,10.3916667 C30.376,10.15 27.9417143,9.90833333 25.5074286,9.90833333 C23.0731429,9.90833333 20.6388571,9.66666667 18.448,9.66666667 C15.7702857,9.66666667 13.8228571,10.15 12.6057143,11.1166667 C11.3885714,12.0833333 10.9017143,13.2916667 10.9017143,14.9833333 C10.9017143,15.4666667 10.9017143,16.1916667 11.1451429,16.675 C11.3885714,17.1583333 11.632,17.6416667 12.1188571,18.125 C12.6057143,18.6083333 13.0925714,19.0916667 14.0662857,19.575 C14.7965714,20.0583333 15.7702857,20.7833333 16.9874286,21.2666667 L25.7508571,26.1 C27.6982857,27.3083333 29.4022857,28.275 30.6194286,29.4833333 C31.8365714,30.6916667 33.0537143,31.9 33.784,33.1083333 C34.5142857,34.3166667 35.0011429,35.525 35.488,36.975 C35.2445714,38.6666667 35.488,39.875 35.488,41.325 Z"></path>
                        <path d="M85.1474286,33.8333333 C85.1474286,37.9416667 84.6605714,41.325 83.6868571,44.225 C82.7131429,47.125 81.2525714,49.3 79.3051429,51.2333333 C77.3577143,53.1666667 75.1668571,54.375 72.7325714,55.3416667 C70.2982857,56.3083333 67.3771429,56.55 64.456,56.55 C61.5348571,56.55 58.6137143,56.0666667 56.1794286,55.3416667 C53.7451429,54.375 51.5542857,53.1666667 49.6068571,51.2333333 C47.6594286,49.3 46.1988571,47.125 45.2251429,44.225 C44.2514286,41.325 43.7645714,37.9416667 43.7645714,33.8333333 L43.7645714,24.1666667 C43.7645714,20.3 44.2514286,16.675 45.2251429,13.775 C46.1988571,10.875 47.6594286,8.45833333 49.6068571,6.76666667 C51.5542857,4.83333333 53.7451429,3.625 56.1794286,2.65833333 C58.6137143,1.69166667 61.5348571,1.45 64.456,1.45 C67.3771429,1.45 70.2982857,1.93333333 72.7325714,2.65833333 C75.1668571,3.625 77.3577143,4.83333333 79.3051429,6.76666667 C81.2525714,8.7 82.7131429,10.875 83.6868571,13.775 C84.6605714,16.675 85.1474286,20.0583333 85.1474286,24.1666667 L85.1474286,33.8333333 Z M74.9234286,24.1666667 C74.9234286,19.3333333 73.9497143,15.7083333 72.2457143,13.5333333 C70.5417143,11.3583333 67.864,10.15 64.2125714,10.15 C60.5611429,10.15 57.8834286,11.3583333 56.1794286,13.5333333 C54.4754286,15.7083333 53.5017143,19.3333333 53.5017143,24.1666667 L53.5017143,33.8333333 C53.5017143,38.6666667 54.4754286,42.2916667 56.1794286,44.4666667 C57.8834286,46.6416667 60.5611429,47.85 64.2125714,47.85 C67.864,47.85 70.5417143,46.6416667 72.2457143,44.4666667 C73.9497143,42.2916667 74.9234286,38.6666667 74.9234286,33.8333333 L74.9234286,24.1666667 Z"></path>
                        <path d="M125.8,55.1 C125.556571,55.3416667 125.313143,55.3416667 124.582857,55.5833333 C124.096,55.825 123.365714,55.825 122.392,56.0666667 C121.418286,56.0666667 120.201143,56.3083333 119.227429,56.3083333 C118.010286,56.3083333 116.793143,56.55 115.576,56.55 C114.358857,56.55 113.141714,56.55 112.168,56.55 C109.733714,56.55 107.542857,56.3083333 105.595429,56.0666667 C103.648,55.825 101.700571,54.8583333 100.24,53.8916667 C98.7794286,52.6833333 97.5622857,51.2333333 96.5885714,49.3 C95.6148571,47.3666667 95.3714286,44.95 95.3714286,41.8083333 L95.3714286,3.38333333 C95.3714286,2.9 95.6148571,2.65833333 95.8582857,2.41666667 C96.1017143,2.175 96.5885714,1.93333333 96.832,1.93333333 L104.134857,1.93333333 C104.621714,1.93333333 104.865143,2.175 105.108571,2.41666667 C105.352,2.65833333 105.595429,3.14166667 105.595429,3.38333333 L105.595429,41.5666667 C105.595429,43.9833333 106.082286,45.675 106.812571,46.4 C107.542857,47.3666667 109.246857,47.6083333 111.194286,47.6083333 L124.582857,47.6083333 C125.069714,47.6083333 125.313143,47.85 125.556571,48.0916667 C125.8,48.3333333 126.043429,48.8166667 126.043429,49.0583333 L126.043429,53.65 C126.286857,54.6166667 126.043429,54.8583333 125.8,55.1 Z"></path>
                    </g>
                    <g transform="translate(127.017143, 1.000000)">
                        <path d="M25.0731429,51.925 C24.5862857,53.1333333 24.0994286,54.1 23.3691429,54.5833333 C22.6388571,55.0666667 21.6651429,55.3083333 20.448,55.3083333 C19.2308571,55.3083333 18.2571429,55.0666667 17.5268571,54.5833333 C16.7965714,54.1 16.0662857,53.1333333 15.8228571,51.925 L0.730285714,2.86666667 C0.486857143,2.38333333 0.730285714,1.9 0.730285714,1.65833333 C0.973714286,1.41666667 1.21714286,1.175 1.704,1.175 L2.43428571,1.175 C2.92114286,1.175 3.408,1.41666667 3.65142857,2.14166667 L18.5005714,51.2 C18.744,51.6833333 18.9874286,52.1666667 19.2308571,52.4083333 C19.4742857,52.65 19.7177143,52.65 20.2045714,52.65 C20.6914286,52.65 20.9348571,52.65 21.1782857,52.4083333 C21.4217143,52.1666667 21.6651429,51.925 21.9085714,51.2 L36.7577143,2.14166667 C37.0011429,1.41666667 37.2445714,1.175 37.9748571,1.175 L38.7051429,1.175 C39.192,1.175 39.4354286,1.41666667 39.6788571,1.65833333 C39.9222857,2.14166667 39.9222857,2.38333333 39.6788571,2.86666667 L25.0731429,51.925 Z"></path>
                        <path d="M85.4434286,32.5916667 C85.4434286,36.7 84.9565714,40.0833333 83.9828571,42.9833333 C83.0091429,45.8833333 81.792,48.3 80.088,49.9916667 C78.384,51.925 76.4365714,53.1333333 74.2457143,54.1 C72.0548571,55.0666667 69.3771429,55.3083333 66.6994286,55.3083333 C64.0217143,55.3083333 61.344,54.825 59.1531429,54.1 C56.9622857,53.1333333 54.7714286,51.925 53.3108571,49.9916667 C51.6068571,48.0583333 50.3897143,45.8833333 49.416,42.9833333 C48.4422857,40.0833333 47.9554286,36.7 47.9554286,32.5916667 L47.9554286,23.65 C47.9554286,19.5416667 48.4422857,16.1583333 49.416,13.2583333 C50.3897143,10.3583333 51.6068571,7.94166667 53.3108571,6.25 C55.0148571,4.31666667 56.9622857,3.10833333 59.1531429,2.14166667 C61.344,1.175 64.0217143,0.933333333 66.6994286,0.933333333 C69.3771429,0.933333333 72.0548571,1.41666667 74.2457143,2.14166667 C76.4365714,3.10833333 78.6274286,4.31666667 80.088,6.25 C81.792,8.18333333 83.0091429,10.3583333 83.9828571,13.2583333 C84.9565714,16.1583333 85.4434286,19.5416667 85.4434286,23.65 L85.4434286,32.5916667 Z M82.2788571,23.4083333 C82.2788571,19.7833333 81.792,16.6416667 81.0617143,13.9833333 C80.3314286,11.325 79.1142857,9.39166667 77.8971429,7.94166667 C76.4365714,6.49166667 74.976,5.28333333 73.0285714,4.55833333 C71.0811429,3.83333333 69.1337143,3.59166667 66.9428571,3.59166667 C64.752,3.59166667 62.8045714,3.83333333 60.8571429,4.55833333 C58.9097143,5.28333333 57.2057143,6.25 55.9885714,7.94166667 C54.528,9.39166667 53.5542857,11.5666667 52.824,13.9833333 C52.0937143,16.6416667 51.6068571,19.5416667 51.6068571,23.4083333 L51.6068571,32.35 C51.6068571,35.975 52.0937143,39.1166667 52.824,41.775 C53.5542857,44.1916667 54.7714286,46.3666667 55.9885714,47.8166667 C57.4491429,49.2666667 58.9097143,50.475 60.8571429,51.2 C62.8045714,51.925 64.752,52.1666667 66.9428571,52.1666667 C69.1337143,52.1666667 71.0811429,51.925 73.0285714,51.2 C74.976,50.475 76.68,49.5083333 77.8971429,47.8166667 C79.3577143,46.3666667 80.3314286,44.1916667 81.0617143,41.775 C81.792,39.3583333 82.2788571,36.2166667 82.2788571,32.35 L82.2788571,23.4083333 Z"></path>
                        <path d="M122.931429,55.0666667 L106.134857,55.0666667 C103.457143,55.0666667 101.266286,54.5833333 99.5622857,53.375 C98.1017143,52.1666667 97.128,49.9916667 97.128,47.0916667 L97.128,2.38333333 C97.128,1.9 97.128,1.65833333 97.3714286,1.41666667 C97.6148571,1.175 97.8582857,0.933333333 98.3451429,0.933333333 L99.0754286,0.933333333 C99.5622857,0.933333333 99.8057143,1.175 100.049143,1.41666667 C100.292571,1.65833333 100.292571,1.9 100.292571,2.38333333 L100.292571,46.85 C100.292571,48.0583333 100.536,48.7833333 100.779429,49.5083333 C101.022857,50.2333333 101.509714,50.7166667 101.996571,50.9583333 C102.483429,51.2 102.970286,51.6833333 103.700571,51.6833333 C104.430857,51.6833333 105.161143,51.925 106.134857,51.925 L122.931429,51.925 C123.905143,51.925 124.392,52.4083333 124.392,53.1333333 L124.392,53.6166667 C124.148571,54.5833333 123.905143,55.0666667 122.931429,55.0666667 Z"></path>
                        <path d="M156.037714,4.075 L140.458286,4.075 L140.458286,53.6166667 C140.458286,54.1 140.458286,54.3416667 140.214857,54.5833333 C139.971429,54.825 139.728,55.0666667 139.241143,55.0666667 L138.510857,55.0666667 C138.024,55.0666667 137.780571,54.825 137.537143,54.5833333 C137.293714,54.3416667 137.293714,54.1 137.293714,53.6166667 L137.293714,4.075 L121.470857,4.075 C120.497143,4.075 120.010286,3.83333333 120.010286,2.86666667 L120.010286,2.14166667 C120.010286,1.41666667 120.497143,0.933333333 121.470857,0.933333333 L156.037714,0.933333333 C157.011429,0.933333333 157.498286,1.41666667 157.498286,2.14166667 L157.498286,2.86666667 C157.498286,3.59166667 157.011429,4.075 156.037714,4.075 Z"></path>
                        <path d="M198.150857,53.375 C198.394286,53.8583333 198.394286,54.3416667 198.150857,54.5833333 C197.907429,54.825 197.664,55.0666667 197.177143,55.0666667 L196.203429,55.0666667 C195.716571,55.0666667 195.229714,54.825 194.986286,54.1 L188.900571,34.525 L167.722286,34.525 L161.636571,54.1 C161.636571,54.3416667 161.393143,54.5833333 161.149714,54.825 C160.906286,55.0666667 160.662857,55.0666667 160.419429,55.0666667 L159.445714,55.0666667 C158.958857,55.0666667 158.715429,54.825 158.472,54.5833333 C158.228571,54.3416667 158.228571,53.8583333 158.472,53.375 L173.564571,4.31666667 C173.808,3.10833333 174.538286,2.38333333 175.268571,1.65833333 C175.998857,0.933333333 176.972571,0.691666667 178.189714,0.691666667 C179.406857,0.691666667 180.380571,0.933333333 181.110857,1.65833333 C181.841143,2.38333333 182.571429,3.10833333 182.814857,4.31666667 L198.150857,53.375 Z M180.137143,5.04166667 C180.137143,4.55833333 179.893714,4.31666667 179.650286,4.075 C179.406857,3.83333333 178.92,3.59166667 178.433143,3.59166667 C177.946286,3.59166667 177.459429,3.83333333 177.216,4.075 C176.972571,4.31666667 176.729143,4.55833333 176.729143,5.04166667 L168.696,31.3833333 L188.170286,31.3833333 L180.137143,5.04166667 Z"></path>
                        <path d="M212.026286,54.5833333 C211.782857,54.825 211.539429,55.0666667 211.052571,55.0666667 L210.322286,55.0666667 C209.835429,55.0666667 209.592,54.825 209.348571,54.5833333 C209.105143,54.3416667 209.105143,54.1 209.105143,53.6166667 L209.105143,2.38333333 C209.105143,1.9 209.105143,1.65833333 209.348571,1.41666667 C209.592,1.175 209.835429,0.933333333 210.322286,0.933333333 L211.052571,0.933333333 C211.539429,0.933333333 211.782857,1.175 212.026286,1.41666667 C212.269714,1.65833333 212.269714,1.9 212.269714,2.38333333 L212.269714,53.6166667 C212.269714,54.1 212.269714,54.3416667 212.026286,54.5833333 Z"></path>
                        <path d="M256.086857,54.3416667 C255.843429,54.5833333 255.356571,54.5833333 255.113143,54.5833333 C254.139429,54.5833333 252.678857,54.825 250.488,55.0666667 C248.540571,55.3083333 245.619429,55.3083333 242.454857,55.3083333 C240.264,55.3083333 237.829714,54.825 235.882286,54.1 C233.691429,53.375 231.744,52.1666667 230.04,50.475 C228.336,48.7833333 227.118857,46.3666667 225.901714,43.4666667 C224.928,40.5666667 224.441143,36.9416667 224.441143,32.5916667 L224.441143,22.925 C224.441143,18.575 224.928,14.95 225.901714,12.05 C226.875429,9.15 228.336,6.975 230.04,5.04166667 C231.744,3.35 233.691429,2.14166667 235.882286,1.41666667 C238.073143,0.691666667 240.264,0.208333333 242.454857,0.208333333 C245.862857,0.208333333 248.540571,0.208333333 250.488,0.45 C252.435429,0.691666667 254.139429,0.691666667 255.113143,0.933333333 C255.356571,0.933333333 255.843429,1.175 256.086857,1.175 C256.330286,1.41666667 256.573714,1.65833333 256.573714,2.14166667 L256.573714,3.10833333 C256.573714,3.59166667 256.330286,3.83333333 256.086857,3.83333333 C255.843429,3.83333333 255.6,3.83333333 255.113143,3.83333333 C254.382857,3.83333333 253.652571,3.83333333 252.678857,3.59166667 C251.705143,3.59166667 250.731429,3.35 249.514286,3.35 C248.297143,3.35 247.323429,3.35 246.106286,3.10833333 C244.889143,3.10833333 243.672,3.10833333 242.698286,3.10833333 C240.750857,3.10833333 238.803429,3.35 236.856,4.075 C235.152,4.8 233.448,6.00833333 232.230857,7.45833333 C230.770286,8.90833333 229.796571,11.0833333 229.066286,13.5 C228.336,15.9166667 227.849143,19.0583333 227.849143,22.6833333 L227.849143,32.35 C227.849143,35.975 228.336,38.875 229.066286,41.5333333 C229.796571,43.95 230.770286,46.125 232.230857,47.575 C233.691429,49.025 235.152,50.2333333 236.856,50.9583333 C238.56,51.6833333 240.507429,51.925 242.698286,51.925 C243.915429,51.925 244.889143,51.925 246.106286,51.925 C247.323429,51.925 248.540571,51.925 249.514286,51.6833333 C250.731429,51.6833333 251.705143,51.6833333 252.678857,51.4416667 C253.652571,51.4416667 254.382857,51.2 255.113143,51.2 C255.6,51.2 255.843429,51.2 256.086857,51.2 C256.330286,51.2 256.573714,51.6833333 256.573714,51.925 L256.573714,52.8916667 C256.573714,53.8583333 256.330286,54.1 256.086857,54.3416667 Z"></path>
                        <path d="M296.252571,41.5333333 C296.252571,43.225 296.009143,44.9166667 295.522286,46.3666667 C295.035429,48.0583333 294.305143,49.5083333 293.088,50.9583333 C291.870857,52.4083333 290.166857,53.375 287.976,54.1 C285.785143,54.825 282.864,55.3083333 279.456,55.3083333 C277.021714,55.3083333 275.074286,55.3083333 273.126857,55.0666667 C271.422857,54.825 269.962286,54.825 268.745143,54.5833333 C268.014857,54.5833333 267.528,54.3416667 267.284571,54.1 C267.041143,53.8583333 266.797714,53.6166667 266.797714,53.1333333 L266.797714,52.8916667 C266.797714,52.4083333 267.041143,51.925 267.284571,51.925 C267.771429,51.6833333 268.014857,51.6833333 268.501714,51.6833333 C268.988571,51.6833333 269.718857,51.925 270.692571,51.925 C271.422857,51.925 272.396571,52.1666667 273.370286,52.1666667 C274.344,52.1666667 275.317714,52.4083333 276.534857,52.4083333 C277.508571,52.4083333 278.725714,52.4083333 279.699429,52.4083333 C282.377143,52.4083333 284.811429,52.1666667 286.515429,51.6833333 C288.219429,51.2 289.68,50.2333333 290.653714,49.2666667 C291.627429,48.3 292.357714,47.0916667 292.844571,45.8833333 C293.331429,44.675 293.331429,43.225 293.331429,41.775 C293.331429,40.325 293.088,39.3583333 292.601143,38.3916667 C292.114286,37.425 291.627429,36.4583333 290.653714,35.4916667 C289.68,34.525 288.706286,33.8 287.245714,32.8333333 C285.785143,31.8666667 284.081143,30.9 282.133714,29.45 L277.508571,26.55 C275.804571,25.5833333 274.344,24.6166667 272.883429,23.65 C271.422857,22.6833333 270.205714,21.7166667 269.232,20.5083333 C268.258286,19.3 267.528,18.0916667 266.797714,16.8833333 C266.067429,15.675 266.067429,13.9833333 266.067429,12.2916667 C266.067429,10.1166667 266.554286,8.18333333 267.528,6.73333333 C268.501714,5.28333333 269.718857,4.075 271.422857,3.35 C273.126857,2.38333333 274.830857,1.9 277.021714,1.65833333 C278.969143,1.41666667 281.16,1.175 283.350857,1.175 C284.081143,1.175 285.054857,1.175 286.028571,1.175 C287.002286,1.175 287.976,1.175 288.949714,1.41666667 C289.923429,1.41666667 290.897143,1.41666667 291.627429,1.65833333 C292.357714,1.65833333 293.088,1.9 293.574857,1.9 C294.305143,1.9 294.792,2.14166667 295.035429,2.38333333 C295.278857,2.625 295.522286,2.86666667 295.522286,3.35 L295.522286,3.59166667 C295.522286,4.075 295.278857,4.55833333 295.035429,4.55833333 C294.548571,4.8 294.061714,4.8 293.331429,4.55833333 C293.088,4.55833333 292.601143,4.55833333 291.870857,4.55833333 C291.140571,4.55833333 290.166857,4.31666667 289.193143,4.31666667 C288.219429,4.31666667 287.245714,4.075 286.028571,4.075 C285.054857,4.075 284.081143,4.075 283.350857,4.075 C278.482286,4.075 274.830857,4.8 272.883429,6.25 C270.692571,7.7 269.718857,9.63333333 269.718857,12.2916667 C269.718857,13.5 269.962286,14.7083333 270.449143,15.675 C270.936,16.6416667 271.422857,17.6083333 272.396571,18.575 C273.126857,19.5416667 274.344,20.2666667 275.561143,21.2333333 C276.778286,22.2 278.238857,22.925 279.942857,23.8916667 L284.568,26.7916667 C286.758857,28 288.706286,29.2083333 290.166857,30.4166667 C291.870857,31.625 293.088,32.5916667 294.305143,33.8 C295.522286,35.0083333 296.252571,36.2166667 296.739429,37.425 C296.009143,38.3916667 296.252571,39.8416667 296.252571,41.5333333 Z"></path>
                    </g>
                </g>
            </g>
        </g>
    </g>
</svg>