<?xml version="1.0" encoding="UTF-8"?>
<svg width="212px" height="36px" viewBox="0 0 212 36" version="1.1" xmlns="http://www.w3.org/2000/svg" xmlns:xlink="http://www.w3.org/1999/xlink">
    <!-- Generator: Sketch 49.3 (51167) - http://www.bohemiancoding.com/sketch -->
    <title>ticketswap</title>
    <desc>Created with Sketch.</desc>
    <defs></defs>
    <g id="Page-1" stroke="none" stroke-width="1" fill="none" fill-rule="evenodd">
        <g id="ticketswap" fill="#4A4A4A" fill-rule="nonzero">
            <g id="Group">
                <path d="M73.933,27.57 C73.933,27.57 72.808,27.943 70.968,27.943 C68.064,27.943 66.566,26.04 66.566,23.134 L66.566,16.393 L64.225,16.393 L64.225,12.711 L66.566,12.711 L66.566,7.686 L70.406,7.686 L70.406,12.711 L74.338,12.711 L74.338,16.393 L70.406,16.393 L70.406,22.324 C70.406,23.352 70.686,24.317 72.058,24.317 C73.026,24.317 73.933,24.159 73.933,24.159 L73.933,27.57 Z" id="Shape"></path>
                <path d="M76.989,7.812 C76.989,6.439 78.05,5.41 79.427,5.41 C80.8,5.41 81.829,6.44 81.829,7.812 C81.829,9.184 80.8,10.246 79.427,10.246 C78.049,10.245 76.989,9.184 76.989,7.812 Z M77.49,27.54 L77.49,12.712 L81.33,12.712 L81.33,27.54 L77.49,27.54 Z" id="Shape"></path>
                <path d="M97.696,24.292 C96.322,26.479 93.825,27.943 90.988,27.943 C86.616,27.943 83.121,24.448 83.121,20.171 C83.121,15.863 86.616,12.432 90.988,12.432 C93.795,12.432 96.229,13.835 97.634,15.96 L94.357,17.864 C93.608,16.802 92.391,16.117 90.988,16.117 C88.739,16.117 86.897,17.984 86.897,20.171 C86.897,22.389 88.739,24.261 90.988,24.261 C92.453,24.261 93.734,23.507 94.449,22.358 L97.696,24.292 Z" id="Shape"></path>
                <polygon id="Shape" points="108.964 27.54 103.096 20.921 103.096 27.54 99.255 27.54 99.255 4.441 103.096 4.441 103.096 18.456 108.467 12.712 113.397 12.712 106.907 19.484 114.022 27.54"></polygon>
                <path d="M116.607,21.391 C117.044,23.2 118.508,24.479 120.726,24.479 C122.074,24.479 123.503,23.979 124.376,22.829 L127,24.914 C125.654,26.824 123.285,27.945 120.757,27.945 C116.293,27.945 112.86,24.605 112.86,20.263 C112.86,16.051 115.827,12.431 120.541,12.431 C124.903,12.431 127.997,15.99 127.997,20.17 C127.997,20.579 127.969,21.013 127.905,21.39 L116.607,21.39 L116.607,21.391 Z M124.131,18.581 C123.91,17.081 122.354,15.927 120.504,15.927 C118.731,15.927 117.292,16.988 116.733,18.581 L124.131,18.581 Z" id="Shape"></path>
                <path d="M138.329,27.57 C138.329,27.57 137.206,27.943 135.366,27.943 C132.463,27.943 130.965,26.04 130.965,23.134 L130.965,16.393 L128.625,16.393 L128.625,12.711 L130.965,12.711 L130.965,7.686 L134.802,7.686 L134.802,12.711 L138.737,12.711 L138.737,16.393 L134.802,16.393 L134.802,22.324 C134.802,23.352 135.086,24.317 136.463,24.317 C137.425,24.317 138.329,24.159 138.329,24.159 L138.329,27.57 Z" id="Shape"></path>
                <path d="M142.725,22.919 C144.1,24.102 145.751,24.448 146.813,24.448 C148.188,24.448 148.623,23.884 148.623,23.353 C148.623,21.136 141.102,22.511 141.102,17.172 C141.102,14.459 143.039,12.43 146.341,12.43 C147.654,12.43 150.059,12.741 151.743,14.302 L149.715,17.047 C148.403,16.145 147.188,15.925 146.371,15.925 C145.096,15.925 144.841,16.487 144.841,16.862 C144.841,18.953 152.272,17.953 152.272,23.228 C152.272,25.943 150.305,27.943 146.563,27.943 C143.811,27.943 142.039,26.882 140.694,25.853 L142.725,22.919 Z" id="Shape"></path>
                <polygon id="Shape" points="168.583 27.54 165.249 18.079 162.034 27.54 158.039 27.54 152.764 12.712 157.069 12.712 160.067 22.45 163.563 12.712 166.934 12.712 170.368 22.45 173.397 12.712 177.733 12.712 172.399 27.54"></polygon>
                <path d="M189.669,27.54 L189.669,26.57 C188.486,27.54 187.081,27.943 185.555,27.943 C181.182,27.943 177.69,24.448 177.69,20.171 C177.69,15.863 181.182,12.432 185.555,12.432 C187.05,12.432 188.457,12.837 189.669,13.802 L189.669,12.713 L193.514,12.713 L193.514,27.54 L189.669,27.54 Z M185.555,16.117 C183.307,16.117 181.465,17.984 181.465,20.171 C181.465,22.389 183.307,24.261 185.555,24.261 C187.833,24.261 189.669,22.389 189.669,20.171 C189.669,17.984 187.833,16.117 185.555,16.117 Z" id="Shape"></path>
                <path d="M196.07,35.434 L196.07,12.712 L199.912,12.712 L199.912,13.801 C201.1,12.836 202.507,12.431 204.034,12.431 C208.404,12.431 211.898,15.863 211.898,20.17 C211.898,24.447 208.404,27.943 204.034,27.943 C202.507,27.943 201.099,27.539 199.912,26.57 L199.912,35.431 L196.07,35.431 L196.07,35.434 Z M199.912,20.359 C200.007,22.482 201.816,24.259 204.034,24.259 C206.283,24.259 208.119,22.386 208.119,20.169 C208.119,17.981 206.283,16.115 204.034,16.115 C201.816,16.115 200.007,17.922 199.912,20.012 L199.912,20.359 Z" id="Shape"></path>
                <path d="M29.277,21.061 C27.374,22.959 24.291,22.959 22.389,21.061 L11.193,9.863 C9.769,8.436 7.456,8.436 6.026,9.863 L0,15.892 L13.778,29.663 C20.436,36.326 31.231,36.326 37.886,29.663 C38.472,29.087 39.006,28.466 39.485,27.82 L30.537,18.87 C30.321,19.671 29.905,20.428 29.277,21.061 Z" id="Shape"></path>
                <path d="M37.886,5.558 C31.231,-1.097 20.431,-1.097 13.778,5.558 C13.195,6.144 12.663,6.765 12.181,7.405 L21.129,16.356 C21.345,15.555 21.762,14.8 22.389,14.168 L22.389,14.167 C24.291,12.267 27.374,12.267 29.277,14.168 L40.467,25.359 C41.897,26.79 44.211,26.79 45.634,25.359 L51.663,19.333 L37.886,5.558 Z" id="Shape"></path>
            </g>
        </g>
    </g>
</svg>