<?xml version="1.0" encoding="UTF-8"?>
<svg width="138px" height="37px" viewBox="0 0 138 37" version="1.1" xmlns="http://www.w3.org/2000/svg" xmlns:xlink="http://www.w3.org/1999/xlink">
    <!-- Generator: Sketch 53 (72520) - https://sketchapp.com -->
    <title>()=&gt;{}</title>
    <desc>Created with Sketch.</desc>
    <g id="ilustration-landing-page" stroke="none" stroke-width="1" fill="none" fill-rule="evenodd">
        <g id="Artboard" transform="translate(-658.000000, -162.000000)" fill="#484C50" fill-rule="nonzero">
            <path d="M658.109375,180.59375 C658.109375,177.734361 658.490231,175.074231 659.251953,172.613281 C660.013676,170.152331 661.065423,168.066415 662.407227,166.355469 C663.74903,164.644523 665.240226,163.449222 666.880859,162.769531 L668.005859,165.6875 C666.365226,166.894537 665.096684,168.778308 664.200195,171.338867 C663.303706,173.899427 662.849609,176.902327 662.837891,180.347656 L662.837891,181.121094 C662.837891,184.648455 663.286128,187.707018 664.182617,190.296875 C665.079106,192.886732 666.353507,194.78515 668.005859,195.992188 L666.880859,198.910156 C665.263664,198.253903 663.772468,197.055673 662.407227,195.31543 C661.041985,193.575187 659.990238,191.498059 659.251953,189.083984 C658.513668,186.66991 658.132813,184.103529 658.109375,181.384766 L658.109375,180.59375 Z M692.237734,181.085938 C692.237734,183.839858 691.833441,186.453113 691.024844,188.925781 C690.216246,191.39845 689.100046,193.522452 687.676211,195.297852 C686.252376,197.073251 684.714305,198.277341 683.061953,198.910156 L681.936953,195.992188 C683.565867,194.773431 684.82562,192.89845 685.71625,190.367188 C686.606879,187.835925 687.069765,184.923845 687.104922,181.630859 L687.104922,180.558594 C687.104922,177.031232 686.656684,173.972669 685.760195,171.382812 C684.863706,168.792956 683.589305,166.894537 681.936953,165.6875 L683.061953,162.769531 C684.702586,163.414066 686.228938,164.606437 687.641055,166.34668 C689.053171,168.086923 690.166441,170.178699 690.980898,172.62207 C691.795356,175.065442 692.214297,177.628893 692.237734,180.3125 L692.237734,181.085938 Z M724.959844,178.308594 L708.6825,178.308594 L708.6825,173.738281 L724.959844,173.738281 L724.959844,178.308594 Z M724.959844,186.025391 L708.6825,186.025391 L708.6825,181.455078 L724.959844,181.455078 L724.959844,186.025391 Z M740.802344,180.242188 L731.239844,176.990234 L731.239844,171.611328 L746.691015,177.939453 L746.691015,182.615234 L731.239844,188.943359 L731.239844,183.564453 L740.802344,180.242188 Z M770.149453,197.328125 C765.930682,196.144525 763.821328,193.419943 763.821328,189.154297 L763.821328,185.673828 C763.821328,183.306629 762.872119,182.123047 760.973672,182.123047 L760.973672,178.132812 C762.872119,178.132812 763.821328,176.943371 763.821328,174.564453 L763.821328,170.873047 C763.856484,168.763661 764.40433,167.0586 765.464883,165.757812 C766.525435,164.457025 768.086943,163.513675 770.149453,162.927734 L771.256875,166.021484 C769.780305,166.583987 769.012734,168.160143 768.95414,170.75 L768.95414,174.564453 C768.95414,177.189466 767.870167,179.04101 765.702187,180.119141 C767.870167,181.197271 768.95414,183.054674 768.95414,185.691406 L768.95414,189.488281 C769.012734,192.078138 769.780305,193.654294 771.256875,194.216797 L770.149453,197.328125 Z M785.205547,194.216797 C786.682117,193.654294 787.449687,192.078138 787.508281,189.488281 L787.508281,185.673828 C787.508281,183.037096 788.598114,181.185552 790.777812,180.119141 C788.598114,179.052729 787.508281,177.201185 787.508281,174.564453 L787.508281,170.75 C787.449687,168.160143 786.682117,166.583987 785.205547,166.021484 L786.312968,162.927734 C788.410635,163.513675 789.986791,164.471673 791.041484,165.801758 C792.096177,167.131843 792.629375,168.874989 792.641093,171.03125 L792.641093,174.564453 C792.641093,176.943371 793.590303,178.132812 795.48875,178.132812 L795.48875,182.123047 C793.590303,182.123047 792.641093,183.300769 792.641093,185.65625 L792.641093,189.400391 C792.559062,193.525411 790.449708,196.167963 786.312968,197.328125 L785.205547,194.216797 Z" id="()=&gt;{}"></path>
        </g>
    </g>
</svg>