<?xml version="1.0" encoding="UTF-8"?>
<svg width="35px" height="37px" viewBox="0 0 35 37" version="1.1" xmlns="http://www.w3.org/2000/svg" xmlns:xlink="http://www.w3.org/1999/xlink">
    <!-- Generator: Sketch 53 (72520) - https://sketchapp.com -->
    <title>()</title>
    <desc>Created with Sketch.</desc>
    <g id="ilustration-landing-page" stroke="none" stroke-width="1" fill="none" fill-rule="evenodd">
        <g id="Artboard" transform="translate(-570.000000, -162.000000)" fill="#484C50" fill-rule="nonzero">
            <path d="M570.109375,180.59375 C570.109375,177.734361 570.490231,175.074231 571.251953,172.613281 C572.013676,170.152331 573.065423,168.066415 574.407227,166.355469 C575.74903,164.644523 577.240226,163.449222 578.880859,162.769531 L580.005859,165.6875 C578.365226,166.894537 577.096684,168.778308 576.200195,171.338867 C575.303706,173.899427 574.849609,176.902327 574.837891,180.347656 L574.837891,181.121094 C574.837891,184.648455 575.286128,187.707018 576.182617,190.296875 C577.079106,192.886732 578.353507,194.78515 580.005859,195.992188 L578.880859,198.910156 C577.263664,198.253903 575.772468,197.055673 574.407227,195.31543 C573.041985,193.575187 571.990238,191.498059 571.251953,189.083984 C570.513668,186.66991 570.132813,184.103529 570.109375,181.384766 L570.109375,180.59375 Z M604.237734,181.085938 C604.237734,183.839858 603.833441,186.453113 603.024844,188.925781 C602.216246,191.39845 601.100046,193.522452 599.676211,195.297852 C598.252376,197.073251 596.714305,198.277341 595.061953,198.910156 L593.936953,195.992188 C595.565867,194.773431 596.82562,192.89845 597.71625,190.367188 C598.606879,187.835925 599.069765,184.923845 599.104922,181.630859 L599.104922,180.558594 C599.104922,177.031232 598.656684,173.972669 597.760195,171.382812 C596.863706,168.792956 595.589305,166.894537 593.936953,165.6875 L595.061953,162.769531 C596.702586,163.414066 598.228938,164.606437 599.641055,166.34668 C601.053171,168.086923 602.166441,170.178699 602.980898,172.62207 C603.795356,175.065442 604.214297,177.628893 604.237734,180.3125 L604.237734,181.085938 Z" id="()"></path>
        </g>
    </g>
</svg>