<?xml version="1.0" encoding="UTF-8"?>
<svg width="8px" height="27px" viewBox="0 0 8 27" version="1.1" xmlns="http://www.w3.org/2000/svg" xmlns:xlink="http://www.w3.org/1999/xlink">
    <!-- Generator: Sketch 53 (72520) - https://sketchapp.com -->
    <title>;</title>
    <desc>Created with Sketch.</desc>
    <g id="ilustration-landing-page" stroke="none" stroke-width="1" fill="none" fill-rule="evenodd">
        <g id="Artboard" transform="translate(-485.000000, -171.000000)" fill="#484C50" fill-rule="nonzero">
            <path d="M489.167969,171.224609 C490.105473,171.224609 490.884763,171.502927 491.505859,172.05957 C492.126956,172.616214 492.4375,173.328121 492.4375,174.195312 C492.4375,175.062504 492.126956,175.774411 491.505859,176.331055 C490.884763,176.887698 490.105473,177.166016 489.167969,177.166016 C488.218745,177.166016 487.436527,176.884768 486.821289,176.322266 C486.206052,175.759763 485.898438,175.050786 485.898438,174.195312 C485.898438,173.339839 486.206052,172.630862 486.821289,172.068359 C487.436527,171.505857 488.218745,171.224609 489.167969,171.224609 Z M488.183594,197.890625 L485.195312,196.484375 L485.792969,195.289062 C486.613285,193.765617 487.041015,192.312507 487.076172,190.929688 L487.076172,186.535156 L491.822266,186.535156 L491.804688,190.349609 C491.792969,191.697272 491.447269,193.068352 490.767578,194.462891 C490.087887,195.857429 489.226568,196.999996 488.183594,197.890625 Z" id=";"></path>
        </g>
    </g>
</svg>